<svg width="1920" height="1080" viewBox="0 0 1920 1080" fill="none" xmlns="http://www.w3.org/2000/svg">
<g clip-path="url(#clip0)">
<rect width="254" height="58" rx="7" transform="matrix(-1 0 0 1 408 935)" fill="url(#paint0_linear)"/>
<rect x="176" y="525" width="254" height="58" rx="7" fill="url(#paint1_linear)"/>
<rect width="254" height="58" rx="7" transform="matrix(-1 0 0 1 1885 269)" fill="url(#paint2_linear)"/>
<rect width="254" height="58" rx="7" transform="matrix(-1 0 0 1 1668 630)" fill="url(#paint3_linear)"/>
<rect width="254" height="58" rx="7" transform="matrix(-1 0 0 1 616 240)" fill="url(#paint4_linear)"/>
<path d="M1916.8 545.891L1889.85 546.008C1892.9 553.352 1894.27 561.047 1893.95 569.094H1918.21L1909.66 587.609H1892.9C1888.84 601.516 1881.8 611.906 1871.8 618.781C1861.8 625.578 1847.86 629.25 1829.97 629.797L1874.5 696.359L1874.38 698H1848.95L1800.55 624.641L1802.9 611.047L1829.38 611.281C1848.52 611.281 1862.08 603.352 1870.05 587.492L1803.25 587.609L1811.8 569.094H1871.92C1871.45 561.828 1868.8 556.242 1863.95 552.336C1859.11 548.43 1852.62 546.32 1844.5 546.008L1810.75 545.891L1819.3 527.375H1925.36L1916.8 545.891Z" fill="url(#paint5_linear)"/>
<path d="M124.805 156.891L97.8516 157.008C100.898 164.352 102.266 172.047 101.953 180.094H126.211L117.656 198.609H100.898C96.8359 212.516 89.8047 222.906 79.8047 229.781C69.8047 236.578 55.8594 240.25 37.9688 240.797L82.5 307.359L82.3828 309H56.9531L8.55469 235.641L10.8984 222.047L37.3828 222.281C56.5234 222.281 70.0781 214.352 78.0469 198.492L11.25 198.609L19.8047 180.094H79.9219C79.4531 172.828 76.7969 167.242 71.9531 163.336C67.1094 159.43 60.625 157.32 52.5 157.008L18.75 156.891L27.3047 138.375H133.359L124.805 156.891Z" fill="url(#paint6_linear)"/>
</g>
<defs>
<linearGradient id="paint0_linear" x1="248" y1="29" x2="5" y2="29" gradientUnits="userSpaceOnUse">
<stop offset="0.0187499" stop-color="#001F69"/>
<stop offset="0.513542" stop-color="#041238"/>
</linearGradient>
<linearGradient id="paint1_linear" x1="424" y1="554" x2="181" y2="554" gradientUnits="userSpaceOnUse">
<stop offset="0.0187499" stop-color="#001F69"/>
<stop offset="0.513542" stop-color="#041238"/>
</linearGradient>
<linearGradient id="paint2_linear" x1="248" y1="29" x2="5" y2="29" gradientUnits="userSpaceOnUse">
<stop offset="0.0187499" stop-color="#001F69"/>
<stop offset="0.513542" stop-color="#041238"/>
</linearGradient>
<linearGradient id="paint3_linear" x1="248" y1="29" x2="5" y2="29" gradientUnits="userSpaceOnUse">
<stop offset="0.0187499" stop-color="#001F69"/>
<stop offset="0.513542" stop-color="#041238"/>
</linearGradient>
<linearGradient id="paint4_linear" x1="248" y1="29" x2="5" y2="29" gradientUnits="userSpaceOnUse">
<stop offset="0.0187499" stop-color="#001F69"/>
<stop offset="0.513542" stop-color="#041238"/>
</linearGradient>
<linearGradient id="paint5_linear" x1="1911.12" y1="615.5" x2="1794.4" y2="615.5" gradientUnits="userSpaceOnUse">
<stop offset="0.0187499" stop-color="#001F69"/>
<stop offset="0.513542" stop-color="#041238"/>
</linearGradient>
<linearGradient id="paint6_linear" x1="119.118" y1="226.5" x2="2.40157" y2="226.5" gradientUnits="userSpaceOnUse">
<stop offset="0.0187499" stop-color="#001F69"/>
<stop offset="0.513542" stop-color="#041238"/>
</linearGradient>
<clipPath id="clip0">
<rect width="1920" height="1080" fill="white"/>
</clipPath>
</defs>
</svg>
