<svg width="1920" height="1080" viewBox="0 0 1920 1080" fill="none" xmlns="http://www.w3.org/2000/svg">
<g clip-path="url(#clip0)">
<rect width="254" height="58" rx="7" transform="matrix(-1 0 0 1 444 959)" fill="url(#paint0_linear)"/>
<rect width="254" height="58" rx="7" transform="matrix(-1 0 0 1 596 156)" fill="url(#paint1_linear)"/>
<rect x="1748" y="232" width="254" height="58" rx="7" fill="url(#paint2_linear)"/>
<rect width="254" height="58" rx="7" transform="matrix(-1 0 0 1 1859 872)" fill="url(#paint3_linear)"/>
<rect width="254" height="58" rx="7" transform="matrix(-1 0 0 1 172 654)" fill="url(#paint4_linear)"/>
<path d="M1952.8 569.891L1925.85 570.008C1928.9 577.352 1930.27 585.047 1929.95 593.094H1954.21L1945.66 611.609H1928.9C1924.84 625.516 1917.8 635.906 1907.8 642.781C1897.8 649.578 1883.86 653.25 1865.97 653.797L1910.5 720.359L1910.38 722H1884.95L1836.55 648.641L1838.9 635.047L1865.38 635.281C1884.52 635.281 1898.08 627.352 1906.05 611.492L1839.25 611.609L1847.8 593.094H1907.92C1907.45 585.828 1904.8 580.242 1899.95 576.336C1895.11 572.43 1888.62 570.32 1880.5 570.008L1846.75 569.891L1855.3 551.375H1961.36L1952.8 569.891Z" fill="url(#paint5_linear)"/>
<path d="M961.195 971.891L988.148 972.008C985.102 979.352 983.734 987.047 984.047 995.094H959.789L968.344 1013.61H985.102C989.164 1027.52 996.195 1037.91 1006.2 1044.78C1016.2 1051.58 1030.14 1055.25 1048.03 1055.8L1003.5 1122.36L1003.62 1124H1029.05L1077.45 1050.64L1075.1 1037.05L1048.62 1037.28C1029.48 1037.28 1015.92 1029.35 1007.95 1013.49L1074.75 1013.61L1066.2 995.094H1006.08C1006.55 987.828 1009.2 982.242 1014.05 978.336C1018.89 974.43 1025.38 972.32 1033.5 972.008L1067.25 971.891L1058.7 953.375H952.641L961.195 971.891Z" fill="url(#paint6_linear)"/>
<path d="M64.2277 298.196C66.0445 292.601 73.9555 292.601 75.7723 298.196L94.9822 357.346C95.7947 359.848 98.1251 361.542 100.755 361.542H162.919C168.799 361.542 171.243 369.07 166.486 372.527L116.194 409.084C114.067 410.63 113.177 413.371 113.99 415.873L133.199 475.024C135.016 480.618 128.616 485.27 123.86 481.813L73.5675 445.256C71.4402 443.709 68.5597 443.709 66.4325 445.256L16.1404 481.813C11.3837 485.27 4.9837 480.618 6.80059 475.024L26.0105 415.873C26.823 413.371 25.9329 410.63 23.8056 409.084L-26.4865 372.527C-31.2431 369.07 -28.7985 361.542 -22.9189 361.542H39.2455C41.8749 361.542 44.2053 359.848 45.0178 357.346L64.2277 298.196Z" fill="url(#paint7_linear)"/>
</g>
<defs>
<linearGradient id="paint0_linear" x1="248" y1="29" x2="5" y2="29" gradientUnits="userSpaceOnUse">
<stop offset="0.0187499" stop-color="#001F69"/>
<stop offset="0.513542" stop-color="#041238"/>
</linearGradient>
<linearGradient id="paint1_linear" x1="248" y1="29" x2="5" y2="29" gradientUnits="userSpaceOnUse">
<stop offset="0.0187499" stop-color="#001F69"/>
<stop offset="0.513542" stop-color="#041238"/>
</linearGradient>
<linearGradient id="paint2_linear" x1="1996" y1="261" x2="1753" y2="261" gradientUnits="userSpaceOnUse">
<stop offset="0.0187499" stop-color="#001F69"/>
<stop offset="0.513542" stop-color="#041238"/>
</linearGradient>
<linearGradient id="paint3_linear" x1="248" y1="29" x2="5" y2="29" gradientUnits="userSpaceOnUse">
<stop offset="0.0187499" stop-color="#001F69"/>
<stop offset="0.513542" stop-color="#041238"/>
</linearGradient>
<linearGradient id="paint4_linear" x1="248" y1="29" x2="5" y2="29" gradientUnits="userSpaceOnUse">
<stop offset="0.0187499" stop-color="#001F69"/>
<stop offset="0.513542" stop-color="#041238"/>
</linearGradient>
<linearGradient id="paint5_linear" x1="1947.12" y1="639.5" x2="1830.4" y2="639.5" gradientUnits="userSpaceOnUse">
<stop offset="0.0187499" stop-color="#001F69"/>
<stop offset="0.513542" stop-color="#041238"/>
</linearGradient>
<linearGradient id="paint6_linear" x1="966.882" y1="1041.5" x2="1083.6" y2="1041.5" gradientUnits="userSpaceOnUse">
<stop offset="0.0187499" stop-color="#001F69"/>
<stop offset="0.513542" stop-color="#041238"/>
</linearGradient>
<linearGradient id="paint7_linear" x1="164.323" y1="388.5" x2="-25.1024" y2="388.5" gradientUnits="userSpaceOnUse">
<stop offset="0.0187499" stop-color="#001F69"/>
<stop offset="0.513542" stop-color="#041238"/>
</linearGradient>
<clipPath id="clip0">
<rect width="1920" height="1080" fill="white"/>
</clipPath>
</defs>
</svg>
