<svg width="1920" height="1080" viewBox="0 0 1920 1080" fill="none" xmlns="http://www.w3.org/2000/svg">
<g clip-path="url(#clip0)">
<path d="M207.455 368.083C213.169 368.083 218.649 370.344 222.689 374.367C226.73 378.391 229 383.848 229 389.539V432.45C229 438.14 226.73 443.598 222.689 447.621C218.649 451.645 213.169 453.905 207.455 453.905H196.014C193.388 474.645 183.251 493.718 167.507 507.544C151.762 521.371 131.492 529 110.5 529V507.544C127.643 507.544 144.083 500.763 156.205 488.692C168.326 476.621 175.136 460.249 175.136 443.178V378.811C175.136 361.74 168.326 345.368 156.205 333.297C144.083 321.226 127.643 314.444 110.5 314.444C93.3574 314.444 76.9169 321.226 64.7952 333.297C52.6735 345.368 45.8636 361.74 45.8636 378.811V453.905H13.5455C7.83124 453.905 2.35107 451.645 -1.68948 447.621C-5.73004 443.598 -8 438.14 -8 432.45V389.539C-8 383.848 -5.73004 378.391 -1.68948 374.367C2.35107 370.344 7.83124 368.083 13.5455 368.083H24.9861C27.615 347.345 37.7526 328.275 53.4969 314.451C69.2412 300.627 89.5099 293 110.5 293C131.49 293 151.759 300.627 167.503 314.451C183.247 328.275 193.385 347.345 196.014 368.083H207.455ZM64.8236 451.599L76.2427 433.405C86.5099 439.809 98.3846 443.197 110.5 443.178C122.615 443.197 134.49 439.809 144.757 433.405L156.176 451.599C142.487 460.14 126.654 464.658 110.5 464.633C94.3458 464.658 78.513 460.14 64.8236 451.599Z" fill="url(#paint0_linear)"/>
<rect width="254" height="58" rx="7" transform="matrix(-1 0 0 1 416 939)" fill="url(#paint1_linear)"/>
<rect width="254" height="58" rx="7" transform="matrix(-1 0 0 1 568 136)" fill="url(#paint2_linear)"/>
<rect x="1720" y="212" width="254" height="58" rx="7" fill="url(#paint3_linear)"/>
<rect width="254" height="58" rx="7" transform="matrix(-1 0 0 1 1831 852)" fill="url(#paint4_linear)"/>
<rect width="254" height="58" rx="7" transform="matrix(-1 0 0 1 256 638)" fill="url(#paint5_linear)"/>
<path d="M1009.2 1038.89L1036.15 1039.01C1033.1 1046.35 1031.73 1054.05 1032.05 1062.09H1007.79L1016.34 1080.61H1033.1C1037.16 1094.52 1044.2 1104.91 1054.2 1111.78C1064.2 1118.58 1078.14 1122.25 1096.03 1122.8L1051.5 1189.36L1051.62 1191H1077.05L1125.45 1117.64L1123.1 1104.05L1096.62 1104.28C1077.48 1104.28 1063.92 1096.35 1055.95 1080.49L1122.75 1080.61L1114.2 1062.09H1054.08C1054.55 1054.83 1057.2 1049.24 1062.05 1045.34C1066.89 1041.43 1073.38 1039.32 1081.5 1039.01L1115.25 1038.89L1106.7 1020.38H1000.64L1009.2 1038.89Z" fill="url(#paint6_linear)"/>
<path d="M1930 509C1930 500.163 1922.84 493 1914 493H1779.08C1770.24 493 1763.08 500.159 1763.08 508.992L1763.02 621.345C1763.01 635.604 1780.25 642.749 1790.33 632.667L1791.71 631.286C1794.71 628.286 1798.78 626.6 1803.03 626.6H1914C1922.84 626.6 1930 619.437 1930 610.6V509ZM1896.6 584.85C1896.6 589.462 1892.86 593.2 1888.25 593.2H1804.75C1800.14 593.2 1796.4 589.462 1796.4 584.85C1796.4 580.238 1800.14 576.5 1804.75 576.5H1888.25C1892.86 576.5 1896.6 580.238 1896.6 584.85ZM1896.6 559.8C1896.6 564.412 1892.86 568.15 1888.25 568.15H1804.75C1800.14 568.15 1796.4 564.412 1796.4 559.8C1796.4 555.188 1800.14 551.45 1804.75 551.45H1888.25C1892.86 551.45 1896.6 555.188 1896.6 559.8ZM1896.6 534.75C1896.6 539.362 1892.86 543.1 1888.25 543.1H1804.75C1800.14 543.1 1796.4 539.362 1796.4 534.75C1796.4 530.138 1800.14 526.4 1804.75 526.4H1888.25C1892.86 526.4 1896.6 530.138 1896.6 534.75Z" fill="url(#paint7_linear)"/>
</g>
<defs>
<linearGradient id="paint0_linear" x1="223.402" y1="411" x2="-3.33465" y2="411" gradientUnits="userSpaceOnUse">
<stop offset="0.0187499" stop-color="#001F69"/>
<stop offset="0.513542" stop-color="#041238"/>
</linearGradient>
<linearGradient id="paint1_linear" x1="248" y1="29" x2="5" y2="29" gradientUnits="userSpaceOnUse">
<stop offset="0.0187499" stop-color="#001F69"/>
<stop offset="0.513542" stop-color="#041238"/>
</linearGradient>
<linearGradient id="paint2_linear" x1="248" y1="29" x2="5" y2="29" gradientUnits="userSpaceOnUse">
<stop offset="0.0187499" stop-color="#001F69"/>
<stop offset="0.513542" stop-color="#041238"/>
</linearGradient>
<linearGradient id="paint3_linear" x1="1968" y1="241" x2="1725" y2="241" gradientUnits="userSpaceOnUse">
<stop offset="0.0187499" stop-color="#001F69"/>
<stop offset="0.513542" stop-color="#041238"/>
</linearGradient>
<linearGradient id="paint4_linear" x1="248" y1="29" x2="5" y2="29" gradientUnits="userSpaceOnUse">
<stop offset="0.0187499" stop-color="#001F69"/>
<stop offset="0.513542" stop-color="#041238"/>
</linearGradient>
<linearGradient id="paint5_linear" x1="248" y1="29" x2="5" y2="29" gradientUnits="userSpaceOnUse">
<stop offset="0.0187499" stop-color="#001F69"/>
<stop offset="0.513542" stop-color="#041238"/>
</linearGradient>
<linearGradient id="paint6_linear" x1="1014.88" y1="1108.5" x2="1131.6" y2="1108.5" gradientUnits="userSpaceOnUse">
<stop offset="0.0187499" stop-color="#001F69"/>
<stop offset="0.513542" stop-color="#041238"/>
</linearGradient>
<linearGradient id="paint7_linear" x1="1926.06" y1="576.5" x2="1766.29" y2="576.5" gradientUnits="userSpaceOnUse">
<stop offset="0.0187499" stop-color="#001F69"/>
<stop offset="0.513542" stop-color="#041238"/>
</linearGradient>
<clipPath id="clip0">
<rect width="1920" height="1080" fill="white"/>
</clipPath>
</defs>
</svg>
