<svg width="1920" height="1080" viewBox="0 0 1920 1080" fill="none" xmlns="http://www.w3.org/2000/svg">
<g clip-path="url(#clip0)">
<rect width="1920" height="1080" fill="#03102F"/>
<path opacity="0.79" d="M1504 661.927C1504 685.134 1502.45 702.324 1499.35 713.498C1495.81 725.101 1489.17 733.267 1479.43 737.994C1469.69 742.721 1454.64 745.085 1434.27 745.085V721.878C1448.88 721.878 1458.4 719.085 1462.83 713.498C1467.25 708.341 1469.47 697.382 1469.47 680.621V669.662H1446.89V611H1504V661.927ZM1403.73 661.927C1403.73 685.134 1402.18 702.324 1399.08 713.498C1395.54 725.101 1388.9 733.268 1379.16 737.998C1369.42 742.728 1354.37 745.09 1334 745.085V721.878C1349.05 721.878 1358.79 719.085 1363.22 713.498C1367.65 708.341 1369.86 697.382 1369.86 680.621V669.662H1346.62V611H1403.73V661.927Z" stroke="#001F69" stroke-width="3"/>
<path opacity="0.79" d="M437 254.158C437 230.951 438.549 213.761 441.648 202.587C445.19 190.984 451.831 182.818 461.57 178.091C471.309 173.364 486.362 171 506.727 171V194.207C492.118 194.207 482.599 197 478.172 202.587C473.745 207.744 471.532 218.703 471.531 235.464V246.423H494.109V305.085H437V254.158ZM537.273 254.158C537.273 230.951 538.822 213.761 541.921 202.587C545.463 190.984 552.104 182.817 561.843 178.087C571.582 173.357 586.635 170.995 607 171V194.207C591.948 194.207 582.208 197 577.781 202.587C573.354 207.744 571.14 218.703 571.14 235.464V246.423H594.382V305.085H537.273V254.158Z" stroke="#001F69" stroke-width="3"/>
<path d="M-57 374C-57 352.783 -48.5715 332.434 -33.5685 317.431C-18.5656 302.429 1.78268 294 23 294C44.2173 294 64.5656 302.429 79.5685 317.431C94.5715 332.434 103 352.783 103 374H-57ZM23 284C11.1331 284 -0.467262 280.481 -10.3342 273.888C-20.2012 267.295 -27.8915 257.925 -32.4328 246.961C-36.974 235.997 -38.1622 223.933 -35.8471 212.295C-33.532 200.656 -27.8176 189.965 -19.4264 181.574C-11.0353 173.182 -0.344284 167.468 11.2946 165.153C22.9334 162.838 34.9974 164.026 45.961 168.567C56.9246 173.109 66.2953 180.799 72.8882 190.666C79.4811 200.533 83 212.133 83 224C83.0022 231.88 81.4518 239.683 78.4373 246.964C75.4228 254.244 71.0033 260.859 65.4314 266.431C59.8594 272.003 53.2442 276.423 45.9636 279.437C38.6831 282.452 30.8799 284.002 23 284ZM123 324H163V344H123V324ZM93 274H163V294H93V274ZM113 224H163V244H113V224Z" fill="url(#paint0_linear)"/>
<path d="M1850 680C1850 658.783 1858.43 638.434 1873.43 623.431C1888.43 608.429 1908.78 600 1930 600C1951.22 600 1971.57 608.429 1986.57 623.431C2001.57 638.434 2010 658.783 2010 680H1850ZM1930 590C1918.13 590 1906.53 586.481 1896.67 579.888C1886.8 573.295 1879.11 563.925 1874.57 552.961C1870.03 541.997 1868.84 529.933 1871.15 518.295C1873.47 506.656 1879.18 495.965 1887.57 487.574C1895.96 479.182 1906.66 473.468 1918.29 471.153C1929.93 468.838 1942 470.026 1952.96 474.567C1963.92 479.109 1973.3 486.799 1979.89 496.666C1986.48 506.533 1990 518.133 1990 530C1990 537.88 1988.45 545.683 1985.44 552.964C1982.42 560.244 1978 566.859 1972.43 572.431C1966.86 578.003 1960.24 582.423 1952.96 585.437C1945.68 588.452 1937.88 590.002 1930 590ZM2030 630H2070V650H2030V630ZM2000 580H2070V600H2000V580ZM2020 530H2070V550H2020V530Z" fill="url(#paint1_linear)"/>
<path d="M188 949H428C431.866 949 435 945.866 435 942V898C435 894.134 431.866 891 428 891H188C184.134 891 181 894.134 181 898V942C181 945.866 184.134 949 188 949Z" fill="url(#paint2_linear)"/>
<path d="M298 117L538 117C541.866 117 545 113.866 545 110V66C545 62.134 541.866 59 538 59L298 59C294.134 59 291 62.134 291 66V110C291 113.866 294.134 117 298 117Z" fill="url(#paint3_linear)"/>
<path d="M1986 164H1746C1742.13 164 1739 167.134 1739 171V215C1739 218.866 1742.13 222 1746 222H1986C1989.87 222 1993 218.866 1993 215V171C1993 167.134 1989.87 164 1986 164Z" fill="url(#paint4_linear)"/>
<path d="M1603 862H1843C1846.87 862 1850 858.866 1850 855V811C1850 807.134 1846.87 804 1843 804H1603C1599.13 804 1596 807.134 1596 811V855C1596 858.866 1599.13 862 1603 862Z" fill="url(#paint5_linear)"/>
<path d="M28 648H268C271.866 648 275 644.866 275 641V597C275 593.134 271.866 590 268 590H28C24.134 590 21 593.134 21 597V641C21 644.866 24.134 648 28 648Z" fill="url(#paint6_linear)"/>
</g>
<defs>
<linearGradient id="paint0_linear" x1="157.72" y1="269" x2="-52.6" y2="269" gradientUnits="userSpaceOnUse">
<stop offset="0.019" stop-color="#001F69"/>
<stop offset="0.514" stop-color="#041238"/>
</linearGradient>
<linearGradient id="paint1_linear" x1="2064.72" y1="575" x2="1854.4" y2="575" gradientUnits="userSpaceOnUse">
<stop stop-color="#001F69"/>
<stop offset="0.05" stop-color="#041238"/>
<stop offset="0.626" stop-color="#001F69"/>
<stop offset="1" stop-color="#041238"/>
</linearGradient>
<linearGradient id="paint2_linear" x1="187.096" y1="920" x2="429.92" y2="920" gradientUnits="userSpaceOnUse">
<stop offset="0.019" stop-color="#001F69"/>
<stop offset="0.514" stop-color="#041238"/>
</linearGradient>
<linearGradient id="paint3_linear" x1="297.096" y1="88" x2="539.92" y2="88" gradientUnits="userSpaceOnUse">
<stop offset="0.019" stop-color="#001F69"/>
<stop offset="0.514" stop-color="#041238"/>
</linearGradient>
<linearGradient id="paint4_linear" x1="1986.9" y1="193" x2="1744.08" y2="193" gradientUnits="userSpaceOnUse">
<stop offset="0.019" stop-color="#001F69"/>
<stop offset="0.514" stop-color="#041238"/>
</linearGradient>
<linearGradient id="paint5_linear" x1="1602.1" y1="833" x2="1844.92" y2="833" gradientUnits="userSpaceOnUse">
<stop offset="0.019" stop-color="#001F69"/>
<stop offset="0.514" stop-color="#041238"/>
</linearGradient>
<linearGradient id="paint6_linear" x1="27.096" y1="619" x2="269.92" y2="619" gradientUnits="userSpaceOnUse">
<stop offset="0.019" stop-color="#001F69"/>
<stop offset="0.514" stop-color="#041238"/>
</linearGradient>
<clipPath id="clip0">
<rect width="1920" height="1080" fill="white"/>
</clipPath>
</defs>
</svg>
