<svg width="91" height="114" viewBox="0 0 91 114" fill="none" xmlns="http://www.w3.org/2000/svg">
<path d="M57.26 113.18H5.26C3.86404 113.177 2.52617 112.621 1.54001 111.633C0.553855 110.645 -2.51316e-06 109.306 0 107.91L0 5.27C0 3.87231 0.555231 2.53186 1.54355 1.54355C2.53186 0.555231 3.87231 0 5.27 0L57.27 0C58.6677 0 60.0081 0.555231 60.9965 1.54355C61.9848 2.53186 62.54 3.87231 62.54 5.27V21.34C62.54 21.8704 62.3293 22.3791 61.9542 22.7542C61.5791 23.1293 61.0704 23.34 60.54 23.34H36.11C35.3549 23.3426 34.6316 23.6437 34.0977 24.1777C33.5637 24.7116 33.2626 25.4349 33.26 26.19V69.6L41.6 61.27C41.9709 60.8968 42.4739 60.6849 43 60.68H60.53C61.0604 60.68 61.5691 60.8907 61.9442 61.2658C62.3193 61.6409 62.53 62.1496 62.53 62.68V107.91C62.53 109.308 61.9748 110.648 60.9865 111.636C59.9981 112.625 58.6577 113.18 57.26 113.18ZM5.27 4C4.93318 4 4.61015 4.1338 4.37197 4.37197C4.1338 4.61015 4 4.93318 4 5.27V107.91C4 108.247 4.1338 108.57 4.37197 108.808C4.61015 109.046 4.93318 109.18 5.27 109.18H57.27C57.6068 109.18 57.9299 109.046 58.168 108.808C58.4062 108.57 58.54 108.247 58.54 107.91V64.68H43.84L32.67 75.84C32.3916 76.1214 32.0358 76.3136 31.6478 76.392C31.2598 76.4705 30.8572 76.4315 30.4914 76.2803C30.1256 76.129 29.8132 75.8723 29.5938 75.5427C29.3745 75.2132 29.2583 74.8258 29.26 74.43V26.19C29.26 24.3733 29.9817 22.6309 31.2663 21.3463C32.5509 20.0617 34.2933 19.34 36.11 19.34H58.53V5.27C58.53 4.93318 58.3962 4.61015 58.158 4.37197C57.9199 4.1338 57.5968 4 57.26 4H5.27Z" fill="white"/>
<path fill-rule="evenodd" clip-rule="evenodd" d="M62.86 51.88V52.59C62.8601 53.241 62.6223 53.8697 62.1914 54.3577C61.7605 54.8458 61.1661 55.1595 60.52 55.24H60.21C59.5036 55.2373 58.827 54.9549 58.3285 54.4544C57.8299 53.954 57.55 53.2764 57.55 52.57V51.86L62.86 51.88Z" fill="white"/>
<path d="M60.18 33.7H60.48C62.1595 33.7819 63.7437 34.5046 64.9064 35.7194C66.0691 36.9342 66.7218 38.5485 66.73 40.23V43.67L68.33 47.87C68.3856 47.9927 68.4093 48.1275 68.3989 48.2618C68.3885 48.3961 68.3443 48.5257 68.2705 48.6384C68.1967 48.7511 68.0956 48.8433 67.9767 48.9065C67.8577 48.9698 67.7247 49.0019 67.59 49H52.78C52.6433 49.0081 52.5067 48.981 52.3835 48.9212C52.2602 48.8614 52.1544 48.771 52.0761 48.6586C51.9978 48.5462 51.9497 48.4156 51.9364 48.2793C51.9231 48.1429 51.945 48.0055 52 47.88L53.6 43.68V40.24C53.6 38.5055 54.289 36.842 55.5155 35.6155C56.742 34.389 58.4055 33.7 60.14 33.7H60.18ZM60.14 29.7C57.3524 29.7132 54.6833 30.8292 52.7158 32.8041C50.7484 34.779 49.6426 37.4524 49.64 40.24V42.94L48.3 46.45C48.0173 47.1786 47.9164 47.965 48.0059 48.7413C48.0955 49.5177 48.3729 50.2605 48.8141 50.9055C49.2552 51.5505 49.8469 52.0783 50.538 52.4433C51.229 52.8082 51.9985 52.9993 52.78 53H67.59C68.3633 52.9984 69.1248 52.8099 69.8097 52.4507C70.4945 52.0914 71.0824 51.572 71.5233 50.9367C71.9642 50.3013 72.2451 49.5689 72.342 48.8016C72.4389 48.0344 72.3491 47.255 72.08 46.53L70.73 42.98V40.28C70.7236 37.5806 69.6836 34.9862 67.8238 33.0297C65.964 31.0732 63.4256 29.9032 60.73 29.76C60.5501 29.7498 60.3698 29.7498 60.19 29.76L60.14 29.7Z" fill="white"/>
<path fill-rule="evenodd" clip-rule="evenodd" d="M83.24 21.34H36.11C34.8237 21.34 33.5901 21.851 32.6805 22.7606C31.771 23.6701 31.26 24.9037 31.26 26.19V74.43L43 62.68H83.24C84.5263 62.68 85.7599 62.169 86.6695 61.2595C87.579 60.3499 88.09 59.1163 88.09 57.83V26.19C88.09 24.9037 87.579 23.6701 86.6695 22.7606C85.7599 21.851 84.5263 21.34 83.24 21.34Z" stroke="white" stroke-width="4" stroke-linecap="round" stroke-linejoin="round"/>
<path d="M36.61 104.85H25.71C25.1796 104.85 24.6709 104.639 24.2958 104.264C23.9207 103.889 23.71 103.38 23.71 102.85C23.71 102.32 23.9207 101.811 24.2958 101.436C24.6709 101.061 25.1796 100.85 25.71 100.85H36.61C37.1405 100.85 37.6492 101.061 38.0242 101.436C38.3993 101.811 38.61 102.32 38.61 102.85C38.61 103.38 38.3993 103.889 38.0242 104.264C37.6492 104.639 37.1405 104.85 36.61 104.85Z" fill="white"/>
</svg>
