<svg width="262" height="208" viewBox="0 0 262 208" fill="none" xmlns="http://www.w3.org/2000/svg">
<path d="M18.5 35C18.5 34.7239 18.2761 34.5 18 34.5C17.7239 34.5 17.5 34.7239 17.5 35H18.5ZM18.5 86.5V82.2083H17.5V86.5H18.5ZM18.5 73.625L18.5 65.0417H17.5V73.625H18.5ZM18.5 56.4583L18.5 47.875H17.5L17.5 56.4583H18.5ZM18.5 39.2917V35H17.5V39.2917H18.5Z" fill="white"/>
<path d="M18.5 121C18.5 120.724 18.2761 120.5 18 120.5C17.7239 120.5 17.5 120.724 17.5 121H18.5ZM18.5 172.5V168.208H17.5V172.5H18.5ZM18.5 159.625L18.5 151.042H17.5V159.625H18.5ZM18.5 142.458L18.5 133.875H17.5L17.5 142.458H18.5ZM18.5 125.292V121H17.5V125.292H18.5Z" fill="white"/>
<rect x="1" y="1" width="32" height="32" rx="16" stroke="white" stroke-width="0.625" stroke-linecap="round" stroke-dasharray="7.5 7.5"/>
<rect x="5.57129" y="5.57141" width="22.8571" height="22.8571" rx="11.4286" fill="white"/>
<path d="M18.1546 22.2857H17.0536V13.9672C16.9685 14.0523 16.8432 14.1507 16.6776 14.2626C16.5165 14.3701 16.3329 14.4775 16.1271 14.5849C15.9256 14.6923 15.7108 14.793 15.4825 14.887C15.2587 14.981 15.0394 15.0549 14.8246 15.1086V13.9941C15.0663 13.9269 15.3214 13.8374 15.5899 13.7255C15.863 13.6092 16.1293 13.4816 16.3889 13.3428C16.653 13.1996 16.9014 13.0519 17.1341 12.8997C17.3669 12.7431 17.5683 12.5909 17.7384 12.4432H18.1546V22.2857Z" fill="#03102F"/>
<rect x="1" y="89" width="32" height="32" rx="16" stroke="white" stroke-width="0.625" stroke-linecap="round" stroke-dasharray="7.5 7.5"/>
<rect x="5.57129" y="93.5714" width="22.8571" height="22.8571" rx="11.4286" fill="white"/>
<path d="M18.4769 103.182C18.4769 102.887 18.4299 102.63 18.3359 102.41C18.2464 102.191 18.1211 102.01 17.9599 101.867C17.8033 101.719 17.6175 101.609 17.4027 101.538C17.1878 101.466 16.9551 101.43 16.7045 101.43C16.4896 101.43 16.2792 101.459 16.0733 101.517C15.8675 101.576 15.666 101.656 15.4691 101.759C15.2766 101.862 15.0886 101.985 14.9051 102.128C14.7261 102.272 14.5583 102.43 14.4016 102.605V101.423C14.7104 101.124 15.0551 100.895 15.4355 100.739C15.8205 100.577 16.2882 100.497 16.8387 100.497C17.2326 100.497 17.5974 100.555 17.9331 100.671C18.2688 100.783 18.5597 100.949 18.8059 101.168C19.0521 101.388 19.2445 101.658 19.3833 101.981C19.5265 102.303 19.5981 102.672 19.5981 103.088C19.5981 103.469 19.5534 103.814 19.4638 104.122C19.3788 104.431 19.2468 104.722 19.0677 104.995C18.8932 105.268 18.6716 105.53 18.4031 105.781C18.1345 106.031 17.819 106.286 17.4564 106.546C17.0043 106.868 16.6306 107.144 16.3352 107.372C16.0443 107.6 15.8115 107.815 15.6369 108.016C15.4669 108.213 15.346 108.413 15.2744 108.614C15.2073 108.811 15.1737 109.039 15.1737 109.299H19.9674V110.286H14.0256V109.809C14.0256 109.397 14.0704 109.035 14.1599 108.721C14.2494 108.408 14.3971 108.11 14.603 107.828C14.8089 107.546 15.0775 107.264 15.4087 106.982C15.7444 106.701 16.1539 106.383 16.6373 106.029C16.9864 105.778 17.2774 105.539 17.5101 105.311C17.7473 105.082 17.9376 104.854 18.0808 104.626C18.224 104.398 18.3247 104.167 18.3829 103.934C18.4456 103.697 18.4769 103.447 18.4769 103.182Z" fill="#03102F"/>
<rect x="1" y="175" width="32" height="32" rx="16" stroke="white" stroke-width="0.625" stroke-linecap="round" stroke-dasharray="7.5 7.5"/>
<rect x="5.57129" y="179.571" width="22.8571" height="22.8571" rx="11.4286" fill="white"/>
<path d="M19.6921 193.56C19.6921 193.994 19.6093 194.39 19.4437 194.748C19.2826 195.102 19.0521 195.406 18.7522 195.661C18.4568 195.912 18.1009 196.107 17.6847 196.245C17.2684 196.384 16.8096 196.454 16.3083 196.454C15.3908 196.454 14.6612 196.279 14.1196 195.93V194.748C14.7686 195.258 15.5116 195.514 16.3486 195.514C16.6843 195.514 16.9864 195.471 17.255 195.386C17.528 195.301 17.7608 195.178 17.9532 195.017C18.1502 194.856 18.3001 194.661 18.4031 194.433C18.5105 194.204 18.5642 193.947 18.5642 193.661C18.5642 192.403 17.669 191.774 15.8786 191.774H15.0797V190.841H15.8384C17.4228 190.841 18.2151 190.25 18.2151 189.068C18.2151 187.976 17.6108 187.43 16.4023 187.43C15.722 187.43 15.0842 187.658 14.4889 188.115V187.047C15.1021 186.68 15.8316 186.497 16.6776 186.497C17.0804 186.497 17.4452 186.553 17.772 186.665C18.0987 186.777 18.3784 186.933 18.6112 187.135C18.8439 187.336 19.023 187.578 19.1483 187.86C19.2781 188.142 19.343 188.453 19.343 188.793C19.343 190.06 18.7029 190.874 17.4228 191.237V191.264C17.7496 191.3 18.0517 191.38 18.3292 191.505C18.6067 191.626 18.8462 191.785 19.0476 191.982C19.249 192.179 19.4057 192.412 19.5176 192.68C19.6339 192.944 19.6921 193.238 19.6921 193.56Z" fill="#03102F"/>
<path d="M59.28 7H60.76V21H59.28V7ZM77.2152 7V21H75.9952L66.9952 9.64V21H65.5152V7H66.7352L75.7552 18.36V7H77.2152ZM85.8447 21.12C84.8047 21.12 83.8047 20.9533 82.8447 20.62C81.898 20.2867 81.1647 19.8467 80.6447 19.3L81.2247 18.16C81.7314 18.6667 82.4047 19.08 83.2447 19.4C84.0847 19.7067 84.9514 19.86 85.8447 19.86C87.098 19.86 88.038 19.6333 88.6647 19.18C89.2914 18.7133 89.6047 18.1133 89.6047 17.38C89.6047 16.82 89.4314 16.3733 89.0847 16.04C88.7514 15.7067 88.338 15.4533 87.8447 15.28C87.3514 15.0933 86.6647 14.8933 85.7847 14.68C84.7314 14.4133 83.8914 14.16 83.2647 13.92C82.638 13.6667 82.098 13.2867 81.6447 12.78C81.2047 12.2733 80.9847 11.5867 80.9847 10.72C80.9847 10.0133 81.1714 9.37333 81.5447 8.8C81.918 8.21333 82.4914 7.74667 83.2647 7.4C84.038 7.05333 84.998 6.88 86.1447 6.88C86.9447 6.88 87.7247 6.99333 88.4847 7.22C89.258 7.43333 89.9247 7.73333 90.4847 8.12L89.9847 9.3C89.398 8.91333 88.7714 8.62667 88.1047 8.44C87.438 8.24 86.7847 8.14 86.1447 8.14C84.918 8.14 83.9914 8.38 83.3647 8.86C82.7514 9.32667 82.4447 9.93333 82.4447 10.68C82.4447 11.24 82.6114 11.6933 82.9447 12.04C83.2914 12.3733 83.718 12.6333 84.2247 12.82C84.7447 12.9933 85.438 13.1867 86.3047 13.4C87.3314 13.6533 88.158 13.9067 88.7847 14.16C89.4247 14.4 89.9647 14.7733 90.4047 15.28C90.8447 15.7733 91.0647 16.4467 91.0647 17.3C91.0647 18.0067 90.8714 18.6533 90.4847 19.24C90.1114 19.8133 89.5314 20.2733 88.7447 20.62C87.958 20.9533 86.9914 21.12 85.8447 21.12ZM97.0141 8.28H92.0941V7H103.414V8.28H98.4941V21H97.0141V8.28ZM114.055 17.26H106.255L104.575 21H103.035L109.435 7H110.895L117.295 21H115.735L114.055 17.26ZM113.515 16.06L110.155 8.54L106.795 16.06H113.515ZM119.811 7H121.291V19.72H129.131V21H119.811V7ZM131.789 7H133.269V19.72H141.109V21H131.789V7ZM151.92 8.28H147V7H158.32V8.28H153.4V21H151.92V8.28ZM170.445 21L167.245 16.5C166.885 16.54 166.511 16.56 166.125 16.56H162.365V21H160.885V7H166.125C167.911 7 169.311 7.42667 170.325 8.28C171.338 9.13333 171.845 10.3067 171.845 11.8C171.845 12.8933 171.565 13.82 171.005 14.58C170.458 15.3267 169.671 15.8667 168.645 16.2L172.065 21H170.445ZM166.085 15.3C167.471 15.3 168.531 14.9933 169.265 14.38C169.998 13.7667 170.365 12.9067 170.365 11.8C170.365 10.6667 169.998 9.8 169.265 9.2C168.531 8.58667 167.471 8.28 166.085 8.28H162.365V15.3H166.085ZM184.318 17.26H176.518L174.838 21H173.298L179.698 7H181.158L187.558 21H185.998L184.318 17.26ZM183.778 16.06L180.418 8.54L177.058 16.06H183.778ZM190.074 7H195.774C197.254 7 198.56 7.3 199.694 7.9C200.827 8.48667 201.707 9.31333 202.334 10.38C202.96 11.4333 203.274 12.64 203.274 14C203.274 15.36 202.96 16.5733 202.334 17.64C201.707 18.6933 200.827 19.52 199.694 20.12C198.56 20.7067 197.254 21 195.774 21H190.074V7ZM195.694 19.72C196.92 19.72 197.994 19.48 198.914 19C199.834 18.5067 200.547 17.8333 201.054 16.98C201.56 16.1133 201.814 15.12 201.814 14C201.814 12.88 201.56 11.8933 201.054 11.04C200.547 10.1733 199.834 9.5 198.914 9.02C197.994 8.52667 196.92 8.28 195.694 8.28H191.554V19.72H195.694ZM216.697 19.72V21H206.797V7H216.397V8.28H208.277V13.26H215.517V14.52H208.277V19.72H216.697ZM229.196 13.78C230.116 13.98 230.823 14.38 231.316 14.98C231.823 15.5667 232.076 16.3267 232.076 17.26C232.076 18.46 231.629 19.3867 230.736 20.04C229.856 20.68 228.549 21 226.816 21H220.376V7H226.416C227.976 7 229.183 7.31333 230.036 7.94C230.903 8.56667 231.336 9.45333 231.336 10.6C231.336 11.3733 231.143 12.0333 230.756 12.58C230.383 13.1133 229.863 13.5133 229.196 13.78ZM221.856 8.22V13.3H226.316C227.449 13.3 228.323 13.0867 228.936 12.66C229.549 12.22 229.856 11.5867 229.856 10.76C229.856 9.93333 229.549 9.30667 228.936 8.88C228.323 8.44 227.449 8.22 226.316 8.22H221.856ZM226.796 19.78C228.049 19.78 228.996 19.5667 229.636 19.14C230.276 18.7133 230.596 18.0467 230.596 17.14C230.596 15.3933 229.329 14.52 226.796 14.52H221.856V19.78H226.796ZM244.434 17.26H236.634L234.954 21H233.414L239.814 7H241.274L247.674 21H246.114L244.434 17.26ZM243.894 16.06L240.534 8.54L237.174 16.06H243.894ZM259.855 14H261.275V19.34C260.622 19.9133 259.848 20.3533 258.955 20.66C258.062 20.9667 257.122 21.12 256.135 21.12C254.735 21.12 253.475 20.8133 252.355 20.2C251.235 19.5867 250.355 18.74 249.715 17.66C249.075 16.5667 248.755 15.3467 248.755 14C248.755 12.6533 249.075 11.44 249.715 10.36C250.355 9.26667 251.235 8.41333 252.355 7.8C253.475 7.18667 254.742 6.88 256.155 6.88C257.222 6.88 258.202 7.05333 259.095 7.4C259.988 7.73333 260.742 8.23333 261.355 8.9L260.435 9.84C259.328 8.74667 257.922 8.2 256.215 8.2C255.082 8.2 254.055 8.45333 253.135 8.96C252.228 9.45333 251.515 10.1467 250.995 11.04C250.475 11.92 250.215 12.9067 250.215 14C250.215 15.0933 250.475 16.08 250.995 16.96C251.515 17.84 252.228 18.5333 253.135 19.04C254.042 19.5467 255.062 19.8 256.195 19.8C257.635 19.8 258.855 19.44 259.855 18.72V14Z" fill="white"/>
<path d="M59.28 94H60.76V106.72H68.6V108H59.28V94ZM77.1039 108.12C75.7172 108.12 74.4572 107.813 73.3239 107.2C72.2039 106.573 71.3239 105.72 70.6839 104.64C70.0572 103.56 69.7439 102.347 69.7439 101C69.7439 99.6533 70.0572 98.44 70.6839 97.36C71.3239 96.28 72.2039 95.4333 73.3239 94.82C74.4572 94.1933 75.7172 93.88 77.1039 93.88C78.4906 93.88 79.7372 94.1867 80.8439 94.8C81.9639 95.4133 82.8439 96.2667 83.4839 97.36C84.1239 98.44 84.4439 99.6533 84.4439 101C84.4439 102.347 84.1239 103.567 83.4839 104.66C82.8439 105.74 81.9639 106.587 80.8439 107.2C79.7372 107.813 78.4906 108.12 77.1039 108.12ZM77.1039 106.8C78.2106 106.8 79.2106 106.553 80.1039 106.06C80.9972 105.553 81.6972 104.86 82.2039 103.98C82.7106 103.087 82.9639 102.093 82.9639 101C82.9639 99.9067 82.7106 98.92 82.2039 98.04C81.6972 97.1467 80.9972 96.4533 80.1039 95.96C79.2106 95.4533 78.2106 95.2 77.1039 95.2C75.9972 95.2 74.9906 95.4533 74.0839 95.96C73.1906 96.4533 72.4839 97.1467 71.9639 98.04C71.4572 98.92 71.2039 99.9067 71.2039 101C71.2039 102.093 71.4572 103.087 71.9639 103.98C72.4839 104.86 73.1906 105.553 74.0839 106.06C74.9906 106.553 75.9972 106.8 77.1039 106.8ZM97.8213 101H99.2413V106.34C98.5879 106.913 97.8146 107.353 96.9213 107.66C96.0279 107.967 95.0879 108.12 94.1013 108.12C92.7013 108.12 91.4412 107.813 90.3212 107.2C89.2012 106.587 88.3212 105.74 87.6812 104.66C87.0412 103.567 86.7212 102.347 86.7212 101C86.7212 99.6533 87.0412 98.44 87.6812 97.36C88.3212 96.2667 89.2012 95.4133 90.3212 94.8C91.4412 94.1867 92.7079 93.88 94.1213 93.88C95.1879 93.88 96.1679 94.0533 97.0612 94.4C97.9546 94.7333 98.7079 95.2333 99.3213 95.9L98.4013 96.84C97.2946 95.7467 95.8879 95.2 94.1812 95.2C93.0479 95.2 92.0212 95.4533 91.1013 95.96C90.1946 96.4533 89.4812 97.1467 88.9612 98.04C88.4412 98.92 88.1812 99.9067 88.1812 101C88.1812 102.093 88.4412 103.08 88.9612 103.96C89.4812 104.84 90.1946 105.533 91.1013 106.04C92.0079 106.547 93.0279 106.8 94.1613 106.8C95.6012 106.8 96.8213 106.44 97.8213 105.72V101ZM103.63 94H105.11V108H103.63V94ZM121.565 94V108H120.345L111.345 96.64V108H109.865V94H111.085L120.105 105.36V94H121.565ZM135.589 91.16H136.889L130.289 110H128.989L135.589 91.16ZM147.963 108.12C146.923 108.12 145.923 107.953 144.963 107.62C144.016 107.287 143.283 106.847 142.763 106.3L143.343 105.16C143.849 105.667 144.523 106.08 145.363 106.4C146.203 106.707 147.069 106.86 147.963 106.86C149.216 106.86 150.156 106.633 150.783 106.18C151.409 105.713 151.723 105.113 151.723 104.38C151.723 103.82 151.549 103.373 151.203 103.04C150.869 102.707 150.456 102.453 149.963 102.28C149.469 102.093 148.783 101.893 147.903 101.68C146.849 101.413 146.009 101.16 145.383 100.92C144.756 100.667 144.216 100.287 143.763 99.78C143.323 99.2733 143.103 98.5867 143.103 97.72C143.103 97.0133 143.289 96.3733 143.663 95.8C144.036 95.2133 144.609 94.7467 145.383 94.4C146.156 94.0533 147.116 93.88 148.263 93.88C149.063 93.88 149.843 93.9933 150.603 94.22C151.376 94.4333 152.043 94.7333 152.603 95.12L152.103 96.3C151.516 95.9133 150.889 95.6267 150.223 95.44C149.556 95.24 148.903 95.14 148.263 95.14C147.036 95.14 146.109 95.38 145.483 95.86C144.869 96.3267 144.563 96.9333 144.563 97.68C144.563 98.24 144.729 98.6933 145.063 99.04C145.409 99.3733 145.836 99.6333 146.343 99.82C146.863 99.9933 147.556 100.187 148.423 100.4C149.449 100.653 150.276 100.907 150.903 101.16C151.543 101.4 152.083 101.773 152.523 102.28C152.963 102.773 153.183 103.447 153.183 104.3C153.183 105.007 152.989 105.653 152.603 106.24C152.229 106.813 151.649 107.273 150.863 107.62C150.076 107.953 149.109 108.12 147.963 108.12ZM156.607 94H158.087V108H156.607V94ZM172.703 101H174.123V106.34C173.469 106.913 172.696 107.353 171.803 107.66C170.909 107.967 169.969 108.12 168.983 108.12C167.583 108.12 166.323 107.813 165.203 107.2C164.083 106.587 163.203 105.74 162.563 104.66C161.923 103.567 161.603 102.347 161.603 101C161.603 99.6533 161.923 98.44 162.563 97.36C163.203 96.2667 164.083 95.4133 165.203 94.8C166.323 94.1867 167.589 93.88 169.003 93.88C170.069 93.88 171.049 94.0533 171.943 94.4C172.836 94.7333 173.589 95.2333 174.203 95.9L173.283 96.84C172.176 95.7467 170.769 95.2 169.063 95.2C167.929 95.2 166.903 95.4533 165.983 95.96C165.076 96.4533 164.363 97.1467 163.843 98.04C163.323 98.92 163.062 99.9067 163.062 101C163.062 102.093 163.323 103.08 163.843 103.96C164.363 104.84 165.076 105.533 165.983 106.04C166.889 106.547 167.909 106.8 169.043 106.8C170.483 106.8 171.703 106.44 172.703 105.72V101ZM190.211 94V108H188.991L179.991 96.64V108H178.511V94H179.731L188.751 105.36V94H190.211ZM200.621 108.12C198.807 108.12 197.394 107.6 196.381 106.56C195.367 105.52 194.861 104.007 194.861 102.02V94H196.341V101.96C196.341 103.587 196.707 104.8 197.441 105.6C198.174 106.4 199.234 106.8 200.621 106.8C202.021 106.8 203.087 106.4 203.821 105.6C204.554 104.8 204.921 103.587 204.921 101.96V94H206.361V102.02C206.361 104.007 205.854 105.52 204.841 106.56C203.841 107.6 202.434 108.12 200.621 108.12ZM216.261 94C218.047 94 219.447 94.4267 220.461 95.28C221.474 96.1333 221.981 97.3067 221.981 98.8C221.981 100.293 221.474 101.467 220.461 102.32C219.447 103.16 218.047 103.58 216.261 103.58H212.501V108H211.021V94H216.261ZM216.221 102.28C217.607 102.28 218.667 101.98 219.401 101.38C220.134 100.767 220.501 99.9067 220.501 98.8C220.501 97.6667 220.134 96.8 219.401 96.2C218.667 95.5867 217.607 95.28 216.221 95.28H212.501V102.28H216.221Z" fill="white"/>
<path d="M63.14 195.12C62.1 195.12 61.1 194.953 60.14 194.62C59.1933 194.287 58.46 193.847 57.94 193.3L58.52 192.16C59.0267 192.667 59.7 193.08 60.54 193.4C61.38 193.707 62.2467 193.86 63.14 193.86C64.3933 193.86 65.3333 193.633 65.96 193.18C66.5867 192.713 66.9 192.113 66.9 191.38C66.9 190.82 66.7267 190.373 66.38 190.04C66.0467 189.707 65.6333 189.453 65.14 189.28C64.6467 189.093 63.96 188.893 63.08 188.68C62.0267 188.413 61.1867 188.16 60.56 187.92C59.9333 187.667 59.3933 187.287 58.94 186.78C58.5 186.273 58.28 185.587 58.28 184.72C58.28 184.013 58.4667 183.373 58.84 182.8C59.2133 182.213 59.7867 181.747 60.56 181.4C61.3333 181.053 62.2933 180.88 63.44 180.88C64.24 180.88 65.02 180.993 65.78 181.22C66.5533 181.433 67.22 181.733 67.78 182.12L67.28 183.3C66.6933 182.913 66.0667 182.627 65.4 182.44C64.7333 182.24 64.08 182.14 63.44 182.14C62.2133 182.14 61.2867 182.38 60.66 182.86C60.0467 183.327 59.74 183.933 59.74 184.68C59.74 185.24 59.9067 185.693 60.24 186.04C60.5867 186.373 61.0133 186.633 61.52 186.82C62.04 186.993 62.7333 187.187 63.6 187.4C64.6267 187.653 65.4533 187.907 66.08 188.16C66.72 188.4 67.26 188.773 67.7 189.28C68.14 189.773 68.36 190.447 68.36 191.3C68.36 192.007 68.1667 192.653 67.78 193.24C67.4067 193.813 66.8267 194.273 66.04 194.62C65.2533 194.953 64.2867 195.12 63.14 195.12ZM74.3094 182.28H69.3894V181H80.7094V182.28H75.7894V195H74.3094V182.28ZM91.3506 191.26H83.5506L81.8706 195H80.3306L86.7306 181H88.1906L94.5906 195H93.0306L91.3506 191.26ZM90.8106 190.06L87.4506 182.54L84.0906 190.06H90.8106ZM106.667 195L103.467 190.5C103.107 190.54 102.733 190.56 102.347 190.56H98.5866V195H97.1066V181H102.347C104.133 181 105.533 181.427 106.547 182.28C107.56 183.133 108.067 184.307 108.067 185.8C108.067 186.893 107.787 187.82 107.227 188.58C106.68 189.327 105.893 189.867 104.867 190.2L108.287 195H106.667ZM102.307 189.3C103.693 189.3 104.753 188.993 105.487 188.38C106.22 187.767 106.587 186.907 106.587 185.8C106.587 184.667 106.22 183.8 105.487 183.2C104.753 182.587 103.693 182.28 102.307 182.28H98.5866V189.3H102.307ZM114.284 182.28H109.364V181H120.684V182.28H115.764V195H114.284V182.28ZM131.403 182.28H126.483V181H137.803V182.28H132.883V195H131.403V182.28ZM149.928 195L146.728 190.5C146.368 190.54 145.994 190.56 145.608 190.56H141.848V195H140.368V181H145.608C147.394 181 148.794 181.427 149.808 182.28C150.821 183.133 151.328 184.307 151.328 185.8C151.328 186.893 151.048 187.82 150.488 188.58C149.941 189.327 149.154 189.867 148.128 190.2L151.548 195H149.928ZM145.568 189.3C146.954 189.3 148.014 188.993 148.748 188.38C149.481 187.767 149.848 186.907 149.848 185.8C149.848 184.667 149.481 183.8 148.748 183.2C148.014 182.587 146.954 182.28 145.568 182.28H141.848V189.3H145.568ZM163.801 191.26H156.001L154.321 195H152.781L159.181 181H160.641L167.041 195H165.481L163.801 191.26ZM163.261 190.06L159.901 182.54L156.541 190.06H163.261ZM169.557 181H175.257C176.737 181 178.043 181.3 179.177 181.9C180.31 182.487 181.19 183.313 181.817 184.38C182.443 185.433 182.757 186.64 182.757 188C182.757 189.36 182.443 190.573 181.817 191.64C181.19 192.693 180.31 193.52 179.177 194.12C178.043 194.707 176.737 195 175.257 195H169.557V181ZM175.177 193.72C176.403 193.72 177.477 193.48 178.397 193C179.317 192.507 180.03 191.833 180.537 190.98C181.043 190.113 181.297 189.12 181.297 188C181.297 186.88 181.043 185.893 180.537 185.04C180.03 184.173 179.317 183.5 178.397 183.02C177.477 182.527 176.403 182.28 175.177 182.28H171.037V193.72H175.177ZM186.28 181H187.76V195H186.28V181ZM204.215 181V195H202.995L193.995 183.64V195H192.515V181H193.735L202.755 192.36V181H204.215ZM218.845 188H220.265V193.34C219.611 193.913 218.838 194.353 217.945 194.66C217.051 194.967 216.111 195.12 215.125 195.12C213.725 195.12 212.465 194.813 211.345 194.2C210.225 193.587 209.345 192.74 208.705 191.66C208.065 190.567 207.745 189.347 207.745 188C207.745 186.653 208.065 185.44 208.705 184.36C209.345 183.267 210.225 182.413 211.345 181.8C212.465 181.187 213.731 180.88 215.145 180.88C216.211 180.88 217.191 181.053 218.085 181.4C218.978 181.733 219.731 182.233 220.345 182.9L219.425 183.84C218.318 182.747 216.911 182.2 215.205 182.2C214.071 182.2 213.045 182.453 212.125 182.96C211.218 183.453 210.505 184.147 209.985 185.04C209.465 185.92 209.205 186.907 209.205 188C209.205 189.093 209.465 190.08 209.985 190.96C210.505 191.84 211.218 192.533 212.125 193.04C213.031 193.547 214.051 193.8 215.185 193.8C216.625 193.8 217.845 193.44 218.845 192.72V188Z" fill="white"/>
</svg>
