<svg width="1465" height="116" viewBox="0 0 1465 116" fill="none" xmlns="http://www.w3.org/2000/svg">
<path d="M43.6744 108H39.8463V85.5938H43.6744V108ZM68.5256 108H64.4631L53.76 91.5312C53.4892 91.1146 53.2652 90.6823 53.0881 90.2344H52.9944C53.0777 90.7135 53.1194 91.7396 53.1194 93.3125V108H49.5256V85.5938H53.8538L64.1975 101.672C64.635 102.339 64.9163 102.797 65.0413 103.047H65.1038C64.9996 102.453 64.9475 101.448 64.9475 100.031V85.5938H68.5256V108ZM73.3769 107.109V103.281C73.7206 103.594 74.1269 103.875 74.5956 104.125C75.0748 104.375 75.58 104.589 76.1113 104.766C76.6425 104.932 77.1738 105.062 77.705 105.156C78.2363 105.25 78.7258 105.297 79.1738 105.297C80.7363 105.297 81.8977 105.036 82.6581 104.516C83.429 103.995 83.8144 103.24 83.8144 102.25C83.8144 101.719 83.6842 101.26 83.4238 100.875C83.1738 100.479 82.8196 100.12 82.3613 99.7969C81.9029 99.474 81.3613 99.1667 80.7363 98.875C80.1217 98.5729 79.4602 98.2604 78.7519 97.9375C77.9915 97.5312 77.2831 97.1198 76.6269 96.7031C75.9706 96.2865 75.3977 95.8281 74.9081 95.3281C74.429 94.8177 74.0488 94.2448 73.7675 93.6094C73.4967 92.974 73.3613 92.2292 73.3613 91.375C73.3613 90.3229 73.5956 89.4115 74.0644 88.6406C74.5435 87.8594 75.1685 87.2188 75.9394 86.7188C76.7206 86.2083 77.606 85.8333 78.5956 85.5938C79.5852 85.3438 80.5956 85.2188 81.6269 85.2188C83.9706 85.2188 85.679 85.4844 86.7519 86.0156V89.6875C85.481 88.7708 83.8456 88.3125 81.8456 88.3125C81.2935 88.3125 80.7415 88.3646 80.1894 88.4688C79.6477 88.5729 79.1581 88.7448 78.7206 88.9844C78.2935 89.224 77.9446 89.5312 77.6738 89.9062C77.4029 90.2812 77.2675 90.7344 77.2675 91.2656C77.2675 91.7656 77.3717 92.1979 77.58 92.5625C77.7883 92.9271 78.0904 93.2604 78.4863 93.5625C78.8925 93.8646 79.3821 94.1615 79.955 94.4531C80.5383 94.7344 81.2102 95.0417 81.9706 95.375C82.7519 95.7812 83.4863 96.2083 84.1738 96.6562C84.8717 97.1042 85.481 97.599 86.0019 98.1406C86.5331 98.6823 86.9498 99.2865 87.2519 99.9531C87.5644 100.609 87.7206 101.359 87.7206 102.203C87.7206 103.339 87.4915 104.297 87.0331 105.078C86.5748 105.859 85.955 106.495 85.1738 106.984C84.4029 107.474 83.5123 107.828 82.5019 108.047C81.4915 108.266 80.4238 108.375 79.2988 108.375C78.9238 108.375 78.4602 108.344 77.9081 108.281C77.3665 108.229 76.8092 108.146 76.2363 108.031C75.6633 107.927 75.1217 107.797 74.6113 107.641C74.1008 107.484 73.6894 107.307 73.3769 107.109ZM106.541 88.75H100.103V108H96.3844V88.75H89.9625V85.5938H106.541V88.75ZM126.204 108H122.126L120.111 102.297H111.298L109.361 108H105.298L113.689 85.5938H117.876L126.204 108ZM119.126 99.2656L116.017 90.3281C115.923 90.0365 115.824 89.5677 115.72 88.9219H115.658C115.564 89.5156 115.46 89.9844 115.345 90.3281L112.267 99.2656H119.126ZM142.024 108H129.618V85.5938H133.337V104.859H142.024V108ZM158.001 108H145.594V85.5938H149.313V104.859H158.001V108ZM174.406 99.875V108H170.703V85.5938H177.5C180.073 85.5938 182.068 86.1927 183.484 87.3906C184.901 88.5885 185.609 90.276 185.609 92.4531C185.609 94.6302 184.87 96.4115 183.391 97.7969C181.911 99.1823 179.911 99.875 177.391 99.875H174.406ZM174.406 88.6562V96.8438H176.812C178.406 96.8438 179.62 96.474 180.453 95.7344C181.286 94.9948 181.703 93.9531 181.703 92.6094C181.703 89.974 180.172 88.6562 177.109 88.6562H174.406ZM207.054 108H202.711L199.133 102C198.81 101.448 198.492 100.979 198.179 100.594C197.877 100.198 197.565 99.875 197.242 99.625C196.929 99.375 196.586 99.1927 196.211 99.0781C195.836 98.9635 195.414 98.9062 194.945 98.9062H193.445V108H189.742V85.5938H197.117C198.169 85.5938 199.138 85.7188 200.023 85.9688C200.909 86.2188 201.679 86.599 202.336 87.1094C202.992 87.6094 203.502 88.2396 203.867 89C204.242 89.75 204.429 90.6302 204.429 91.6406C204.429 92.4323 204.31 93.1615 204.07 93.8281C203.841 94.4844 203.508 95.0729 203.07 95.5938C202.643 96.1042 202.122 96.5417 201.508 96.9062C200.903 97.2708 200.221 97.5521 199.461 97.75V97.8125C199.867 98.0417 200.221 98.2969 200.523 98.5781C200.825 98.849 201.112 99.1302 201.383 99.4219C201.653 99.7135 201.919 100.047 202.179 100.422C202.45 100.786 202.747 101.214 203.07 101.703L207.054 108ZM193.445 88.6094V95.8906H196.539C197.112 95.8906 197.638 95.8021 198.117 95.625C198.606 95.4479 199.028 95.1927 199.383 94.8594C199.737 94.526 200.013 94.1198 200.211 93.6406C200.409 93.1615 200.508 92.625 200.508 92.0312C200.508 90.9583 200.169 90.1198 199.492 89.5156C198.815 88.9115 197.841 88.6094 196.57 88.6094H193.445ZM218.921 108.375C215.692 108.375 213.104 107.328 211.156 105.234C209.218 103.141 208.249 100.417 208.249 97.0625C208.249 93.4583 209.239 90.5833 211.218 88.4375C213.197 86.2917 215.885 85.2188 219.281 85.2188C222.426 85.2188 224.958 86.2604 226.874 88.3438C228.801 90.4271 229.765 93.151 229.765 96.5156C229.765 100.172 228.781 103.062 226.812 105.188C224.843 107.312 222.213 108.375 218.921 108.375ZM219.093 88.4844C217.041 88.4844 215.369 89.25 214.077 90.7812C212.796 92.3125 212.156 94.3281 212.156 96.8281C212.156 99.3177 212.781 101.323 214.031 102.844C215.281 104.365 216.916 105.125 218.937 105.125C221.083 105.125 222.775 104.401 224.015 102.953C225.255 101.505 225.874 99.4792 225.874 96.875C225.874 94.1979 225.27 92.1302 224.062 90.6719C222.864 89.2135 221.208 88.4844 219.093 88.4844ZM246.288 88.75H237.913V95.4844H245.632V98.625H237.913V108H234.194V85.5938H246.288V88.75ZM254.421 108H250.592V85.5938H254.421V108ZM274.647 88.75H268.209V108H264.491V88.75H258.069V85.5938H274.647V88.75ZM278.248 108V85.5938H285.357C287.524 85.5938 289.238 86.0677 290.498 87.0156C291.769 87.9635 292.404 89.1979 292.404 90.7188C292.404 91.9896 292.045 93.0938 291.326 94.0312C290.607 94.9688 289.613 95.6354 288.342 96.0312V96.0938C289.884 96.2708 291.113 96.8438 292.029 97.8125C292.956 98.7708 293.42 100.021 293.42 101.562C293.42 103.479 292.665 105.031 291.154 106.219C289.644 107.406 287.738 108 285.436 108H278.248ZM281.951 88.5781V94.9531H284.357C285.649 94.9531 286.66 94.651 287.389 94.0469C288.128 93.4323 288.498 92.5677 288.498 91.4531C288.498 89.5365 287.217 88.5781 284.654 88.5781H281.951ZM281.951 97.9375V105.031H285.123C286.509 105.031 287.576 104.714 288.326 104.078C289.087 103.432 289.467 102.547 289.467 101.422C289.467 99.099 287.857 97.9375 284.639 97.9375H281.951ZM316.318 108H312.24L310.224 102.297H301.412L299.474 108H295.412L303.802 85.5938H307.99L316.318 108ZM309.24 99.2656L306.131 90.3281C306.037 90.0365 305.938 89.5677 305.834 88.9219H305.771C305.677 89.5156 305.573 89.9844 305.459 90.3281L302.381 99.2656H309.24ZM336.841 106.469C334.508 107.74 331.909 108.375 329.044 108.375C325.732 108.375 323.05 107.344 320.997 105.281C318.945 103.219 317.919 100.49 317.919 97.0938C317.919 93.625 319.039 90.7812 321.279 88.5625C323.529 86.3333 326.383 85.2188 329.841 85.2188C332.331 85.2188 334.425 85.5833 336.122 86.3125V90.1406C334.404 88.9948 332.357 88.4219 329.982 88.4219C327.596 88.4219 325.638 89.2083 324.107 90.7812C322.586 92.3542 321.826 94.3906 321.826 96.8906C321.826 99.4635 322.482 101.49 323.794 102.969C325.107 104.438 326.888 105.172 329.138 105.172C330.68 105.172 332.013 104.875 333.138 104.281V98.9531H328.419V95.8281H336.841V106.469Z" fill="white"/>
<path d="M624.67 108H612.264V85.5938H615.982V104.859H624.67V108ZM636.506 108.375C633.276 108.375 630.688 107.328 628.74 105.234C626.802 103.141 625.834 100.417 625.834 97.0625C625.834 93.4583 626.823 90.5833 628.802 88.4375C630.782 86.2917 633.469 85.2188 636.865 85.2188C640.011 85.2188 642.542 86.2604 644.459 88.3438C646.386 90.4271 647.349 93.151 647.349 96.5156C647.349 100.172 646.365 103.062 644.396 105.188C642.427 107.312 639.797 108.375 636.506 108.375ZM636.677 88.4844C634.625 88.4844 632.954 89.25 631.662 90.7812C630.381 92.3125 629.74 94.3281 629.74 96.8281C629.74 99.3177 630.365 101.323 631.615 102.844C632.865 104.365 634.5 105.125 636.521 105.125C638.667 105.125 640.36 104.401 641.599 102.953C642.839 101.505 643.459 99.4792 643.459 96.875C643.459 94.1979 642.855 92.1302 641.646 90.6719C640.448 89.2135 638.792 88.4844 636.677 88.4844ZM669.263 106.469C666.93 107.74 664.331 108.375 661.466 108.375C658.154 108.375 655.471 107.344 653.419 105.281C651.367 103.219 650.341 100.49 650.341 97.0938C650.341 93.625 651.461 90.7812 653.701 88.5625C655.951 86.3333 658.805 85.2188 662.263 85.2188C664.753 85.2188 666.846 85.5833 668.544 86.3125V90.1406C666.826 88.9948 664.779 88.4219 662.404 88.4219C660.018 88.4219 658.06 89.2083 656.529 90.7812C655.008 92.3542 654.247 94.3906 654.247 96.8906C654.247 99.4635 654.904 101.49 656.216 102.969C657.529 104.438 659.31 105.172 661.56 105.172C663.102 105.172 664.435 104.875 665.56 104.281V98.9531H660.841V95.8281H669.263V106.469ZM678.224 108H674.396V85.5938H678.224V108ZM703.075 108H699.012L688.309 91.5312C688.039 91.1146 687.815 90.6823 687.637 90.2344H687.544C687.627 90.7135 687.669 91.7396 687.669 93.3125V108H684.075V85.5938H688.403L698.747 101.672C699.184 102.339 699.466 102.797 699.591 103.047H699.653C699.549 102.453 699.497 101.448 699.497 100.031V85.5938H703.075V108ZM728.871 85.5938L718.043 111.719H714.746L725.527 85.5938H728.871ZM739.761 107.109V103.281C740.105 103.594 740.511 103.875 740.98 104.125C741.459 104.375 741.964 104.589 742.496 104.766C743.027 104.932 743.558 105.062 744.089 105.156C744.621 105.25 745.11 105.297 745.558 105.297C747.121 105.297 748.282 105.036 749.042 104.516C749.813 103.995 750.199 103.24 750.199 102.25C750.199 101.719 750.069 101.26 749.808 100.875C749.558 100.479 749.204 100.12 748.746 99.7969C748.287 99.474 747.746 99.1667 747.121 98.875C746.506 98.5729 745.845 98.2604 745.136 97.9375C744.376 97.5312 743.667 97.1198 743.011 96.7031C742.355 96.2865 741.782 95.8281 741.292 95.3281C740.813 94.8177 740.433 94.2448 740.152 93.6094C739.881 92.974 739.746 92.2292 739.746 91.375C739.746 90.3229 739.98 89.4115 740.449 88.6406C740.928 87.8594 741.553 87.2188 742.324 86.7188C743.105 86.2083 743.99 85.8333 744.98 85.5938C745.97 85.3438 746.98 85.2188 748.011 85.2188C750.355 85.2188 752.063 85.4844 753.136 86.0156V89.6875C751.865 88.7708 750.23 88.3125 748.23 88.3125C747.678 88.3125 747.126 88.3646 746.574 88.4688C746.032 88.5729 745.542 88.7448 745.105 88.9844C744.678 89.224 744.329 89.5312 744.058 89.9062C743.787 90.2812 743.652 90.7344 743.652 91.2656C743.652 91.7656 743.756 92.1979 743.964 92.5625C744.173 92.9271 744.475 93.2604 744.871 93.5625C745.277 93.8646 745.766 94.1615 746.339 94.4531C746.923 94.7344 747.595 95.0417 748.355 95.375C749.136 95.7812 749.871 96.2083 750.558 96.6562C751.256 97.1042 751.865 97.599 752.386 98.1406C752.917 98.6823 753.334 99.2865 753.636 99.9531C753.949 100.609 754.105 101.359 754.105 102.203C754.105 103.339 753.876 104.297 753.417 105.078C752.959 105.859 752.339 106.495 751.558 106.984C750.787 107.474 749.897 107.828 748.886 108.047C747.876 108.266 746.808 108.375 745.683 108.375C745.308 108.375 744.845 108.344 744.292 108.281C743.751 108.229 743.194 108.146 742.621 108.031C742.048 107.927 741.506 107.797 740.996 107.641C740.485 107.484 740.074 107.307 739.761 107.109ZM762.363 108H758.534V85.5938H762.363V108ZM785.698 106.469C783.365 107.74 780.766 108.375 777.901 108.375C774.589 108.375 771.906 107.344 769.854 105.281C767.802 103.219 766.776 100.49 766.776 97.0938C766.776 93.625 767.896 90.7812 770.136 88.5625C772.386 86.3333 775.24 85.2188 778.698 85.2188C781.188 85.2188 783.281 85.5833 784.979 86.3125V90.1406C783.261 88.9948 781.214 88.4219 778.839 88.4219C776.453 88.4219 774.495 89.2083 772.964 90.7812C771.443 92.3542 770.682 94.3906 770.682 96.8906C770.682 99.4635 771.339 101.49 772.651 102.969C773.964 104.438 775.745 105.172 777.995 105.172C779.537 105.172 780.87 104.875 781.995 104.281V98.9531H777.276V95.8281H785.698V106.469ZM809.846 108H805.784L795.081 91.5312C794.81 91.1146 794.586 90.6823 794.409 90.2344H794.315C794.398 90.7135 794.44 91.7396 794.44 93.3125V108H790.846V85.5938H795.174L805.518 101.672C805.956 102.339 806.237 102.797 806.362 103.047H806.424C806.32 102.453 806.268 101.448 806.268 100.031V85.5938H809.846V108ZM832.963 98.9375C832.963 105.229 829.984 108.375 824.026 108.375C818.317 108.375 815.463 105.349 815.463 99.2969V85.5938H819.182V98.5312C819.182 102.927 820.89 105.125 824.307 105.125C827.599 105.125 829.244 103.005 829.244 98.7656V85.5938H832.963V98.9375ZM842.252 99.875V108H838.549V85.5938H845.346C847.919 85.5938 849.913 86.1927 851.33 87.3906C852.747 88.5885 853.455 90.276 853.455 92.4531C853.455 94.6302 852.715 96.4115 851.236 97.7969C849.757 99.1823 847.757 99.875 845.236 99.875H842.252ZM842.252 88.6562V96.8438H844.658C846.252 96.8438 847.465 96.474 848.299 95.7344C849.132 94.9948 849.549 93.9531 849.549 92.6094C849.549 89.974 848.018 88.6562 844.955 88.6562H842.252Z" fill="white"/>
<path d="M1157.72 107.109V103.281C1158.06 103.594 1158.47 103.875 1158.94 104.125C1159.42 104.375 1159.92 104.589 1160.46 104.766C1160.99 104.932 1161.52 105.062 1162.05 105.156C1162.58 105.25 1163.07 105.297 1163.52 105.297C1165.08 105.297 1166.24 105.036 1167 104.516C1167.77 103.995 1168.16 103.24 1168.16 102.25C1168.16 101.719 1168.03 101.26 1167.77 100.875C1167.52 100.479 1167.16 100.12 1166.71 99.7969C1166.25 99.474 1165.71 99.1667 1165.08 98.875C1164.47 98.5729 1163.8 98.2604 1163.1 97.9375C1162.34 97.5312 1161.63 97.1198 1160.97 96.7031C1160.31 96.2865 1159.74 95.8281 1159.25 95.3281C1158.77 94.8177 1158.39 94.2448 1158.11 93.6094C1157.84 92.974 1157.71 92.2292 1157.71 91.375C1157.71 90.3229 1157.94 89.4115 1158.41 88.6406C1158.89 87.8594 1159.51 87.2188 1160.28 86.7188C1161.06 86.2083 1161.95 85.8333 1162.94 85.5938C1163.93 85.3438 1164.94 85.2188 1165.97 85.2188C1168.31 85.2188 1170.02 85.4844 1171.1 86.0156V89.6875C1169.82 88.7708 1168.19 88.3125 1166.19 88.3125C1165.64 88.3125 1165.09 88.3646 1164.53 88.4688C1163.99 88.5729 1163.5 88.7448 1163.06 88.9844C1162.64 89.224 1162.29 89.5312 1162.02 89.9062C1161.75 90.2812 1161.61 90.7344 1161.61 91.2656C1161.61 91.7656 1161.72 92.1979 1161.92 92.5625C1162.13 92.9271 1162.43 93.2604 1162.83 93.5625C1163.24 93.8646 1163.73 94.1615 1164.3 94.4531C1164.88 94.7344 1165.55 95.0417 1166.31 95.375C1167.1 95.7812 1167.83 96.2083 1168.52 96.6562C1169.22 97.1042 1169.82 97.599 1170.35 98.1406C1170.88 98.6823 1171.29 99.2865 1171.6 99.9531C1171.91 100.609 1172.06 101.359 1172.06 102.203C1172.06 103.339 1171.84 104.297 1171.38 105.078C1170.92 105.859 1170.3 106.495 1169.52 106.984C1168.75 107.474 1167.86 107.828 1166.85 108.047C1165.84 108.266 1164.77 108.375 1163.64 108.375C1163.27 108.375 1162.8 108.344 1162.25 108.281C1161.71 108.229 1161.15 108.146 1160.58 108.031C1160.01 107.927 1159.47 107.797 1158.96 107.641C1158.44 107.484 1158.03 107.307 1157.72 107.109ZM1190.88 88.75H1184.45V108H1180.73V88.75H1174.31V85.5938H1190.88V88.75ZM1210.55 108H1206.47L1204.45 102.297H1195.64L1193.7 108H1189.64L1198.03 85.5938H1202.22L1210.55 108ZM1203.47 99.2656L1200.36 90.3281C1200.27 90.0365 1200.17 89.5677 1200.06 88.9219H1200C1199.91 89.5156 1199.8 89.9844 1199.69 90.3281L1196.61 99.2656H1203.47ZM1231.27 108H1226.93L1223.35 102C1223.03 101.448 1222.71 100.979 1222.4 100.594C1222.1 100.198 1221.78 99.875 1221.46 99.625C1221.15 99.375 1220.81 99.1927 1220.43 99.0781C1220.06 98.9635 1219.63 98.9062 1219.17 98.9062H1217.67V108H1213.96V85.5938H1221.34C1222.39 85.5938 1223.36 85.7188 1224.24 85.9688C1225.13 86.2188 1225.9 86.599 1226.56 87.1094C1227.21 87.6094 1227.72 88.2396 1228.09 89C1228.46 89.75 1228.65 90.6302 1228.65 91.6406C1228.65 92.4323 1228.53 93.1615 1228.29 93.8281C1228.06 94.4844 1227.73 95.0729 1227.29 95.5938C1226.86 96.1042 1226.34 96.5417 1225.73 96.9062C1225.12 97.2708 1224.44 97.5521 1223.68 97.75V97.8125C1224.09 98.0417 1224.44 98.2969 1224.74 98.5781C1225.05 98.849 1225.33 99.1302 1225.6 99.4219C1225.87 99.7135 1226.14 100.047 1226.4 100.422C1226.67 100.786 1226.97 101.214 1227.29 101.703L1231.27 108ZM1217.67 88.6094V95.8906H1220.76C1221.33 95.8906 1221.86 95.8021 1222.34 95.625C1222.83 95.4479 1223.25 95.1927 1223.6 94.8594C1223.96 94.526 1224.23 94.1198 1224.43 93.6406C1224.63 93.1615 1224.73 92.625 1224.73 92.0312C1224.73 90.9583 1224.39 90.1198 1223.71 89.5156C1223.03 88.9115 1222.06 88.6094 1220.79 88.6094H1217.67ZM1247.84 88.75H1241.41V108H1237.69V88.75H1231.27V85.5938H1247.84V88.75ZM1274.95 88.75H1268.52V108H1264.8V88.75H1258.38V85.5938H1274.95V88.75ZM1295.87 108H1291.52L1287.95 102C1287.62 101.448 1287.3 100.979 1286.99 100.594C1286.69 100.198 1286.38 99.875 1286.05 99.625C1285.74 99.375 1285.4 99.1927 1285.02 99.0781C1284.65 98.9635 1284.23 98.9062 1283.76 98.9062H1282.26V108H1278.55V85.5938H1285.93C1286.98 85.5938 1287.95 85.7188 1288.84 85.9688C1289.72 86.2188 1290.49 86.599 1291.15 87.1094C1291.8 87.6094 1292.31 88.2396 1292.68 89C1293.05 89.75 1293.24 90.6302 1293.24 91.6406C1293.24 92.4323 1293.12 93.1615 1292.88 93.8281C1292.65 94.4844 1292.32 95.0729 1291.88 95.5938C1291.46 96.1042 1290.93 96.5417 1290.32 96.9062C1289.72 97.2708 1289.03 97.5521 1288.27 97.75V97.8125C1288.68 98.0417 1289.03 98.2969 1289.34 98.5781C1289.64 98.849 1289.92 99.1302 1290.2 99.4219C1290.47 99.7135 1290.73 100.047 1290.99 100.422C1291.26 100.786 1291.56 101.214 1291.88 101.703L1295.87 108ZM1282.26 88.6094V95.8906H1285.35C1285.92 95.8906 1286.45 95.8021 1286.93 95.625C1287.42 95.4479 1287.84 95.1927 1288.2 94.8594C1288.55 94.526 1288.83 94.1198 1289.02 93.6406C1289.22 93.1615 1289.32 92.625 1289.32 92.0312C1289.32 90.9583 1288.98 90.1198 1288.3 89.5156C1287.63 88.9115 1286.65 88.6094 1285.38 88.6094H1282.26ZM1317.22 108H1313.14L1311.12 102.297H1302.31L1300.37 108H1296.31L1304.7 85.5938H1308.89L1317.22 108ZM1310.14 99.2656L1307.03 90.3281C1306.94 90.0365 1306.84 89.5677 1306.73 88.9219H1306.67C1306.58 89.5156 1306.47 89.9844 1306.36 90.3281L1303.28 99.2656H1310.14ZM1320.63 108V85.5938H1327.1C1335.36 85.5938 1339.49 89.2344 1339.49 96.5156C1339.49 99.974 1338.35 102.755 1336.05 104.859C1333.76 106.953 1330.69 108 1326.84 108H1320.63ZM1324.34 88.75V104.859H1327.3C1329.92 104.859 1331.95 104.141 1333.4 102.703C1334.86 101.266 1335.59 99.2344 1335.59 96.6094C1335.59 91.3698 1332.87 88.75 1327.44 88.75H1324.34ZM1347.73 108H1343.9V85.5938H1347.73V108ZM1372.58 108H1368.52L1357.82 91.5312C1357.55 91.1146 1357.32 90.6823 1357.15 90.2344H1357.05C1357.14 90.7135 1357.18 91.7396 1357.18 93.3125V108H1353.58V85.5938H1357.91L1368.26 101.672C1368.69 102.339 1368.98 102.797 1369.1 103.047H1369.16C1369.06 102.453 1369.01 101.448 1369.01 100.031V85.5938H1372.58V108ZM1395.95 106.469C1393.62 107.74 1391.02 108.375 1388.15 108.375C1384.84 108.375 1382.16 107.344 1380.11 105.281C1378.06 103.219 1377.03 100.49 1377.03 97.0938C1377.03 93.625 1378.15 90.7812 1380.39 88.5625C1382.64 86.3333 1385.49 85.2188 1388.95 85.2188C1391.44 85.2188 1393.53 85.5833 1395.23 86.3125V90.1406C1393.51 88.9948 1391.47 88.4219 1389.09 88.4219C1386.71 88.4219 1384.75 89.2083 1383.22 90.7812C1381.7 92.3542 1380.94 94.3906 1380.94 96.8906C1380.94 99.4635 1381.59 101.49 1382.9 102.969C1384.22 104.438 1386 105.172 1388.25 105.172C1389.79 105.172 1391.12 104.875 1392.25 104.281V98.9531H1387.53V95.8281H1395.95V106.469Z" fill="white"/>
<rect x="160" y="1" width="56" height="56" rx="28" stroke="white" stroke-linecap="round" stroke-dasharray="12 12"/>
<rect x="168" y="9" width="40" height="40" rx="20" fill="white"/>
<path d="M703.497 29.9596C703.773 29.9596 703.997 29.7357 703.997 29.4596C703.997 29.1834 703.773 28.9596 703.497 28.9596L703.497 29.9596ZM216.5 29.9596L226.646 29.9596L226.646 28.9596L216.5 28.9596L216.5 29.9596ZM246.937 29.9596L267.229 29.9596L267.229 28.9596L246.937 28.9596L246.937 29.9596ZM287.52 29.9596L307.812 29.9596L307.812 28.9596L287.52 28.9596L287.52 29.9596ZM328.103 29.9596L348.395 29.9596L348.395 28.9596L328.103 28.9596L328.103 29.9596ZM368.687 29.9596L388.978 29.9596L388.978 28.9596L368.687 28.9596L368.687 29.9596ZM409.27 29.9596L429.561 29.9596L429.561 28.9596L409.27 28.9596L409.27 29.9596ZM449.853 29.9596L470.144 29.9596L470.144 28.9596L449.853 28.9596L449.853 29.9596ZM490.436 29.9596L510.727 29.9596L510.727 28.9596L490.436 28.9596L490.436 29.9596ZM531.019 29.9596L551.31 29.9596L551.31 28.9596L531.019 28.9596L531.019 29.9596ZM571.602 29.9596L591.893 29.9596L591.893 28.9596L571.602 28.9596L571.602 29.9596ZM612.185 29.9596L632.476 29.9596L632.476 28.9596L612.185 28.9596L612.185 29.9596ZM652.768 29.9596L673.06 29.9596L673.06 28.9596L652.768 28.9596L652.768 29.9596ZM693.351 29.9596L703.497 29.9596L703.497 28.9596L693.351 28.9596L693.351 29.9596Z" fill="white"/>
<path d="M189.848 36H188.086V22.6904C187.95 22.8265 187.749 22.984 187.484 23.1631C187.227 23.335 186.933 23.5068 186.604 23.6787C186.281 23.8506 185.938 24.0117 185.572 24.1621C185.214 24.3125 184.863 24.4307 184.52 24.5166V22.7334C184.906 22.626 185.314 22.4827 185.744 22.3037C186.181 22.1175 186.607 21.9134 187.022 21.6914C187.445 21.4622 187.842 21.2259 188.215 20.9824C188.587 20.7318 188.91 20.4883 189.182 20.252H189.848V36Z" fill="#03102F"/>
<rect x="704" y="1" width="56" height="56" rx="28" stroke="white" stroke-linecap="round" stroke-dasharray="12 12"/>
<rect x="712" y="9" width="40" height="40" rx="20" fill="white"/>
<path d="M1247.5 29.9596C1247.77 29.9596 1248 29.7357 1248 29.4596C1248 29.1834 1247.77 28.9596 1247.5 28.9596L1247.5 29.9596ZM760.5 29.9596L770.646 29.9596L770.646 28.9596L760.5 28.9596L760.5 29.9596ZM790.937 29.9596L811.229 29.9596L811.229 28.9596L790.937 28.9596L790.937 29.9596ZM831.52 29.9596L851.812 29.9596L851.812 28.9596L831.52 28.9596L831.52 29.9596ZM872.103 29.9596L892.395 29.9596L892.395 28.9596L872.103 28.9596L872.103 29.9596ZM912.687 29.9596L932.978 29.9596L932.978 28.9596L912.687 28.9596L912.687 29.9596ZM953.27 29.9596L973.561 29.9596L973.561 28.9596L953.27 28.9596L953.27 29.9596ZM993.853 29.9596L1014.14 29.9596L1014.14 28.9596L993.853 28.9596L993.853 29.9596ZM1034.44 29.9596L1054.73 29.9596L1054.73 28.9596L1034.44 28.9596L1034.44 29.9596ZM1075.02 29.9596L1095.31 29.9596L1095.31 28.9596L1075.02 28.9596L1075.02 29.9596ZM1115.6 29.9596L1135.89 29.9596L1135.89 28.9596L1115.6 28.9596L1115.6 29.9596ZM1156.18 29.9596L1176.48 29.9596L1176.48 28.9596L1156.18 28.9596L1156.18 29.9596ZM1196.77 29.9596L1217.06 29.9596L1217.06 28.9596L1196.77 28.9596L1196.77 29.9596ZM1237.35 29.9596L1247.5 29.9596L1247.5 28.9596L1237.35 28.9596L1237.35 29.9596Z" fill="white"/>
<path d="M734.363 24.6348C734.363 24.1621 734.288 23.7503 734.138 23.3994C733.994 23.0485 733.794 22.7585 733.536 22.5293C733.285 22.293 732.988 22.1175 732.645 22.0029C732.301 21.8883 731.928 21.8311 731.527 21.8311C731.184 21.8311 730.847 21.8776 730.518 21.9707C730.188 22.0638 729.866 22.1927 729.551 22.3574C729.243 22.5221 728.942 22.7191 728.648 22.9482C728.362 23.1774 728.093 23.4316 727.843 23.7109V21.8203C728.337 21.3405 728.888 20.9753 729.497 20.7246C730.113 20.4668 730.861 20.3379 731.742 20.3379C732.372 20.3379 732.956 20.431 733.493 20.6172C734.03 20.7962 734.496 21.0612 734.89 21.4121C735.284 21.763 735.591 22.1963 735.813 22.7119C736.043 23.2275 736.157 23.8184 736.157 24.4844C736.157 25.0931 736.086 25.6445 735.942 26.1387C735.806 26.6328 735.595 27.0983 735.309 27.5352C735.029 27.972 734.675 28.391 734.245 28.792C733.815 29.193 733.311 29.6012 732.73 30.0166C732.007 30.5322 731.409 30.9727 730.937 31.3379C730.471 31.7031 730.099 32.0469 729.819 32.3691C729.547 32.6842 729.354 33.0029 729.239 33.3252C729.132 33.6403 729.078 34.0055 729.078 34.4209H736.748V36H727.241V35.2373C727.241 34.5785 727.313 33.9984 727.456 33.4971C727.599 32.9958 727.836 32.5195 728.165 32.0684C728.494 31.6172 728.924 31.166 729.454 30.7148C729.991 30.2637 730.646 29.7552 731.42 29.1895C731.979 28.7884 732.444 28.4053 732.816 28.04C733.196 27.6748 733.5 27.3096 733.729 26.9443C733.959 26.5791 734.12 26.2103 734.213 25.8379C734.313 25.4583 734.363 25.0573 734.363 24.6348Z" fill="#03102F"/>
<rect x="1249" y="1" width="56" height="56" rx="28" stroke="white" stroke-linecap="round" stroke-dasharray="12 12"/>
<rect x="1257" y="9" width="40" height="40" rx="20" fill="white"/>
<path d="M1281.31 31.6387C1281.31 32.3333 1281.18 32.9671 1280.91 33.54C1280.65 34.1058 1280.28 34.5928 1279.8 35.001C1279.33 35.402 1278.76 35.7135 1278.1 35.9355C1277.43 36.1576 1276.7 36.2686 1275.89 36.2686C1274.43 36.2686 1273.26 35.9893 1272.39 35.4307V33.54C1273.43 34.3564 1274.62 34.7646 1275.96 34.7646C1276.5 34.7646 1276.98 34.6966 1277.41 34.5605C1277.85 34.4245 1278.22 34.2275 1278.53 33.9697C1278.84 33.7119 1279.08 33.4004 1279.25 33.0352C1279.42 32.6699 1279.5 32.2581 1279.5 31.7998C1279.5 29.7874 1278.07 28.7812 1275.21 28.7812H1273.93V27.2881H1275.14C1277.68 27.2881 1278.94 26.3428 1278.94 24.4521C1278.94 22.7048 1277.98 21.8311 1276.04 21.8311C1274.96 21.8311 1273.93 22.1963 1272.98 22.9268V21.2188C1273.96 20.6315 1275.13 20.3379 1276.48 20.3379C1277.13 20.3379 1277.71 20.4274 1278.24 20.6064C1278.76 20.7855 1279.21 21.0361 1279.58 21.3584C1279.95 21.6807 1280.24 22.0674 1280.44 22.5186C1280.65 22.9697 1280.75 23.4674 1280.75 24.0117C1280.75 26.0384 1279.72 27.3418 1277.68 27.9219V27.9648C1278.2 28.0221 1278.68 28.151 1279.13 28.3516C1279.57 28.5449 1279.95 28.7992 1280.28 29.1143C1280.6 29.4294 1280.85 29.8018 1281.03 30.2314C1281.21 30.654 1281.31 31.123 1281.31 31.6387Z" fill="#03102F"/>
</svg>
