<svg width="1465" height="116" viewBox="0 0 1465 116" fill="none" xmlns="http://www.w3.org/2000/svg">
<path d="M47.3344 108H43.5063V85.5938H47.3344V108ZM72.1856 108H68.1231L57.42 91.5312C57.1492 91.1146 56.9252 90.6823 56.7481 90.2344H56.6544C56.7377 90.7135 56.7794 91.7396 56.7794 93.3125V108H53.1856V85.5938H57.5138L67.8575 101.672C68.295 102.339 68.5763 102.797 68.7013 103.047H68.7638C68.6596 102.453 68.6075 101.448 68.6075 100.031V85.5938H72.1856V108ZM77.0369 107.109V103.281C77.3806 103.594 77.7869 103.875 78.2556 104.125C78.7348 104.375 79.24 104.589 79.7713 104.766C80.3025 104.932 80.8338 105.062 81.365 105.156C81.8963 105.25 82.3858 105.297 82.8338 105.297C84.3963 105.297 85.5577 105.036 86.3181 104.516C87.089 103.995 87.4744 103.24 87.4744 102.25C87.4744 101.719 87.3442 101.26 87.0838 100.875C86.8338 100.479 86.4796 100.12 86.0213 99.7969C85.5629 99.474 85.0213 99.1667 84.3963 98.875C83.7817 98.5729 83.1202 98.2604 82.4119 97.9375C81.6515 97.5312 80.9431 97.1198 80.2869 96.7031C79.6306 96.2865 79.0577 95.8281 78.5681 95.3281C78.089 94.8177 77.7088 94.2448 77.4275 93.6094C77.1567 92.974 77.0213 92.2292 77.0213 91.375C77.0213 90.3229 77.2556 89.4115 77.7244 88.6406C78.2035 87.8594 78.8285 87.2188 79.5994 86.7188C80.3806 86.2083 81.266 85.8333 82.2556 85.5938C83.2452 85.3438 84.2556 85.2188 85.2869 85.2188C87.6306 85.2188 89.339 85.4844 90.4119 86.0156V89.6875C89.141 88.7708 87.5056 88.3125 85.5056 88.3125C84.9535 88.3125 84.4015 88.3646 83.8494 88.4688C83.3077 88.5729 82.8181 88.7448 82.3806 88.9844C81.9535 89.224 81.6046 89.5312 81.3338 89.9062C81.0629 90.2812 80.9275 90.7344 80.9275 91.2656C80.9275 91.7656 81.0317 92.1979 81.24 92.5625C81.4483 92.9271 81.7504 93.2604 82.1463 93.5625C82.5525 93.8646 83.0421 94.1615 83.615 94.4531C84.1983 94.7344 84.8702 95.0417 85.6306 95.375C86.4119 95.7812 87.1463 96.2083 87.8338 96.6562C88.5317 97.1042 89.141 97.599 89.6619 98.1406C90.1931 98.6823 90.6098 99.2865 90.9119 99.9531C91.2244 100.609 91.3806 101.359 91.3806 102.203C91.3806 103.339 91.1515 104.297 90.6931 105.078C90.2348 105.859 89.615 106.495 88.8338 106.984C88.0629 107.474 87.1723 107.828 86.1619 108.047C85.1515 108.266 84.0838 108.375 82.9588 108.375C82.5838 108.375 82.1202 108.344 81.5681 108.281C81.0265 108.229 80.4692 108.146 79.8963 108.031C79.3233 107.927 78.7817 107.797 78.2713 107.641C77.7608 107.484 77.3494 107.307 77.0369 107.109ZM110.201 88.75H103.763V108H100.044V88.75H93.6225V85.5938H110.201V88.75ZM129.864 108H125.786L123.771 102.297H114.958L113.021 108H108.958L117.349 85.5938H121.536L129.864 108ZM122.786 99.2656L119.677 90.3281C119.583 90.0365 119.484 89.5677 119.38 88.9219H119.318C119.224 89.5156 119.12 89.9844 119.005 90.3281L115.927 99.2656H122.786ZM145.684 108H133.278V85.5938H136.997V104.859H145.684V108ZM161.661 108H149.254V85.5938H152.973V104.859H161.661V108ZM188.738 88.75H182.301V108H178.582V88.75H172.16V85.5938H188.738V88.75ZM209.652 108H205.308L201.73 102C201.407 101.448 201.089 100.979 200.777 100.594C200.475 100.198 200.162 99.875 199.839 99.625C199.527 99.375 199.183 99.1927 198.808 99.0781C198.433 98.9635 198.011 98.9062 197.543 98.9062H196.043V108H192.339V85.5938H199.714C200.766 85.5938 201.735 85.7188 202.621 85.9688C203.506 86.2188 204.277 86.599 204.933 87.1094C205.589 87.6094 206.1 88.2396 206.464 89C206.839 89.75 207.027 90.6302 207.027 91.6406C207.027 92.4323 206.907 93.1615 206.668 93.8281C206.438 94.4844 206.105 95.0729 205.668 95.5938C205.24 96.1042 204.72 96.5417 204.105 96.9062C203.501 97.2708 202.819 97.5521 202.058 97.75V97.8125C202.464 98.0417 202.819 98.2969 203.121 98.5781C203.423 98.849 203.709 99.1302 203.98 99.4219C204.251 99.7135 204.516 100.047 204.777 100.422C205.048 100.786 205.345 101.214 205.668 101.703L209.652 108ZM196.043 88.6094V95.8906H199.136C199.709 95.8906 200.235 95.8021 200.714 95.625C201.204 95.4479 201.626 95.1927 201.98 94.8594C202.334 94.526 202.61 94.1198 202.808 93.6406C203.006 93.1615 203.105 92.625 203.105 92.0312C203.105 90.9583 202.766 90.1198 202.089 89.5156C201.412 88.9115 200.438 88.6094 199.168 88.6094H196.043ZM231.003 108H226.925L224.909 102.297H216.097L214.159 108H210.097L218.488 85.5938H222.675L231.003 108ZM223.925 99.2656L220.816 90.3281C220.722 90.0365 220.623 89.5677 220.519 88.9219H220.456C220.363 89.5156 220.258 89.9844 220.144 90.3281L217.066 99.2656H223.925ZM234.417 108V85.5938H240.886C249.146 85.5938 253.276 89.2344 253.276 96.5156C253.276 99.974 252.13 102.755 249.839 104.859C247.547 106.953 244.474 108 240.62 108H234.417ZM238.12 88.75V104.859H241.089C243.703 104.859 245.735 104.141 247.183 102.703C248.641 101.266 249.37 99.2344 249.37 96.6094C249.37 91.3698 246.656 88.75 241.229 88.75H238.12ZM270.284 108H257.706V85.5938H269.784V88.75H261.424V95.0938H269.128V98.2344H261.424V104.859H270.284V108ZM274.588 108V85.5938H281.698C283.864 85.5938 285.578 86.0677 286.838 87.0156C288.109 87.9635 288.744 89.1979 288.744 90.7188C288.744 91.9896 288.385 93.0938 287.666 94.0312C286.948 94.9688 285.953 95.6354 284.682 96.0312V96.0938C286.224 96.2708 287.453 96.8438 288.369 97.8125C289.296 98.7708 289.76 100.021 289.76 101.562C289.76 103.479 289.005 105.031 287.494 106.219C285.984 107.406 284.078 108 281.776 108H274.588ZM278.291 88.5781V94.9531H280.698C281.989 94.9531 283 94.651 283.729 94.0469C284.468 93.4323 284.838 92.5677 284.838 91.4531C284.838 89.5365 283.557 88.5781 280.994 88.5781H278.291ZM278.291 97.9375V105.031H281.463C282.849 105.031 283.916 104.714 284.666 104.078C285.427 103.432 285.807 102.547 285.807 101.422C285.807 99.099 284.198 97.9375 280.979 97.9375H278.291ZM312.658 108H308.58L306.564 102.297H297.752L295.814 108H291.752L300.143 85.5938H304.33L312.658 108ZM305.58 99.2656L302.471 90.3281C302.377 90.0365 302.278 89.5677 302.174 88.9219H302.111C302.018 89.5156 301.913 89.9844 301.799 90.3281L298.721 99.2656H305.58ZM333.181 106.469C330.848 107.74 328.249 108.375 325.384 108.375C322.072 108.375 319.39 107.344 317.337 105.281C315.285 103.219 314.259 100.49 314.259 97.0938C314.259 93.625 315.379 90.7812 317.619 88.5625C319.869 86.3333 322.723 85.2188 326.181 85.2188C328.671 85.2188 330.765 85.5833 332.462 86.3125V90.1406C330.744 88.9948 328.697 88.4219 326.322 88.4219C323.936 88.4219 321.978 89.2083 320.447 90.7812C318.926 92.3542 318.166 94.3906 318.166 96.8906C318.166 99.4635 318.822 101.49 320.134 102.969C321.447 104.438 323.228 105.172 325.478 105.172C327.02 105.172 328.353 104.875 329.478 104.281V98.9531H324.759V95.8281H333.181V106.469Z" fill="white"/>
<path d="M624.67 108H612.264V85.5938H615.982V104.859H624.67V108ZM636.506 108.375C633.276 108.375 630.688 107.328 628.74 105.234C626.802 103.141 625.834 100.417 625.834 97.0625C625.834 93.4583 626.823 90.5833 628.802 88.4375C630.782 86.2917 633.469 85.2188 636.865 85.2188C640.011 85.2188 642.542 86.2604 644.459 88.3438C646.386 90.4271 647.349 93.151 647.349 96.5156C647.349 100.172 646.365 103.062 644.396 105.188C642.427 107.312 639.797 108.375 636.506 108.375ZM636.677 88.4844C634.625 88.4844 632.954 89.25 631.662 90.7812C630.381 92.3125 629.74 94.3281 629.74 96.8281C629.74 99.3177 630.365 101.323 631.615 102.844C632.865 104.365 634.5 105.125 636.521 105.125C638.667 105.125 640.36 104.401 641.599 102.953C642.839 101.505 643.459 99.4792 643.459 96.875C643.459 94.1979 642.855 92.1302 641.646 90.6719C640.448 89.2135 638.792 88.4844 636.677 88.4844ZM669.263 106.469C666.93 107.74 664.331 108.375 661.466 108.375C658.154 108.375 655.471 107.344 653.419 105.281C651.367 103.219 650.341 100.49 650.341 97.0938C650.341 93.625 651.461 90.7812 653.701 88.5625C655.951 86.3333 658.805 85.2188 662.263 85.2188C664.753 85.2188 666.846 85.5833 668.544 86.3125V90.1406C666.826 88.9948 664.779 88.4219 662.404 88.4219C660.018 88.4219 658.06 89.2083 656.529 90.7812C655.008 92.3542 654.247 94.3906 654.247 96.8906C654.247 99.4635 654.904 101.49 656.216 102.969C657.529 104.438 659.31 105.172 661.56 105.172C663.102 105.172 664.435 104.875 665.56 104.281V98.9531H660.841V95.8281H669.263V106.469ZM678.224 108H674.396V85.5938H678.224V108ZM703.075 108H699.012L688.309 91.5312C688.039 91.1146 687.815 90.6823 687.637 90.2344H687.544C687.627 90.7135 687.669 91.7396 687.669 93.3125V108H684.075V85.5938H688.403L698.747 101.672C699.184 102.339 699.466 102.797 699.591 103.047H699.653C699.549 102.453 699.497 101.448 699.497 100.031V85.5938H703.075V108ZM728.871 85.5938L718.043 111.719H714.746L725.527 85.5938H728.871ZM739.761 107.109V103.281C740.105 103.594 740.511 103.875 740.98 104.125C741.459 104.375 741.964 104.589 742.496 104.766C743.027 104.932 743.558 105.062 744.089 105.156C744.621 105.25 745.11 105.297 745.558 105.297C747.121 105.297 748.282 105.036 749.042 104.516C749.813 103.995 750.199 103.24 750.199 102.25C750.199 101.719 750.069 101.26 749.808 100.875C749.558 100.479 749.204 100.12 748.746 99.7969C748.287 99.474 747.746 99.1667 747.121 98.875C746.506 98.5729 745.845 98.2604 745.136 97.9375C744.376 97.5312 743.667 97.1198 743.011 96.7031C742.355 96.2865 741.782 95.8281 741.292 95.3281C740.813 94.8177 740.433 94.2448 740.152 93.6094C739.881 92.974 739.746 92.2292 739.746 91.375C739.746 90.3229 739.98 89.4115 740.449 88.6406C740.928 87.8594 741.553 87.2188 742.324 86.7188C743.105 86.2083 743.99 85.8333 744.98 85.5938C745.97 85.3438 746.98 85.2188 748.011 85.2188C750.355 85.2188 752.063 85.4844 753.136 86.0156V89.6875C751.865 88.7708 750.23 88.3125 748.23 88.3125C747.678 88.3125 747.126 88.3646 746.574 88.4688C746.032 88.5729 745.542 88.7448 745.105 88.9844C744.678 89.224 744.329 89.5312 744.058 89.9062C743.787 90.2812 743.652 90.7344 743.652 91.2656C743.652 91.7656 743.756 92.1979 743.964 92.5625C744.173 92.9271 744.475 93.2604 744.871 93.5625C745.277 93.8646 745.766 94.1615 746.339 94.4531C746.923 94.7344 747.595 95.0417 748.355 95.375C749.136 95.7812 749.871 96.2083 750.558 96.6562C751.256 97.1042 751.865 97.599 752.386 98.1406C752.917 98.6823 753.334 99.2865 753.636 99.9531C753.949 100.609 754.105 101.359 754.105 102.203C754.105 103.339 753.876 104.297 753.417 105.078C752.959 105.859 752.339 106.495 751.558 106.984C750.787 107.474 749.897 107.828 748.886 108.047C747.876 108.266 746.808 108.375 745.683 108.375C745.308 108.375 744.845 108.344 744.292 108.281C743.751 108.229 743.194 108.146 742.621 108.031C742.048 107.927 741.506 107.797 740.996 107.641C740.485 107.484 740.074 107.307 739.761 107.109ZM762.363 108H758.534V85.5938H762.363V108ZM785.698 106.469C783.365 107.74 780.766 108.375 777.901 108.375C774.589 108.375 771.906 107.344 769.854 105.281C767.802 103.219 766.776 100.49 766.776 97.0938C766.776 93.625 767.896 90.7812 770.136 88.5625C772.386 86.3333 775.24 85.2188 778.698 85.2188C781.188 85.2188 783.281 85.5833 784.979 86.3125V90.1406C783.261 88.9948 781.214 88.4219 778.839 88.4219C776.453 88.4219 774.495 89.2083 772.964 90.7812C771.443 92.3542 770.682 94.3906 770.682 96.8906C770.682 99.4635 771.339 101.49 772.651 102.969C773.964 104.438 775.745 105.172 777.995 105.172C779.537 105.172 780.87 104.875 781.995 104.281V98.9531H777.276V95.8281H785.698V106.469ZM809.846 108H805.784L795.081 91.5312C794.81 91.1146 794.586 90.6823 794.409 90.2344H794.315C794.398 90.7135 794.44 91.7396 794.44 93.3125V108H790.846V85.5938H795.174L805.518 101.672C805.956 102.339 806.237 102.797 806.362 103.047H806.424C806.32 102.453 806.268 101.448 806.268 100.031V85.5938H809.846V108ZM832.963 98.9375C832.963 105.229 829.984 108.375 824.026 108.375C818.317 108.375 815.463 105.349 815.463 99.2969V85.5938H819.182V98.5312C819.182 102.927 820.89 105.125 824.307 105.125C827.599 105.125 829.244 103.005 829.244 98.7656V85.5938H832.963V98.9375ZM842.252 99.875V108H838.549V85.5938H845.346C847.919 85.5938 849.913 86.1927 851.33 87.3906C852.747 88.5885 853.455 90.276 853.455 92.4531C853.455 94.6302 852.715 96.4115 851.236 97.7969C849.757 99.1823 847.757 99.875 845.236 99.875H842.252ZM842.252 88.6562V96.8438H844.658C846.252 96.8438 847.465 96.474 848.299 95.7344C849.132 94.9948 849.549 93.9531 849.549 92.6094C849.549 89.974 848.018 88.6562 844.955 88.6562H842.252Z" fill="white"/>
<path d="M1157.72 107.109V103.281C1158.06 103.594 1158.47 103.875 1158.94 104.125C1159.42 104.375 1159.92 104.589 1160.46 104.766C1160.99 104.932 1161.52 105.062 1162.05 105.156C1162.58 105.25 1163.07 105.297 1163.52 105.297C1165.08 105.297 1166.24 105.036 1167 104.516C1167.77 103.995 1168.16 103.24 1168.16 102.25C1168.16 101.719 1168.03 101.26 1167.77 100.875C1167.52 100.479 1167.16 100.12 1166.71 99.7969C1166.25 99.474 1165.71 99.1667 1165.08 98.875C1164.47 98.5729 1163.8 98.2604 1163.1 97.9375C1162.34 97.5312 1161.63 97.1198 1160.97 96.7031C1160.31 96.2865 1159.74 95.8281 1159.25 95.3281C1158.77 94.8177 1158.39 94.2448 1158.11 93.6094C1157.84 92.974 1157.71 92.2292 1157.71 91.375C1157.71 90.3229 1157.94 89.4115 1158.41 88.6406C1158.89 87.8594 1159.51 87.2188 1160.28 86.7188C1161.06 86.2083 1161.95 85.8333 1162.94 85.5938C1163.93 85.3438 1164.94 85.2188 1165.97 85.2188C1168.31 85.2188 1170.02 85.4844 1171.1 86.0156V89.6875C1169.82 88.7708 1168.19 88.3125 1166.19 88.3125C1165.64 88.3125 1165.09 88.3646 1164.53 88.4688C1163.99 88.5729 1163.5 88.7448 1163.06 88.9844C1162.64 89.224 1162.29 89.5312 1162.02 89.9062C1161.75 90.2812 1161.61 90.7344 1161.61 91.2656C1161.61 91.7656 1161.72 92.1979 1161.92 92.5625C1162.13 92.9271 1162.43 93.2604 1162.83 93.5625C1163.24 93.8646 1163.73 94.1615 1164.3 94.4531C1164.88 94.7344 1165.55 95.0417 1166.31 95.375C1167.1 95.7812 1167.83 96.2083 1168.52 96.6562C1169.22 97.1042 1169.82 97.599 1170.35 98.1406C1170.88 98.6823 1171.29 99.2865 1171.6 99.9531C1171.91 100.609 1172.06 101.359 1172.06 102.203C1172.06 103.339 1171.84 104.297 1171.38 105.078C1170.92 105.859 1170.3 106.495 1169.52 106.984C1168.75 107.474 1167.86 107.828 1166.85 108.047C1165.84 108.266 1164.77 108.375 1163.64 108.375C1163.27 108.375 1162.8 108.344 1162.25 108.281C1161.71 108.229 1161.15 108.146 1160.58 108.031C1160.01 107.927 1159.47 107.797 1158.96 107.641C1158.44 107.484 1158.03 107.307 1157.72 107.109ZM1190.88 88.75H1184.45V108H1180.73V88.75H1174.31V85.5938H1190.88V88.75ZM1210.55 108H1206.47L1204.45 102.297H1195.64L1193.7 108H1189.64L1198.03 85.5938H1202.22L1210.55 108ZM1203.47 99.2656L1200.36 90.3281C1200.27 90.0365 1200.17 89.5677 1200.06 88.9219H1200C1199.91 89.5156 1199.8 89.9844 1199.69 90.3281L1196.61 99.2656H1203.47ZM1231.27 108H1226.93L1223.35 102C1223.03 101.448 1222.71 100.979 1222.4 100.594C1222.1 100.198 1221.78 99.875 1221.46 99.625C1221.15 99.375 1220.81 99.1927 1220.43 99.0781C1220.06 98.9635 1219.63 98.9062 1219.17 98.9062H1217.67V108H1213.96V85.5938H1221.34C1222.39 85.5938 1223.36 85.7188 1224.24 85.9688C1225.13 86.2188 1225.9 86.599 1226.56 87.1094C1227.21 87.6094 1227.72 88.2396 1228.09 89C1228.46 89.75 1228.65 90.6302 1228.65 91.6406C1228.65 92.4323 1228.53 93.1615 1228.29 93.8281C1228.06 94.4844 1227.73 95.0729 1227.29 95.5938C1226.86 96.1042 1226.34 96.5417 1225.73 96.9062C1225.12 97.2708 1224.44 97.5521 1223.68 97.75V97.8125C1224.09 98.0417 1224.44 98.2969 1224.74 98.5781C1225.05 98.849 1225.33 99.1302 1225.6 99.4219C1225.87 99.7135 1226.14 100.047 1226.4 100.422C1226.67 100.786 1226.97 101.214 1227.29 101.703L1231.27 108ZM1217.67 88.6094V95.8906H1220.76C1221.33 95.8906 1221.86 95.8021 1222.34 95.625C1222.83 95.4479 1223.25 95.1927 1223.6 94.8594C1223.96 94.526 1224.23 94.1198 1224.43 93.6406C1224.63 93.1615 1224.73 92.625 1224.73 92.0312C1224.73 90.9583 1224.39 90.1198 1223.71 89.5156C1223.03 88.9115 1222.06 88.6094 1220.79 88.6094H1217.67ZM1247.84 88.75H1241.41V108H1237.69V88.75H1231.27V85.5938H1247.84V88.75ZM1274.95 88.75H1268.52V108H1264.8V88.75H1258.38V85.5938H1274.95V88.75ZM1295.87 108H1291.52L1287.95 102C1287.62 101.448 1287.3 100.979 1286.99 100.594C1286.69 100.198 1286.38 99.875 1286.05 99.625C1285.74 99.375 1285.4 99.1927 1285.02 99.0781C1284.65 98.9635 1284.23 98.9062 1283.76 98.9062H1282.26V108H1278.55V85.5938H1285.93C1286.98 85.5938 1287.95 85.7188 1288.84 85.9688C1289.72 86.2188 1290.49 86.599 1291.15 87.1094C1291.8 87.6094 1292.31 88.2396 1292.68 89C1293.05 89.75 1293.24 90.6302 1293.24 91.6406C1293.24 92.4323 1293.12 93.1615 1292.88 93.8281C1292.65 94.4844 1292.32 95.0729 1291.88 95.5938C1291.46 96.1042 1290.93 96.5417 1290.32 96.9062C1289.72 97.2708 1289.03 97.5521 1288.27 97.75V97.8125C1288.68 98.0417 1289.03 98.2969 1289.34 98.5781C1289.64 98.849 1289.92 99.1302 1290.2 99.4219C1290.47 99.7135 1290.73 100.047 1290.99 100.422C1291.26 100.786 1291.56 101.214 1291.88 101.703L1295.87 108ZM1282.26 88.6094V95.8906H1285.35C1285.92 95.8906 1286.45 95.8021 1286.93 95.625C1287.42 95.4479 1287.84 95.1927 1288.2 94.8594C1288.55 94.526 1288.83 94.1198 1289.02 93.6406C1289.22 93.1615 1289.32 92.625 1289.32 92.0312C1289.32 90.9583 1288.98 90.1198 1288.3 89.5156C1287.63 88.9115 1286.65 88.6094 1285.38 88.6094H1282.26ZM1317.22 108H1313.14L1311.12 102.297H1302.31L1300.37 108H1296.31L1304.7 85.5938H1308.89L1317.22 108ZM1310.14 99.2656L1307.03 90.3281C1306.94 90.0365 1306.84 89.5677 1306.73 88.9219H1306.67C1306.58 89.5156 1306.47 89.9844 1306.36 90.3281L1303.28 99.2656H1310.14ZM1320.63 108V85.5938H1327.1C1335.36 85.5938 1339.49 89.2344 1339.49 96.5156C1339.49 99.974 1338.35 102.755 1336.05 104.859C1333.76 106.953 1330.69 108 1326.84 108H1320.63ZM1324.34 88.75V104.859H1327.3C1329.92 104.859 1331.95 104.141 1333.4 102.703C1334.86 101.266 1335.59 99.2344 1335.59 96.6094C1335.59 91.3698 1332.87 88.75 1327.44 88.75H1324.34ZM1347.73 108H1343.9V85.5938H1347.73V108ZM1372.58 108H1368.52L1357.82 91.5312C1357.55 91.1146 1357.32 90.6823 1357.15 90.2344H1357.05C1357.14 90.7135 1357.18 91.7396 1357.18 93.3125V108H1353.58V85.5938H1357.91L1368.26 101.672C1368.69 102.339 1368.98 102.797 1369.1 103.047H1369.16C1369.06 102.453 1369.01 101.448 1369.01 100.031V85.5938H1372.58V108ZM1395.95 106.469C1393.62 107.74 1391.02 108.375 1388.15 108.375C1384.84 108.375 1382.16 107.344 1380.11 105.281C1378.06 103.219 1377.03 100.49 1377.03 97.0938C1377.03 93.625 1378.15 90.7812 1380.39 88.5625C1382.64 86.3333 1385.49 85.2188 1388.95 85.2188C1391.44 85.2188 1393.53 85.5833 1395.23 86.3125V90.1406C1393.51 88.9948 1391.47 88.4219 1389.09 88.4219C1386.71 88.4219 1384.75 89.2083 1383.22 90.7812C1381.7 92.3542 1380.94 94.3906 1380.94 96.8906C1380.94 99.4635 1381.59 101.49 1382.9 102.969C1384.22 104.438 1386 105.172 1388.25 105.172C1389.79 105.172 1391.12 104.875 1392.25 104.281V98.9531H1387.53V95.8281H1395.95V106.469Z" fill="white"/>
<rect x="160" y="1" width="56" height="56" rx="28" stroke="white" stroke-linecap="round" stroke-dasharray="12 12"/>
<rect x="168" y="9" width="40" height="40" rx="20" fill="white"/>
<path d="M703.497 29.9596C703.773 29.9596 703.997 29.7357 703.997 29.4596C703.997 29.1834 703.773 28.9596 703.497 28.9596L703.497 29.9596ZM216.5 29.9596L226.646 29.9596L226.646 28.9596L216.5 28.9596L216.5 29.9596ZM246.937 29.9596L267.229 29.9596L267.229 28.9596L246.937 28.9596L246.937 29.9596ZM287.52 29.9596L307.812 29.9596L307.812 28.9596L287.52 28.9596L287.52 29.9596ZM328.103 29.9596L348.395 29.9596L348.395 28.9596L328.103 28.9596L328.103 29.9596ZM368.687 29.9596L388.978 29.9596L388.978 28.9596L368.687 28.9596L368.687 29.9596ZM409.27 29.9596L429.561 29.9596L429.561 28.9596L409.27 28.9596L409.27 29.9596ZM449.853 29.9596L470.144 29.9596L470.144 28.9596L449.853 28.9596L449.853 29.9596ZM490.436 29.9596L510.727 29.9596L510.727 28.9596L490.436 28.9596L490.436 29.9596ZM531.019 29.9596L551.31 29.9596L551.31 28.9596L531.019 28.9596L531.019 29.9596ZM571.602 29.9596L591.893 29.9596L591.893 28.9596L571.602 28.9596L571.602 29.9596ZM612.185 29.9596L632.477 29.9596L632.476 28.9596L612.185 28.9596L612.185 29.9596ZM652.768 29.9596L673.06 29.9596L673.06 28.9596L652.768 28.9596L652.768 29.9596ZM693.351 29.9596L703.497 29.9596L703.497 28.9596L693.351 28.9596L693.351 29.9596Z" fill="white"/>
<path d="M189.848 36H188.086V22.6904C187.95 22.8265 187.749 22.984 187.484 23.1631C187.227 23.335 186.933 23.5068 186.604 23.6787C186.281 23.8506 185.938 24.0117 185.572 24.1621C185.214 24.3125 184.863 24.4307 184.52 24.5166V22.7334C184.906 22.626 185.314 22.4827 185.744 22.3037C186.181 22.1175 186.607 21.9134 187.022 21.6914C187.445 21.4622 187.842 21.2259 188.215 20.9824C188.587 20.7318 188.91 20.4883 189.182 20.252H189.848V36Z" fill="#03102F"/>
<rect x="704" y="1" width="56" height="56" rx="28" stroke="white" stroke-linecap="round" stroke-dasharray="12 12"/>
<rect x="712" y="9" width="40" height="40" rx="20" fill="white"/>
<path d="M1247.5 29.9596C1247.77 29.9596 1248 29.7357 1248 29.4596C1248 29.1834 1247.77 28.9596 1247.5 28.9596L1247.5 29.9596ZM760.5 29.9596L770.646 29.9596L770.646 28.9596L760.5 28.9596L760.5 29.9596ZM790.937 29.9596L811.229 29.9596L811.229 28.9596L790.937 28.9596L790.937 29.9596ZM831.52 29.9596L851.812 29.9596L851.812 28.9596L831.52 28.9596L831.52 29.9596ZM872.103 29.9596L892.395 29.9596L892.395 28.9596L872.103 28.9596L872.103 29.9596ZM912.687 29.9596L932.978 29.9596L932.978 28.9596L912.687 28.9596L912.687 29.9596ZM953.27 29.9596L973.561 29.9596L973.561 28.9596L953.27 28.9596L953.27 29.9596ZM993.853 29.9596L1014.14 29.9596L1014.14 28.9596L993.853 28.9596L993.853 29.9596ZM1034.44 29.9596L1054.73 29.9596L1054.73 28.9596L1034.44 28.9596L1034.44 29.9596ZM1075.02 29.9596L1095.31 29.9596L1095.31 28.9596L1075.02 28.9596L1075.02 29.9596ZM1115.6 29.9596L1135.89 29.9596L1135.89 28.9596L1115.6 28.9596L1115.6 29.9596ZM1156.18 29.9596L1176.48 29.9596L1176.48 28.9596L1156.18 28.9596L1156.18 29.9596ZM1196.77 29.9596L1217.06 29.9596L1217.06 28.9596L1196.77 28.9596L1196.77 29.9596ZM1237.35 29.9596L1247.5 29.9596L1247.5 28.9596L1237.35 28.9596L1237.35 29.9596Z" fill="white"/>
<path d="M734.363 24.6348C734.363 24.1621 734.288 23.7503 734.138 23.3994C733.994 23.0485 733.794 22.7585 733.536 22.5293C733.285 22.293 732.988 22.1175 732.645 22.0029C732.301 21.8883 731.928 21.8311 731.527 21.8311C731.184 21.8311 730.847 21.8776 730.518 21.9707C730.188 22.0638 729.866 22.1927 729.551 22.3574C729.243 22.5221 728.942 22.7191 728.648 22.9482C728.362 23.1774 728.093 23.4316 727.843 23.7109V21.8203C728.337 21.3405 728.888 20.9753 729.497 20.7246C730.113 20.4668 730.861 20.3379 731.742 20.3379C732.372 20.3379 732.956 20.431 733.493 20.6172C734.03 20.7962 734.496 21.0612 734.89 21.4121C735.284 21.763 735.591 22.1963 735.813 22.7119C736.043 23.2275 736.157 23.8184 736.157 24.4844C736.157 25.0931 736.086 25.6445 735.942 26.1387C735.806 26.6328 735.595 27.0983 735.309 27.5352C735.029 27.972 734.675 28.391 734.245 28.792C733.815 29.193 733.311 29.6012 732.73 30.0166C732.007 30.5322 731.409 30.9727 730.937 31.3379C730.471 31.7031 730.099 32.0469 729.819 32.3691C729.547 32.6842 729.354 33.0029 729.239 33.3252C729.132 33.6403 729.078 34.0055 729.078 34.4209H736.748V36H727.241V35.2373C727.241 34.5785 727.313 33.9984 727.456 33.4971C727.599 32.9958 727.836 32.5195 728.165 32.0684C728.494 31.6172 728.924 31.166 729.454 30.7148C729.991 30.2637 730.646 29.7552 731.42 29.1895C731.979 28.7884 732.444 28.4053 732.816 28.04C733.196 27.6748 733.5 27.3096 733.729 26.9443C733.959 26.5791 734.12 26.2103 734.213 25.8379C734.313 25.4583 734.363 25.0573 734.363 24.6348Z" fill="#03102F"/>
<rect x="1249" y="1" width="56" height="56" rx="28" stroke="white" stroke-linecap="round" stroke-dasharray="12 12"/>
<rect x="1257" y="9" width="40" height="40" rx="20" fill="white"/>
<path d="M1281.31 31.6387C1281.31 32.3333 1281.18 32.9671 1280.91 33.54C1280.65 34.1058 1280.28 34.5928 1279.8 35.001C1279.33 35.402 1278.76 35.7135 1278.1 35.9355C1277.43 36.1576 1276.7 36.2686 1275.89 36.2686C1274.43 36.2686 1273.26 35.9893 1272.39 35.4307V33.54C1273.43 34.3564 1274.62 34.7646 1275.96 34.7646C1276.5 34.7646 1276.98 34.6966 1277.41 34.5605C1277.85 34.4245 1278.22 34.2275 1278.53 33.9697C1278.84 33.7119 1279.08 33.4004 1279.25 33.0352C1279.42 32.6699 1279.5 32.2581 1279.5 31.7998C1279.5 29.7874 1278.07 28.7812 1275.21 28.7812H1273.93V27.2881H1275.14C1277.68 27.2881 1278.94 26.3428 1278.94 24.4521C1278.94 22.7048 1277.98 21.8311 1276.04 21.8311C1274.96 21.8311 1273.93 22.1963 1272.98 22.9268V21.2188C1273.96 20.6315 1275.13 20.3379 1276.48 20.3379C1277.13 20.3379 1277.71 20.4274 1278.24 20.6064C1278.76 20.7855 1279.21 21.0361 1279.58 21.3584C1279.95 21.6807 1280.24 22.0674 1280.44 22.5186C1280.65 22.9697 1280.75 23.4674 1280.75 24.0117C1280.75 26.0384 1279.72 27.3418 1277.68 27.9219V27.9648C1278.2 28.0221 1278.68 28.151 1279.13 28.3516C1279.57 28.5449 1279.95 28.7992 1280.28 29.1143C1280.6 29.4294 1280.85 29.8018 1281.03 30.2314C1281.21 30.654 1281.31 31.123 1281.31 31.6387Z" fill="#03102F"/>
</svg>
