<svg width="1465" height="112" viewBox="0 0 1465 112" fill="none" xmlns="http://www.w3.org/2000/svg">
<path d="M26.7011 81.6H29.0691V104H26.7011V81.6ZM55.3974 81.6V104H53.4454L39.0454 85.824V104H36.6774V81.6H38.6294L53.0614 99.776V81.6H55.3974ZM69.2046 104.192C67.5406 104.192 65.9406 103.925 64.4046 103.392C62.89 102.859 61.7166 102.155 60.8846 101.28L61.8126 99.456C62.6233 100.267 63.7006 100.928 65.0446 101.44C66.3886 101.931 67.7753 102.176 69.2046 102.176C71.21 102.176 72.714 101.813 73.7166 101.088C74.7193 100.341 75.2206 99.3813 75.2206 98.208C75.2206 97.312 74.9433 96.5973 74.3886 96.064C73.8553 95.5307 73.194 95.1253 72.4046 94.848C71.6153 94.5493 70.5166 94.2293 69.1086 93.888C67.4233 93.4613 66.0793 93.056 65.0766 92.672C64.074 92.2667 63.21 91.6587 62.4846 90.848C61.7806 90.0373 61.4286 88.9387 61.4286 87.552C61.4286 86.4213 61.7273 85.3973 62.3246 84.48C62.922 83.5413 63.8393 82.7947 65.0766 82.24C66.314 81.6853 67.85 81.408 69.6846 81.408C70.9646 81.408 72.2126 81.5893 73.4286 81.952C74.666 82.2933 75.7326 82.7733 76.6286 83.392L75.8286 85.28C74.89 84.6613 73.8873 84.2027 72.8206 83.904C71.754 83.584 70.7086 83.424 69.6846 83.424C67.722 83.424 66.2393 83.808 65.2366 84.576C64.2553 85.3227 63.7646 86.2933 63.7646 87.488C63.7646 88.384 64.0313 89.1093 64.5646 89.664C65.1193 90.1973 65.802 90.6133 66.6126 90.912C67.4446 91.1893 68.554 91.4987 69.9406 91.84C71.5833 92.2453 72.906 92.6507 73.9086 93.056C74.9326 93.44 75.7966 94.0373 76.5006 94.848C77.2046 95.6373 77.5566 96.7147 77.5566 98.08C77.5566 99.2107 77.2473 100.245 76.6286 101.184C76.0313 102.101 75.1033 102.837 73.8446 103.392C72.586 103.925 71.0393 104.192 69.2046 104.192ZM87.0756 83.648H79.2036V81.6H97.3156V83.648H89.4436V104H87.0756V83.648ZM114.342 98.016H101.862L99.1736 104H96.7096L106.95 81.6H109.286L119.526 104H117.03L114.342 98.016ZM113.478 96.096L108.102 84.064L102.726 96.096H113.478ZM123.551 81.6H125.919V101.952H138.463V104H123.551V81.6ZM142.715 81.6H145.083V101.952H157.627V104H142.715V81.6ZM174.926 83.648H167.054V81.6H185.166V83.648H177.294V104H174.926V83.648ZM204.565 104L199.445 96.8C198.869 96.864 198.271 96.896 197.653 96.896H191.637V104H189.269V81.6H197.653C200.511 81.6 202.751 82.2827 204.373 83.648C205.994 85.0133 206.805 86.8907 206.805 89.28C206.805 91.0293 206.357 92.512 205.461 93.728C204.586 94.9227 203.327 95.7867 201.685 96.32L207.157 104H204.565ZM197.589 94.88C199.807 94.88 201.503 94.3893 202.677 93.408C203.85 92.4267 204.437 91.0507 204.437 89.28C204.437 87.4667 203.85 86.08 202.677 85.12C201.503 84.1387 199.807 83.648 197.589 83.648H191.637V94.88H197.589ZM226.762 98.016H214.282L211.594 104H209.13L219.37 81.6H221.706L231.946 104H229.45L226.762 98.016ZM225.898 96.096L220.522 84.064L215.146 96.096H225.898ZM235.971 81.6H245.091C247.459 81.6 249.55 82.08 251.363 83.04C253.176 83.9787 254.584 85.3013 255.587 87.008C256.59 88.6933 257.091 90.624 257.091 92.8C257.091 94.976 256.59 96.9173 255.587 98.624C254.584 100.309 253.176 101.632 251.363 102.592C249.55 103.531 247.459 104 245.091 104H235.971V81.6ZM244.963 101.952C246.926 101.952 248.643 101.568 250.115 100.8C251.587 100.011 252.728 98.9333 253.539 97.568C254.35 96.1813 254.755 94.592 254.755 92.8C254.755 91.008 254.35 89.4293 253.539 88.064C252.728 86.6773 251.587 85.6 250.115 84.832C248.643 84.0427 246.926 83.648 244.963 83.648H238.339V101.952H244.963ZM278.569 101.952V104H262.729V81.6H278.089V83.648H265.097V91.616H276.681V93.632H265.097V101.952H278.569ZM298.567 92.448C300.039 92.768 301.17 93.408 301.959 94.368C302.77 95.3067 303.175 96.5227 303.175 98.016C303.175 99.936 302.46 101.419 301.031 102.464C299.623 103.488 297.532 104 294.759 104H284.455V81.6H294.119C296.615 81.6 298.546 82.1013 299.911 83.104C301.298 84.1067 301.991 85.5253 301.991 87.36C301.991 88.5973 301.682 89.6533 301.063 90.528C300.466 91.3813 299.634 92.0213 298.567 92.448ZM286.823 83.552V91.68H293.959C295.772 91.68 297.17 91.3387 298.151 90.656C299.132 89.952 299.623 88.9387 299.623 87.616C299.623 86.2933 299.132 85.2907 298.151 84.608C297.17 83.904 295.772 83.552 293.959 83.552H286.823ZM294.727 102.048C296.732 102.048 298.247 101.707 299.271 101.024C300.295 100.341 300.807 99.2747 300.807 97.824C300.807 95.0293 298.78 93.632 294.727 93.632H286.823V102.048H294.727ZM322.948 98.016H310.468L307.78 104H305.316L315.556 81.6H317.892L328.132 104H325.636L322.948 98.016ZM322.084 96.096L316.708 84.064L311.332 96.096H322.084ZM347.621 92.8H349.893V101.344C348.848 102.261 347.61 102.965 346.181 103.456C344.752 103.947 343.248 104.192 341.669 104.192C339.429 104.192 337.413 103.701 335.621 102.72C333.829 101.739 332.421 100.384 331.397 98.656C330.373 96.9067 329.861 94.9547 329.861 92.8C329.861 90.6453 330.373 88.704 331.397 86.976C332.421 85.2267 333.829 83.8613 335.621 82.88C337.413 81.8987 339.44 81.408 341.701 81.408C343.408 81.408 344.976 81.6853 346.405 82.24C347.834 82.7733 349.04 83.5733 350.021 84.64L348.549 86.144C346.778 84.3947 344.528 83.52 341.797 83.52C339.984 83.52 338.341 83.9253 336.869 84.736C335.418 85.5253 334.277 86.6347 333.445 88.064C332.613 89.472 332.197 91.0507 332.197 92.8C332.197 94.5493 332.613 96.128 333.445 97.536C334.277 98.944 335.418 100.053 336.869 100.864C338.32 101.675 339.952 102.08 341.765 102.08C344.069 102.08 346.021 101.504 347.621 100.352V92.8Z" fill="white"/>
<path d="M602.771 81.6H605.139V101.952H617.683V104H602.771V81.6ZM631.289 104.192C629.071 104.192 627.055 103.701 625.241 102.72C623.449 101.717 622.041 100.352 621.017 98.624C620.015 96.896 619.513 94.9547 619.513 92.8C619.513 90.6453 620.015 88.704 621.017 86.976C622.041 85.248 623.449 83.8933 625.241 82.912C627.055 81.9093 629.071 81.408 631.289 81.408C633.508 81.408 635.503 81.8987 637.273 82.88C639.065 83.8613 640.473 85.2267 641.497 86.976C642.521 88.704 643.033 90.6453 643.033 92.8C643.033 94.9547 642.521 96.9067 641.497 98.656C640.473 100.384 639.065 101.739 637.273 102.72C635.503 103.701 633.508 104.192 631.289 104.192ZM631.289 102.08C633.06 102.08 634.66 101.685 636.089 100.896C637.519 100.085 638.639 98.976 639.449 97.568C640.26 96.1387 640.665 94.5493 640.665 92.8C640.665 91.0507 640.26 89.472 639.449 88.064C638.639 86.6347 637.519 85.5253 636.089 84.736C634.66 83.9253 633.06 83.52 631.289 83.52C629.519 83.52 627.908 83.9253 626.457 84.736C625.028 85.5253 623.897 86.6347 623.065 88.064C622.255 89.472 621.849 91.0507 621.849 92.8C621.849 94.5493 622.255 96.1387 623.065 97.568C623.897 98.976 625.028 100.085 626.457 100.896C627.908 101.685 629.519 102.08 631.289 102.08ZM664.437 92.8H666.709V101.344C665.664 102.261 664.426 102.965 662.997 103.456C661.568 103.947 660.064 104.192 658.485 104.192C656.245 104.192 654.229 103.701 652.437 102.72C650.645 101.739 649.237 100.384 648.213 98.656C647.189 96.9067 646.677 94.9547 646.677 92.8C646.677 90.6453 647.189 88.704 648.213 86.976C649.237 85.2267 650.645 83.8613 652.437 82.88C654.229 81.8987 656.256 81.408 658.517 81.408C660.224 81.408 661.792 81.6853 663.221 82.24C664.65 82.7733 665.856 83.5733 666.837 84.64L665.365 86.144C663.594 84.3947 661.344 83.52 658.613 83.52C656.8 83.52 655.157 83.9253 653.685 84.736C652.234 85.5253 651.093 86.6347 650.261 88.064C649.429 89.472 649.013 91.0507 649.013 92.8C649.013 94.5493 649.429 96.128 650.261 97.536C651.093 98.944 652.234 100.053 653.685 100.864C655.136 101.675 656.768 102.08 658.581 102.08C660.885 102.08 662.837 101.504 664.437 100.352V92.8ZM673.731 81.6H676.099V104H673.731V81.6ZM702.427 81.6V104H700.475L686.075 85.824V104H683.707V81.6H685.659L700.091 99.776V81.6H702.427ZM724.866 77.056H726.946L716.386 107.2H714.306L724.866 77.056ZM744.663 104.192C742.999 104.192 741.399 103.925 739.863 103.392C738.349 102.859 737.175 102.155 736.343 101.28L737.271 99.456C738.082 100.267 739.159 100.928 740.503 101.44C741.847 101.931 743.234 102.176 744.663 102.176C746.669 102.176 748.173 101.813 749.175 101.088C750.178 100.341 750.679 99.3813 750.679 98.208C750.679 97.312 750.402 96.5973 749.847 96.064C749.314 95.5307 748.653 95.1253 747.863 94.848C747.074 94.5493 745.975 94.2293 744.567 93.888C742.882 93.4613 741.538 93.056 740.535 92.672C739.533 92.2667 738.669 91.6587 737.943 90.848C737.239 90.0373 736.887 88.9387 736.887 87.552C736.887 86.4213 737.186 85.3973 737.783 84.48C738.381 83.5413 739.298 82.7947 740.535 82.24C741.773 81.6853 743.309 81.408 745.143 81.408C746.423 81.408 747.671 81.5893 748.887 81.952C750.125 82.2933 751.191 82.7733 752.087 83.392L751.287 85.28C750.349 84.6613 749.346 84.2027 748.279 83.904C747.213 83.584 746.167 83.424 745.143 83.424C743.181 83.424 741.698 83.808 740.695 84.576C739.714 85.3227 739.223 86.2933 739.223 87.488C739.223 88.384 739.49 89.1093 740.023 89.664C740.578 90.1973 741.261 90.6133 742.071 90.912C742.903 91.1893 744.013 91.4987 745.399 91.84C747.042 92.2453 748.365 92.6507 749.367 93.056C750.391 93.44 751.255 94.0373 751.959 94.848C752.663 95.6373 753.015 96.7147 753.015 98.08C753.015 99.2107 752.706 100.245 752.087 101.184C751.49 102.101 750.562 102.837 749.303 103.392C748.045 103.925 746.498 104.192 744.663 104.192ZM758.495 81.6H760.863V104H758.495V81.6ZM784.247 92.8H786.519V101.344C785.474 102.261 784.236 102.965 782.807 103.456C781.378 103.947 779.874 104.192 778.295 104.192C776.055 104.192 774.039 103.701 772.247 102.72C770.455 101.739 769.047 100.384 768.023 98.656C766.999 96.9067 766.487 94.9547 766.487 92.8C766.487 90.6453 766.999 88.704 768.023 86.976C769.047 85.2267 770.455 83.8613 772.247 82.88C774.039 81.8987 776.066 81.408 778.327 81.408C780.034 81.408 781.602 81.6853 783.031 82.24C784.46 82.7733 785.666 83.5733 786.647 84.64L785.175 86.144C783.404 84.3947 781.154 83.52 778.423 83.52C776.61 83.52 774.967 83.9253 773.495 84.736C772.044 85.5253 770.903 86.6347 770.071 88.064C769.239 89.472 768.823 91.0507 768.823 92.8C768.823 94.5493 769.239 96.128 770.071 97.536C770.903 98.944 772.044 100.053 773.495 100.864C774.946 101.675 776.578 102.08 778.391 102.08C780.695 102.08 782.647 101.504 784.247 100.352V92.8ZM812.261 81.6V104H810.309L795.909 85.824V104H793.541V81.6H795.493L809.925 99.776V81.6H812.261ZM828.916 104.192C826.015 104.192 823.754 103.36 822.132 101.696C820.511 100.032 819.7 97.6107 819.7 94.432V81.6H822.068V94.336C822.068 96.9387 822.655 98.88 823.828 100.16C825.002 101.44 826.698 102.08 828.916 102.08C831.156 102.08 832.863 101.44 834.036 100.16C835.21 98.88 835.796 96.9387 835.796 94.336V81.6H838.1V94.432C838.1 97.6107 837.29 100.032 835.668 101.696C834.068 103.36 831.818 104.192 828.916 104.192ZM853.94 81.6C856.799 81.6 859.039 82.2827 860.66 83.648C862.281 85.0133 863.092 86.8907 863.092 89.28C863.092 91.6693 862.281 93.5467 860.66 94.912C859.039 96.256 856.799 96.928 853.94 96.928H847.924V104H845.556V81.6H853.94ZM853.876 94.848C856.095 94.848 857.791 94.368 858.964 93.408C860.137 92.4267 860.724 91.0507 860.724 89.28C860.724 87.4667 860.137 86.08 858.964 85.12C857.791 84.1387 856.095 83.648 853.876 83.648H847.924V94.848H853.876Z" fill="white"/>
<path d="M1154.69 104.192C1153.02 104.192 1151.42 103.925 1149.89 103.392C1148.37 102.859 1147.2 102.155 1146.37 101.28L1147.29 99.456C1148.1 100.267 1149.18 100.928 1150.53 101.44C1151.87 101.931 1153.26 102.176 1154.69 102.176C1156.69 102.176 1158.19 101.813 1159.2 101.088C1160.2 100.341 1160.7 99.3813 1160.7 98.208C1160.7 97.312 1160.42 96.5973 1159.87 96.064C1159.34 95.5307 1158.67 95.1253 1157.89 94.848C1157.1 94.5493 1156 94.2293 1154.59 93.888C1152.9 93.4613 1151.56 93.056 1150.56 92.672C1149.55 92.2667 1148.69 91.6587 1147.97 90.848C1147.26 90.0373 1146.91 88.9387 1146.91 87.552C1146.91 86.4213 1147.21 85.3973 1147.81 84.48C1148.4 83.5413 1149.32 82.7947 1150.56 82.24C1151.79 81.6853 1153.33 81.408 1155.17 81.408C1156.45 81.408 1157.69 81.5893 1158.91 81.952C1160.15 82.2933 1161.21 82.7733 1162.11 83.392L1161.31 85.28C1160.37 84.6613 1159.37 84.2027 1158.3 83.904C1157.23 83.584 1156.19 83.424 1155.17 83.424C1153.2 83.424 1151.72 83.808 1150.72 84.576C1149.74 85.3227 1149.25 86.2933 1149.25 87.488C1149.25 88.384 1149.51 89.1093 1150.05 89.664C1150.6 90.1973 1151.28 90.6133 1152.09 90.912C1152.93 91.1893 1154.03 91.4987 1155.42 91.84C1157.06 92.2453 1158.39 92.6507 1159.39 93.056C1160.41 93.44 1161.28 94.0373 1161.98 94.848C1162.69 95.6373 1163.04 96.7147 1163.04 98.08C1163.04 99.2107 1162.73 100.245 1162.11 101.184C1161.51 102.101 1160.58 102.837 1159.33 103.392C1158.07 103.925 1156.52 104.192 1154.69 104.192ZM1172.56 83.648H1164.68V81.6H1182.8V83.648H1174.92V104H1172.56V83.648ZM1199.82 98.016H1187.34L1184.65 104H1182.19L1192.43 81.6H1194.77L1205.01 104H1202.51L1199.82 98.016ZM1198.96 96.096L1193.58 84.064L1188.21 96.096H1198.96ZM1224.33 104L1219.21 96.8C1218.63 96.864 1218.03 96.896 1217.42 96.896H1211.4V104H1209.03V81.6H1217.42C1220.27 81.6 1222.51 82.2827 1224.14 83.648C1225.76 85.0133 1226.57 86.8907 1226.57 89.28C1226.57 91.0293 1226.12 92.512 1225.22 93.728C1224.35 94.9227 1223.09 95.7867 1221.45 96.32L1226.92 104H1224.33ZM1217.35 94.88C1219.57 94.88 1221.27 94.3893 1222.44 93.408C1223.61 92.4267 1224.2 91.0507 1224.2 89.28C1224.2 87.4667 1223.61 86.08 1222.44 85.12C1221.27 84.1387 1219.57 83.648 1217.35 83.648H1211.4V94.88H1217.35ZM1236.52 83.648H1228.64V81.6H1246.76V83.648H1238.88V104H1236.52V83.648ZM1263.91 83.648H1256.03V81.6H1274.15V83.648H1266.27V104H1263.91V83.648ZM1293.55 104L1288.43 96.8C1287.85 96.864 1287.25 96.896 1286.63 96.896H1280.62V104H1278.25V81.6H1286.63C1289.49 81.6 1291.73 82.2827 1293.35 83.648C1294.97 85.0133 1295.79 86.8907 1295.79 89.28C1295.79 91.0293 1295.34 92.512 1294.44 93.728C1293.57 94.9227 1292.31 95.7867 1290.67 96.32L1296.14 104H1293.55ZM1286.57 94.88C1288.79 94.88 1290.48 94.3893 1291.66 93.408C1292.83 92.4267 1293.42 91.0507 1293.42 89.28C1293.42 87.4667 1292.83 86.08 1291.66 85.12C1290.48 84.1387 1288.79 83.648 1286.57 83.648H1280.62V94.88H1286.57ZM1315.74 98.016H1303.26L1300.57 104H1298.11L1308.35 81.6H1310.69L1320.93 104H1318.43L1315.74 98.016ZM1314.88 96.096L1309.5 84.064L1304.13 96.096H1314.88ZM1324.95 81.6H1334.07C1336.44 81.6 1338.53 82.08 1340.34 83.04C1342.16 83.9787 1343.57 85.3013 1344.57 87.008C1345.57 88.6933 1346.07 90.624 1346.07 92.8C1346.07 94.976 1345.57 96.9173 1344.57 98.624C1343.57 100.309 1342.16 101.632 1340.34 102.592C1338.53 103.531 1336.44 104 1334.07 104H1324.95V81.6ZM1333.94 101.952C1335.91 101.952 1337.62 101.568 1339.1 100.8C1340.57 100.011 1341.71 98.9333 1342.52 97.568C1343.33 96.1813 1343.74 94.592 1343.74 92.8C1343.74 91.008 1343.33 89.4293 1342.52 88.064C1341.71 86.6773 1340.57 85.6 1339.1 84.832C1337.62 84.0427 1335.91 83.648 1333.94 83.648H1327.32V101.952H1333.94ZM1351.71 81.6H1354.08V104H1351.71V81.6ZM1380.41 81.6V104H1378.45L1364.05 85.824V104H1361.69V81.6H1363.64L1378.07 99.776V81.6H1380.41ZM1403.81 92.8H1406.08V101.344C1405.04 102.261 1403.8 102.965 1402.37 103.456C1400.94 103.947 1399.44 104.192 1397.86 104.192C1395.62 104.192 1393.6 103.701 1391.81 102.72C1390.02 101.739 1388.61 100.384 1387.59 98.656C1386.56 96.9067 1386.05 94.9547 1386.05 92.8C1386.05 90.6453 1386.56 88.704 1387.59 86.976C1388.61 85.2267 1390.02 83.8613 1391.81 82.88C1393.6 81.8987 1395.63 81.408 1397.89 81.408C1399.6 81.408 1401.17 81.6853 1402.6 82.24C1404.03 82.7733 1405.23 83.5733 1406.21 84.64L1404.74 86.144C1402.97 84.3947 1400.72 83.52 1397.99 83.52C1396.18 83.52 1394.53 83.9253 1393.06 84.736C1391.61 85.5253 1390.47 86.6347 1389.64 88.064C1388.8 89.472 1388.39 91.0507 1388.39 92.8C1388.39 94.5493 1388.8 96.128 1389.64 97.536C1390.47 98.944 1391.61 100.053 1393.06 100.864C1394.51 101.675 1396.14 102.08 1397.96 102.08C1400.26 102.08 1402.21 101.504 1403.81 100.352V92.8Z" fill="white"/>
<rect x="160" y="1" width="56" height="56" rx="28" stroke="white" stroke-linecap="round" stroke-dasharray="12 12"/>
<rect x="168" y="9" width="40" height="40" rx="20" fill="white"/>
<path d="M703.497 29.9596C703.773 29.9596 703.997 29.7357 703.997 29.4596C703.997 29.1834 703.773 28.9596 703.497 28.9596L703.497 29.9596ZM216.5 29.9596L226.646 29.9596L226.646 28.9596L216.5 28.9596L216.5 29.9596ZM246.937 29.9596L267.229 29.9596L267.229 28.9596L246.937 28.9596L246.937 29.9596ZM287.52 29.9596L307.812 29.9596L307.812 28.9596L287.52 28.9596L287.52 29.9596ZM328.103 29.9596L348.395 29.9596L348.395 28.9596L328.103 28.9596L328.103 29.9596ZM368.687 29.9596L388.978 29.9596L388.978 28.9596L368.687 28.9596L368.687 29.9596ZM409.27 29.9596L429.561 29.9596L429.561 28.9596L409.27 28.9596L409.27 29.9596ZM449.853 29.9596L470.144 29.9596L470.144 28.9596L449.853 28.9596L449.853 29.9596ZM490.436 29.9596L510.727 29.9596L510.727 28.9596L490.436 28.9596L490.436 29.9596ZM531.019 29.9596L551.31 29.9596L551.31 28.9596L531.019 28.9596L531.019 29.9596ZM571.602 29.9596L591.893 29.9596L591.893 28.9596L571.602 28.9596L571.602 29.9596ZM612.185 29.9596L632.477 29.9596L632.476 28.9596L612.185 28.9596L612.185 29.9596ZM652.768 29.9596L673.06 29.9596L673.06 28.9596L652.768 28.9596L652.768 29.9596ZM693.351 29.9596L703.497 29.9596L703.497 28.9596L693.351 28.9596L693.351 29.9596Z" fill="white"/>
<path d="M189.848 36H188.086V22.6904C187.95 22.8265 187.749 22.984 187.484 23.1631C187.227 23.335 186.933 23.5068 186.604 23.6787C186.281 23.8506 185.938 24.0117 185.572 24.1621C185.214 24.3125 184.863 24.4307 184.52 24.5166V22.7334C184.906 22.626 185.314 22.4827 185.744 22.3037C186.181 22.1175 186.607 21.9134 187.022 21.6914C187.445 21.4622 187.842 21.2259 188.215 20.9824C188.587 20.7318 188.91 20.4883 189.182 20.252H189.848V36Z" fill="#03102F"/>
<rect x="704" y="1" width="56" height="56" rx="28" stroke="white" stroke-linecap="round" stroke-dasharray="12 12"/>
<rect x="712" y="9" width="40" height="40" rx="20" fill="white"/>
<path d="M1247.5 29.9596C1247.77 29.9596 1248 29.7357 1248 29.4596C1248 29.1834 1247.77 28.9596 1247.5 28.9596L1247.5 29.9596ZM760.5 29.9596L770.646 29.9596L770.646 28.9596L760.5 28.9596L760.5 29.9596ZM790.937 29.9596L811.229 29.9596L811.229 28.9596L790.937 28.9596L790.937 29.9596ZM831.52 29.9596L851.812 29.9596L851.812 28.9596L831.52 28.9596L831.52 29.9596ZM872.103 29.9596L892.395 29.9596L892.395 28.9596L872.103 28.9596L872.103 29.9596ZM912.687 29.9596L932.978 29.9596L932.978 28.9596L912.687 28.9596L912.687 29.9596ZM953.27 29.9596L973.561 29.9596L973.561 28.9596L953.27 28.9596L953.27 29.9596ZM993.853 29.9596L1014.14 29.9596L1014.14 28.9596L993.853 28.9596L993.853 29.9596ZM1034.44 29.9596L1054.73 29.9596L1054.73 28.9596L1034.44 28.9596L1034.44 29.9596ZM1075.02 29.9596L1095.31 29.9596L1095.31 28.9596L1075.02 28.9596L1075.02 29.9596ZM1115.6 29.9596L1135.89 29.9596L1135.89 28.9596L1115.6 28.9596L1115.6 29.9596ZM1156.18 29.9596L1176.48 29.9596L1176.48 28.9596L1156.18 28.9596L1156.18 29.9596ZM1196.77 29.9596L1217.06 29.9596L1217.06 28.9596L1196.77 28.9596L1196.77 29.9596ZM1237.35 29.9596L1247.5 29.9596L1247.5 28.9596L1237.35 28.9596L1237.35 29.9596Z" fill="white"/>
<path d="M734.363 24.6348C734.363 24.1621 734.288 23.7503 734.138 23.3994C733.994 23.0485 733.794 22.7585 733.536 22.5293C733.285 22.293 732.988 22.1175 732.645 22.0029C732.301 21.8883 731.928 21.8311 731.527 21.8311C731.184 21.8311 730.847 21.8776 730.518 21.9707C730.188 22.0638 729.866 22.1927 729.551 22.3574C729.243 22.5221 728.942 22.7191 728.648 22.9482C728.362 23.1774 728.093 23.4316 727.843 23.7109V21.8203C728.337 21.3405 728.888 20.9753 729.497 20.7246C730.113 20.4668 730.861 20.3379 731.742 20.3379C732.372 20.3379 732.956 20.431 733.493 20.6172C734.03 20.7962 734.496 21.0612 734.89 21.4121C735.284 21.763 735.591 22.1963 735.813 22.7119C736.043 23.2275 736.157 23.8184 736.157 24.4844C736.157 25.0931 736.086 25.6445 735.942 26.1387C735.806 26.6328 735.595 27.0983 735.309 27.5352C735.029 27.972 734.675 28.391 734.245 28.792C733.815 29.193 733.311 29.6012 732.73 30.0166C732.007 30.5322 731.409 30.9727 730.937 31.3379C730.471 31.7031 730.099 32.0469 729.819 32.3691C729.547 32.6842 729.354 33.0029 729.239 33.3252C729.132 33.6403 729.078 34.0055 729.078 34.4209H736.748V36H727.241V35.2373C727.241 34.5785 727.313 33.9984 727.456 33.4971C727.599 32.9958 727.836 32.5195 728.165 32.0684C728.494 31.6172 728.924 31.166 729.454 30.7148C729.991 30.2637 730.646 29.7552 731.42 29.1895C731.979 28.7884 732.444 28.4053 732.816 28.04C733.196 27.6748 733.5 27.3096 733.729 26.9443C733.959 26.5791 734.12 26.2103 734.213 25.8379C734.313 25.4583 734.363 25.0573 734.363 24.6348Z" fill="#03102F"/>
<rect x="1249" y="1" width="56" height="56" rx="28" stroke="white" stroke-linecap="round" stroke-dasharray="12 12"/>
<rect x="1257" y="9" width="40" height="40" rx="20" fill="white"/>
<path d="M1281.31 31.6387C1281.31 32.3333 1281.18 32.9671 1280.91 33.54C1280.65 34.1058 1280.28 34.5928 1279.8 35.001C1279.33 35.402 1278.76 35.7135 1278.1 35.9355C1277.43 36.1576 1276.7 36.2686 1275.89 36.2686C1274.43 36.2686 1273.26 35.9893 1272.39 35.4307V33.54C1273.43 34.3564 1274.62 34.7646 1275.96 34.7646C1276.5 34.7646 1276.98 34.6966 1277.41 34.5605C1277.85 34.4245 1278.22 34.2275 1278.53 33.9697C1278.84 33.7119 1279.08 33.4004 1279.25 33.0352C1279.42 32.6699 1279.5 32.2581 1279.5 31.7998C1279.5 29.7874 1278.07 28.7812 1275.21 28.7812H1273.93V27.2881H1275.14C1277.68 27.2881 1278.94 26.3428 1278.94 24.4521C1278.94 22.7048 1277.98 21.8311 1276.04 21.8311C1274.96 21.8311 1273.93 22.1963 1272.98 22.9268V21.2188C1273.96 20.6315 1275.13 20.3379 1276.48 20.3379C1277.13 20.3379 1277.71 20.4274 1278.24 20.6064C1278.76 20.7855 1279.21 21.0361 1279.58 21.3584C1279.95 21.6807 1280.24 22.0674 1280.44 22.5186C1280.65 22.9697 1280.75 23.4674 1280.75 24.0117C1280.75 26.0384 1279.72 27.3418 1277.68 27.9219V27.9648C1278.2 28.0221 1278.68 28.151 1279.13 28.3516C1279.57 28.5449 1279.95 28.7992 1280.28 29.1143C1280.6 29.4294 1280.85 29.8018 1281.03 30.2314C1281.21 30.654 1281.31 31.123 1281.31 31.6387Z" fill="#03102F"/>
</svg>
