<svg width="144" height="114" viewBox="0 0 144 114" fill="none" xmlns="http://www.w3.org/2000/svg">
<path d="M30.19 113.18H4.9C3.60115 113.172 2.35788 112.652 1.44037 111.733C0.522862 110.813 0.0052453 109.569 0 108.27L0 17.0801C0.00264243 15.7814 0.51974 14.5366 1.4381 13.6182C2.35645 12.6999 3.60125 12.1828 4.9 12.1801H51.1C52.3987 12.1828 53.6435 12.6999 54.5619 13.6182C55.4803 14.5366 55.9974 15.7814 56 17.0801V40.6501C56 41.1805 55.7893 41.6893 55.4142 42.0643C55.0391 42.4394 54.5304 42.6501 54 42.6501H29.36V108.27C29.3587 108.388 29.3807 108.506 29.4247 108.615C29.4687 108.725 29.5339 108.825 29.6165 108.909C29.6992 108.994 29.7976 109.061 29.9063 109.108C30.015 109.154 30.1318 109.179 30.25 109.18C30.7804 109.188 31.286 109.406 31.6554 109.787C32.0249 110.168 32.228 110.68 32.22 111.21C32.212 111.741 31.9937 112.246 31.613 112.616C31.2323 112.985 30.7204 113.188 30.19 113.18ZM4.9 16.1801C4.66131 16.1801 4.43239 16.2749 4.2636 16.4437C4.09482 16.6125 4 16.8414 4 17.0801V108.27C3.99866 108.39 4.02128 108.509 4.06654 108.62C4.1118 108.731 4.17878 108.832 4.26355 108.917C4.34832 109.001 4.44917 109.068 4.56018 109.114C4.67119 109.159 4.79012 109.181 4.91 109.18H25.44C25.3877 108.88 25.3609 108.575 25.36 108.27V42.1201C25.3492 41.2172 25.6949 40.3465 26.3221 39.6969C26.9492 39.0472 27.8073 38.6711 28.71 38.6501H52V17.0801C52 16.8414 51.9052 16.6125 51.7364 16.4437C51.5676 16.2749 51.3387 16.1801 51.1 16.1801H4.9ZM28.72 40.6501V42.6501V40.6501Z" fill="white"/>
<path d="M136 93.5401H64.44C63.9096 93.5401 63.4009 93.3294 63.0258 92.9543C62.6507 92.5793 62.44 92.0705 62.44 91.5401V42.7601C62.44 42.7309 62.4284 42.703 62.4078 42.6823C62.3872 42.6617 62.3592 42.6501 62.33 42.6501H54C53.4696 42.6501 52.9609 42.4394 52.5858 42.0643C52.2107 41.6893 52 41.1805 52 40.6501V17.0801C52 16.8414 51.9052 16.6125 51.7364 16.4437C51.5676 16.2749 51.3387 16.1801 51.1 16.1801H11C10.4696 16.1801 9.96086 15.9694 9.58579 15.5943C9.21071 15.2193 9 14.7105 9 14.1801V7.18011C8.99999 6.23385 9.18702 5.29691 9.55035 4.42317C9.91367 3.54944 10.4461 2.75614 11.1171 2.08889C11.7881 1.42164 12.5843 0.893601 13.46 0.535133C14.3358 0.176665 15.2737 -0.00516025 16.22 0.000111431H136C137.903 0.000109586 139.727 0.755199 141.074 2.09955C142.42 3.4439 143.177 5.26759 143.18 7.17011V86.3601C143.177 88.2636 142.42 90.0883 141.074 91.4342C139.728 92.7802 137.903 93.5375 136 93.5401ZM66.48 89.5401H136C136.843 89.5375 137.65 89.2016 138.246 88.6058C138.841 88.01 139.177 87.2027 139.18 86.3601V7.17011C139.177 6.32846 138.841 5.52218 138.245 4.92797C137.649 4.33377 136.842 4.00011 136 4.00011H16.22C15.7999 3.99482 15.3829 4.07284 14.9931 4.22966C14.6033 4.38647 14.2485 4.61898 13.949 4.91373C13.6496 5.20849 13.4116 5.55966 13.2487 5.94695C13.0858 6.33423 13.0013 6.74996 13 7.17011V12.1701H51.1C52.3987 12.1728 53.6435 12.6899 54.5619 13.6082C55.4803 14.5266 55.9974 15.7714 56 17.0701V38.6501H62.33C63.42 38.6501 64.4654 39.0831 65.2362 39.8539C66.007 40.6247 66.44 41.6701 66.44 42.7601L66.48 89.5401Z" fill="white"/>
<path d="M102.67 106.63H64.44C63.9096 106.63 63.4009 106.419 63.0258 106.044C62.6507 105.669 62.44 105.161 62.44 104.63C62.44 104.1 62.6507 103.591 63.0258 103.216C63.4009 102.841 63.9096 102.63 64.44 102.63H102.67C103.2 102.63 103.709 102.841 104.084 103.216C104.459 103.591 104.67 104.1 104.67 104.63C104.67 105.161 104.459 105.669 104.084 106.044C103.709 106.419 103.2 106.63 102.67 106.63Z" fill="white"/>
<path d="M71.43 106.63C70.8996 106.63 70.3909 106.419 70.0158 106.044C69.6407 105.669 69.43 105.161 69.43 104.63V91.5401C69.43 91.0097 69.6407 90.501 70.0158 90.1259C70.3909 89.7508 70.8996 89.5401 71.43 89.5401C71.9604 89.5401 72.4691 89.7508 72.8442 90.1259C73.2193 90.501 73.43 91.0097 73.43 91.5401V104.63C73.43 105.161 73.2193 105.669 72.8442 106.044C72.4691 106.419 71.9604 106.63 71.43 106.63Z" fill="white"/>
<path d="M82.54 106.63C82.0095 106.63 81.5008 106.419 81.1258 106.044C80.7507 105.669 80.54 105.161 80.54 104.63V91.5401C80.54 91.0097 80.7507 90.501 81.1258 90.1259C81.5008 89.7508 82.0095 89.5401 82.54 89.5401C83.0704 89.5401 83.5791 89.7508 83.9542 90.1259C84.3293 90.501 84.54 91.0097 84.54 91.5401V104.63C84.54 105.161 84.3293 105.669 83.9542 106.044C83.5791 106.419 83.0704 106.63 82.54 106.63Z" fill="white"/>
<path d="M47.63 106.72H43.8C43.2696 106.72 42.7608 106.509 42.3858 106.134C42.0107 105.759 41.8 105.251 41.8 104.72C41.8 104.19 42.0107 103.681 42.3858 103.306C42.7608 102.931 43.2696 102.72 43.8 102.72H47.63C48.1604 102.72 48.6691 102.931 49.0442 103.306C49.4193 103.681 49.63 104.19 49.63 104.72C49.63 105.251 49.4193 105.759 49.0442 106.134C48.6691 106.509 48.1604 106.72 47.63 106.72Z" fill="white"/>
<path d="M62.33 113.18H30.19C28.9017 113.159 27.6733 112.633 26.7697 111.714C25.8661 110.795 25.3598 109.559 25.36 108.27V42.1201C25.3492 41.2172 25.6949 40.3465 26.3221 39.6968C26.9492 39.0472 27.8073 38.6711 28.71 38.6501H62.33C63.42 38.6501 64.4654 39.0831 65.2362 39.8539C66.007 40.6246 66.44 41.67 66.44 42.7601V109.07C66.44 110.16 66.007 111.206 65.2362 111.976C64.4654 112.747 63.42 113.18 62.33 113.18ZM29.33 42.6501V108.27C29.3287 108.388 29.3506 108.506 29.3947 108.615C29.4387 108.725 29.5039 108.825 29.5865 108.909C29.6691 108.994 29.7676 109.061 29.8763 109.108C29.985 109.154 30.1018 109.179 30.22 109.18H62.33C62.3592 109.18 62.3871 109.168 62.4078 109.148C62.4284 109.127 62.44 109.099 62.44 109.07V42.7601C62.44 42.7309 62.4284 42.7029 62.4078 42.6823C62.3871 42.6617 62.3592 42.6501 62.33 42.6501H29.33Z" fill="white"/>
<path d="M45.72 48.7201C45.5904 48.7349 45.4596 48.7349 45.33 48.7201C45.1994 48.6987 45.0718 48.6618 44.95 48.6101C44.8314 48.5566 44.7177 48.4931 44.61 48.4201C44.4977 48.3486 44.3937 48.2647 44.3 48.1701C43.9275 47.7954 43.7184 47.2885 43.7184 46.7601C43.7184 46.2317 43.9275 45.7248 44.3 45.3501C44.3937 45.2555 44.4977 45.1717 44.61 45.1001C44.7177 45.0272 44.8314 44.9636 44.95 44.9101C45.0734 44.863 45.2005 44.8262 45.33 44.8001C45.5875 44.7489 45.8525 44.7489 46.11 44.8001C46.2362 44.8262 46.36 44.863 46.48 44.9101C46.6018 44.9635 46.7188 45.0271 46.83 45.1001C46.941 45.1692 47.042 45.2534 47.13 45.3501C47.408 45.6298 47.5971 45.9854 47.6736 46.3722C47.7501 46.7591 47.7105 47.1599 47.5598 47.5244C47.4091 47.8888 47.1541 48.2005 46.8267 48.4204C46.4994 48.6403 46.1143 48.7585 45.72 48.7601V48.7201Z" fill="white"/>
<path d="M46.14 23.3401C46.0104 23.3549 45.8796 23.3549 45.75 23.3401C45.6238 23.314 45.5 23.2772 45.38 23.2301C45.2491 23.1607 45.1222 23.0839 45 23.0001C44.7849 22.8515 44.5986 22.6652 44.45 22.4501C44.3119 22.2278 44.2105 21.9847 44.15 21.7301C44.1401 21.6003 44.1401 21.4699 44.15 21.3401C44.1485 21.0769 44.1989 20.8159 44.2985 20.5723C44.398 20.3286 44.5447 20.107 44.73 19.9201C44.821 19.8294 44.9216 19.7489 45.03 19.6801C45.1388 19.6033 45.2563 19.5395 45.38 19.4901C45.4984 19.4384 45.6226 19.4015 45.75 19.3801C46.0728 19.314 46.407 19.3287 46.7228 19.423C47.0385 19.5172 47.3262 19.6879 47.56 19.9201C47.6488 20.0189 47.7322 20.1224 47.81 20.2301C47.8798 20.338 47.94 20.4517 47.99 20.5701C48.0417 20.6919 48.0786 20.8195 48.1 20.9501C48.1148 21.0797 48.1148 21.2105 48.1 21.3401C48.1001 21.8637 47.8949 22.3664 47.5284 22.7403C47.162 23.1143 46.6635 23.3296 46.14 23.3401Z" fill="white"/>
</svg>
