<svg width="459" height="729" viewBox="0 0 459 729" fill="none" xmlns="http://www.w3.org/2000/svg">
<path d="M343.897 4.10496C343.897 1.83785 345.734 0 348.002 0H444.895C447.162 0 449 1.83785 449 4.10496V19.895C449 22.1622 447.162 24 444.895 24H348.002C345.734 24 343.897 22.1621 343.897 19.895V4.10496Z" fill="url(#paint0_linear)"/>
<path d="M458.103 127.105C458.103 124.838 456.266 123 453.998 123H357.105C354.838 123 353 124.838 353 127.105V142.895C353 145.162 354.838 147 357.105 147H453.998C456.266 147 458.103 145.162 458.103 142.895V127.105Z" fill="url(#paint1_linear)"/>
<path d="M110.103 26.105C110.103 23.8379 108.266 22 105.998 22H9.10496C6.83786 22 5 23.8379 5 26.105V41.895C5 44.1622 6.83785 46 9.10496 46H105.998C108.266 46 110.103 44.1621 110.103 41.895V26.105Z" fill="url(#paint2_linear)"/>
<path d="M80.2019 602.418L65.0845 602.484C66.7934 606.615 67.5602 610.945 67.385 615.473H80.9906L76.1925 625.89H66.7934C64.5149 633.714 60.5712 639.56 54.9624 643.429C49.3537 647.253 41.5321 649.319 31.4977 649.626L56.4742 687.077L56.4085 688H42.1455L15 646.725L16.3146 639.077L31.169 639.209C41.9045 639.209 49.507 634.747 53.9765 625.824L16.5117 625.89L21.3099 615.473H55.0282C54.7653 611.385 53.2754 608.242 50.5587 606.044C47.8419 603.846 44.205 602.659 39.6479 602.484L20.7183 602.418L25.5164 592H85L80.2019 602.418Z" fill="url(#paint3_linear)"/>
<path d="M127 178C127 166.886 122.594 156.228 114.752 148.369C106.909 140.51 96.2727 136.095 85.1818 136.095C74.091 136.095 63.4543 140.51 55.6119 148.369C47.7695 156.228 43.3636 166.886 43.3636 178H127ZM85.1818 130.857C91.385 130.857 97.4488 129.014 102.607 125.56C107.764 122.107 111.784 117.199 114.158 111.456C116.532 105.713 117.153 99.3937 115.943 93.2972C114.733 87.2006 111.746 81.6006 107.359 77.2052C102.973 72.8099 97.3845 69.8166 91.3006 68.6039C85.2166 67.3912 78.9104 68.0136 73.1795 70.3924C67.4485 72.7711 62.5502 76.7994 59.1039 81.9678C55.6576 87.1362 53.8182 93.2126 53.8182 99.4286C53.817 103.556 54.6275 107.644 56.2032 111.457C57.779 115.271 60.0892 118.736 63.0018 121.655C65.9144 124.573 69.3724 126.888 73.1781 128.467C76.9838 130.046 81.0628 130.858 85.1818 130.857ZM32.9091 151.81H12V162.286H32.9091V151.81ZM48.5909 125.619H12V136.095H48.5909V125.619ZM38.1364 99.4286H12V109.905H38.1364V99.4286Z" fill="url(#paint4_linear)"/>
<path d="M400 695C400 683.886 395.594 673.228 387.752 665.369C379.909 657.51 369.273 653.095 358.182 653.095C347.091 653.095 336.454 657.51 328.612 665.369C320.769 673.228 316.364 683.886 316.364 695H400ZM358.182 647.857C364.385 647.857 370.449 646.014 375.607 642.56C380.764 639.107 384.784 634.199 387.158 628.456C389.532 622.713 390.153 616.394 388.943 610.297C387.733 604.201 384.746 598.601 380.359 594.205C375.973 589.81 370.385 586.817 364.301 585.604C358.217 584.391 351.91 585.014 346.179 587.392C340.449 589.771 335.55 593.799 332.104 598.968C328.658 604.136 326.818 610.213 326.818 616.429C326.817 620.556 327.627 624.644 329.203 628.457C330.779 632.271 333.089 635.736 336.002 638.655C338.914 641.573 342.372 643.888 346.178 645.467C349.984 647.046 354.063 647.858 358.182 647.857ZM305.909 668.81H285V679.286H305.909V668.81ZM321.591 642.619H285V653.095H321.591V642.619ZM311.136 616.429H285V626.905H311.136V616.429Z" fill="url(#paint5_linear)"/>
<defs>
<linearGradient id="paint0_linear" x1="346.379" y1="12" x2="446.931" y2="12" gradientUnits="userSpaceOnUse">
<stop stop-color="#001F69" stop-opacity="0.6"/>
<stop offset="1" stop-color="#001F69" stop-opacity="0"/>
</linearGradient>
<linearGradient id="paint1_linear" x1="455.621" y1="135" x2="355.069" y2="135" gradientUnits="userSpaceOnUse">
<stop stop-color="#001F69" stop-opacity="0.6"/>
<stop offset="1" stop-color="#001F69" stop-opacity="0"/>
</linearGradient>
<linearGradient id="paint2_linear" x1="107.621" y1="34" x2="7.06896" y2="34" gradientUnits="userSpaceOnUse">
<stop stop-color="#001F69" stop-opacity="0.6"/>
<stop offset="1" stop-color="#001F69" stop-opacity="0"/>
</linearGradient>
<linearGradient id="paint3_linear" x1="83.3465" y1="640" x2="16.378" y2="640" gradientUnits="userSpaceOnUse">
<stop stop-color="#001F69" stop-opacity="0.6"/>
<stop offset="1" stop-color="#001F69" stop-opacity="0"/>
</linearGradient>
<linearGradient id="paint4_linear" x1="14.7165" y1="123" x2="124.736" y2="123" gradientUnits="userSpaceOnUse">
<stop stop-color="#001F69" stop-opacity="0.6"/>
<stop offset="1" stop-color="#001F69" stop-opacity="0"/>
</linearGradient>
<linearGradient id="paint5_linear" x1="287.717" y1="640" x2="397.736" y2="640" gradientUnits="userSpaceOnUse">
<stop stop-color="#001F69" stop-opacity="0.6"/>
<stop offset="1" stop-color="#001F69" stop-opacity="0"/>
</linearGradient>
</defs>
</svg>
