<svg width="239" height="208" viewBox="0 0 239 208" fill="none" xmlns="http://www.w3.org/2000/svg">
<path d="M18.5 35C18.5 34.7239 18.2761 34.5 18 34.5C17.7239 34.5 17.5 34.7239 17.5 35H18.5ZM18.5 86.5V82.2083H17.5V86.5H18.5ZM18.5 73.625L18.5 65.0417H17.5V73.625H18.5ZM18.5 56.4583L18.5 47.875H17.5L17.5 56.4583H18.5ZM18.5 39.2917V35H17.5V39.2917H18.5Z" fill="white"/>
<path d="M18.5 121C18.5 120.724 18.2761 120.5 18 120.5C17.7239 120.5 17.5 120.724 17.5 121H18.5ZM18.5 172.5V168.208H17.5V172.5H18.5ZM18.5 159.625L18.5 151.042H17.5V159.625H18.5ZM18.5 142.458L18.5 133.875H17.5L17.5 142.458H18.5ZM18.5 125.292V121H17.5V125.292H18.5Z" fill="white"/>
<rect x="1" y="1" width="32" height="32" rx="16" stroke="white" stroke-width="0.625" stroke-linecap="round" stroke-dasharray="7.5 7.5"/>
<rect x="5.57129" y="5.57141" width="22.8571" height="22.8571" rx="11.4286" fill="white"/>
<path d="M18.1546 22.2857H17.0536V13.9672C16.9685 14.0523 16.8432 14.1507 16.6776 14.2626C16.5165 14.3701 16.3329 14.4775 16.1271 14.5849C15.9256 14.6923 15.7108 14.793 15.4825 14.887C15.2587 14.981 15.0394 15.0549 14.8246 15.1086V13.9941C15.0663 13.9269 15.3214 13.8374 15.5899 13.7255C15.863 13.6092 16.1293 13.4816 16.3889 13.3428C16.653 13.1996 16.9014 13.0519 17.1341 12.8997C17.3669 12.7431 17.5683 12.5909 17.7384 12.4432H18.1546V22.2857Z" fill="#03102F"/>
<rect x="1" y="89" width="32" height="32" rx="16" stroke="white" stroke-width="0.625" stroke-linecap="round" stroke-dasharray="7.5 7.5"/>
<rect x="5.57129" y="93.5714" width="22.8571" height="22.8571" rx="11.4286" fill="white"/>
<path d="M18.4769 103.182C18.4769 102.887 18.4299 102.63 18.3359 102.41C18.2464 102.191 18.1211 102.01 17.9599 101.867C17.8033 101.719 17.6175 101.609 17.4027 101.538C17.1878 101.466 16.9551 101.43 16.7045 101.43C16.4896 101.43 16.2792 101.459 16.0733 101.517C15.8675 101.576 15.666 101.656 15.4691 101.759C15.2766 101.862 15.0886 101.985 14.9051 102.128C14.7261 102.272 14.5583 102.43 14.4016 102.605V101.423C14.7104 101.124 15.0551 100.895 15.4355 100.739C15.8205 100.577 16.2882 100.497 16.8387 100.497C17.2326 100.497 17.5974 100.555 17.9331 100.671C18.2688 100.783 18.5597 100.949 18.8059 101.168C19.0521 101.388 19.2445 101.658 19.3833 101.981C19.5265 102.303 19.5981 102.672 19.5981 103.088C19.5981 103.469 19.5534 103.814 19.4638 104.122C19.3788 104.431 19.2468 104.722 19.0677 104.995C18.8932 105.268 18.6716 105.53 18.4031 105.781C18.1345 106.031 17.819 106.286 17.4564 106.546C17.0043 106.868 16.6306 107.144 16.3352 107.372C16.0443 107.6 15.8115 107.815 15.6369 108.016C15.4669 108.213 15.346 108.413 15.2744 108.614C15.2073 108.811 15.1737 109.039 15.1737 109.299H19.9674V110.286H14.0256V109.809C14.0256 109.397 14.0704 109.035 14.1599 108.721C14.2494 108.408 14.3971 108.11 14.603 107.828C14.8089 107.546 15.0775 107.264 15.4087 106.982C15.7444 106.701 16.1539 106.383 16.6373 106.029C16.9864 105.778 17.2774 105.539 17.5101 105.311C17.7473 105.082 17.9376 104.854 18.0808 104.626C18.224 104.398 18.3247 104.167 18.3829 103.934C18.4456 103.697 18.4769 103.447 18.4769 103.182Z" fill="#03102F"/>
<rect x="1" y="175" width="32" height="32" rx="16" stroke="white" stroke-width="0.625" stroke-linecap="round" stroke-dasharray="7.5 7.5"/>
<rect x="5.57129" y="179.571" width="22.8571" height="22.8571" rx="11.4286" fill="white"/>
<path d="M19.6921 193.56C19.6921 193.994 19.6093 194.39 19.4437 194.748C19.2826 195.102 19.0521 195.406 18.7522 195.661C18.4568 195.912 18.1009 196.107 17.6847 196.245C17.2684 196.384 16.8096 196.454 16.3083 196.454C15.3908 196.454 14.6612 196.279 14.1196 195.93V194.748C14.7686 195.258 15.5116 195.514 16.3486 195.514C16.6843 195.514 16.9864 195.471 17.255 195.386C17.528 195.301 17.7608 195.178 17.9532 195.017C18.1502 194.856 18.3001 194.661 18.4031 194.433C18.5105 194.204 18.5642 193.947 18.5642 193.661C18.5642 192.403 17.669 191.774 15.8786 191.774H15.0797V190.841H15.8384C17.4228 190.841 18.2151 190.25 18.2151 189.068C18.2151 187.976 17.6108 187.43 16.4023 187.43C15.722 187.43 15.0842 187.658 14.4889 188.115V187.047C15.1021 186.68 15.8316 186.497 16.6776 186.497C17.0804 186.497 17.4452 186.553 17.772 186.665C18.0987 186.777 18.3784 186.933 18.6112 187.135C18.8439 187.336 19.023 187.578 19.1483 187.86C19.2781 188.142 19.343 188.453 19.343 188.793C19.343 190.06 18.7029 190.874 17.4228 191.237V191.264C17.7496 191.3 18.0517 191.38 18.3292 191.505C18.6067 191.626 18.8462 191.785 19.0476 191.982C19.249 192.179 19.4057 192.412 19.5176 192.68C19.6339 192.944 19.6921 193.238 19.6921 193.56Z" fill="#03102F"/>
<path d="M60.4766 24H58.8359V9.99609H60.4766V24ZM75.657 24H73.6453L66.4383 12.8379C66.256 12.5579 66.1062 12.265 65.9891 11.959H65.9305C65.9826 12.2585 66.0086 12.8997 66.0086 13.8828V24H64.368V9.99609H66.4969L73.5086 20.9824C73.8016 21.4382 73.9904 21.7507 74.075 21.9199H74.1141C74.049 21.5163 74.0164 20.8294 74.0164 19.8594V9.99609H75.657V24ZM78.8746 23.4336V21.5C79.096 21.6953 79.3596 21.8711 79.6656 22.0273C79.9781 22.1836 80.3036 22.3171 80.6422 22.4277C80.9872 22.5319 81.3323 22.6133 81.6773 22.6719C82.0224 22.7305 82.3414 22.7598 82.6344 22.7598C83.6435 22.7598 84.3954 22.5742 84.8902 22.2031C85.3915 21.8255 85.6422 21.2852 85.6422 20.582C85.6422 20.2044 85.5576 19.8757 85.3883 19.5957C85.2255 19.3158 84.9977 19.0618 84.7047 18.834C84.4117 18.5996 84.0634 18.3783 83.6598 18.1699C83.2626 17.9551 82.8329 17.7305 82.3707 17.4961C81.8824 17.2487 81.4267 16.998 81.0035 16.7441C80.5803 16.4902 80.2125 16.2103 79.9 15.9043C79.5875 15.5983 79.3401 15.2533 79.1578 14.8691C78.982 14.4785 78.8941 14.0228 78.8941 13.502C78.8941 12.8639 79.0341 12.3105 79.3141 11.8418C79.594 11.3665 79.9618 10.9759 80.4176 10.6699C80.8733 10.3639 81.3909 10.1361 81.9703 9.98633C82.5562 9.83659 83.152 9.76172 83.7574 9.76172C85.1376 9.76172 86.1435 9.92773 86.775 10.2598V12.1055C85.9482 11.5326 84.887 11.2461 83.5914 11.2461C83.2333 11.2461 82.8753 11.2852 82.5172 11.3633C82.1591 11.4349 81.8401 11.5553 81.5602 11.7246C81.2802 11.8939 81.0523 12.112 80.8766 12.3789C80.7008 12.6458 80.6129 12.9714 80.6129 13.3555C80.6129 13.7135 80.678 14.0228 80.8082 14.2832C80.9449 14.5436 81.1435 14.7812 81.4039 14.9961C81.6643 15.2109 81.9801 15.4193 82.3512 15.6211C82.7288 15.8229 83.1617 16.0443 83.65 16.2852C84.1513 16.5326 84.6266 16.793 85.0758 17.0664C85.525 17.3398 85.9189 17.6426 86.2574 17.9746C86.596 18.3066 86.8629 18.6745 87.0582 19.0781C87.26 19.4818 87.3609 19.944 87.3609 20.4648C87.3609 21.1549 87.2242 21.7409 86.9508 22.2227C86.6839 22.6979 86.3193 23.0853 85.857 23.3848C85.4013 23.6842 84.874 23.8991 84.275 24.0293C83.676 24.166 83.0445 24.2344 82.3805 24.2344C82.1591 24.2344 81.8857 24.2148 81.5602 24.1758C81.2346 24.1432 80.9026 24.0911 80.5641 24.0195C80.2255 23.9544 79.9033 23.873 79.5973 23.7754C79.2978 23.6712 79.0569 23.5573 78.8746 23.4336ZM98.6352 11.4805H94.5922V24H92.9516V11.4805H88.9184V9.99609H98.6352V11.4805ZM110.515 24H108.698L107.214 20.0742H101.277L99.8801 24H98.0539L103.425 9.99609H105.124L110.515 24ZM106.677 18.5996L104.48 12.6328C104.408 12.4375 104.336 12.125 104.265 11.6953H104.226C104.161 12.0924 104.086 12.4049 104.001 12.6328L101.823 18.5996H106.677ZM120.051 24H112.785V9.99609H114.426V22.5156H120.051V24ZM129.665 24H122.399V9.99609H124.04V22.5156H129.665V24ZM145.983 11.4805H141.94V24H140.299V11.4805H136.266V9.99609H145.983V11.4805ZM158.429 24H156.476L154.132 20.0742C153.917 19.7096 153.709 19.4004 153.507 19.1465C153.305 18.8861 153.097 18.6745 152.882 18.5117C152.674 18.349 152.446 18.2318 152.198 18.1602C151.958 18.082 151.684 18.043 151.378 18.043H150.03V24H148.39V9.99609H152.57C153.182 9.99609 153.745 10.0742 154.259 10.2305C154.78 10.3802 155.229 10.6113 155.607 10.9238C155.991 11.2363 156.29 11.627 156.505 12.0957C156.72 12.5579 156.827 13.1016 156.827 13.7266C156.827 14.2148 156.752 14.6641 156.603 15.0742C156.46 15.4779 156.251 15.8392 155.978 16.1582C155.711 16.4772 155.385 16.7507 155.001 16.9785C154.624 17.1999 154.197 17.3724 153.722 17.4961V17.5352C153.956 17.6393 154.158 17.7598 154.327 17.8965C154.503 18.0267 154.669 18.1829 154.825 18.3652C154.982 18.5475 155.135 18.7559 155.284 18.9902C155.441 19.2181 155.613 19.485 155.802 19.791L158.429 24ZM150.03 11.4805V16.5586H152.257C152.667 16.5586 153.045 16.4967 153.39 16.373C153.741 16.2493 154.044 16.0736 154.298 15.8457C154.552 15.6113 154.751 15.3281 154.894 14.9961C155.037 14.6576 155.109 14.2799 155.109 13.8633C155.109 13.1146 154.864 12.5319 154.376 12.1152C153.894 11.6921 153.195 11.4805 152.277 11.4805H150.03ZM171.402 24H169.586L168.102 20.0742H162.164L160.768 24H158.941L164.312 9.99609H166.012L171.402 24ZM167.564 18.5996L165.367 12.6328C165.296 12.4375 165.224 12.125 165.152 11.6953H165.113C165.048 12.0924 164.973 12.4049 164.889 12.6328L162.711 18.5996H167.564ZM173.673 24V9.99609H177.54C182.475 9.99609 184.942 12.2715 184.942 16.8223C184.942 18.9837 184.255 20.722 182.882 22.0371C181.514 23.3457 179.682 24 177.384 24H173.673ZM175.313 11.4805V22.5156H177.403C179.239 22.5156 180.668 22.0241 181.69 21.041C182.712 20.0579 183.223 18.6647 183.223 16.8613C183.223 13.2741 181.316 11.4805 177.501 11.4805H175.313ZM195.318 24H187.896V9.99609H195.005V11.4805H189.537V16.1387H194.595V17.6133H189.537V22.5156H195.318V24ZM198.213 24V9.99609H202.198C203.409 9.99609 204.369 10.2923 205.079 10.8848C205.788 11.4772 206.143 12.2487 206.143 13.1992C206.143 13.9935 205.928 14.6836 205.498 15.2695C205.069 15.8555 204.476 16.2721 203.721 16.5195V16.5586C204.665 16.6693 205.42 17.0273 205.987 17.6328C206.553 18.2318 206.836 19.013 206.836 19.9766C206.836 21.1745 206.407 22.1445 205.547 22.8867C204.688 23.6289 203.604 24 202.295 24H198.213ZM199.854 11.4805V16.002H201.534C202.432 16.002 203.138 15.7871 203.653 15.3574C204.167 14.9212 204.424 14.3092 204.424 13.5215C204.424 12.1608 203.529 11.4805 201.739 11.4805H199.854ZM199.854 17.4766V22.5156H202.08C203.044 22.5156 203.789 22.2878 204.317 21.832C204.851 21.3763 205.118 20.7513 205.118 19.957C205.118 18.3034 203.991 17.4766 201.739 17.4766H199.854ZM220.718 24H218.902L217.417 20.0742H211.48L210.083 24H208.257L213.628 9.99609H215.327L220.718 24ZM216.88 18.5996L214.683 12.6328C214.611 12.4375 214.54 12.125 214.468 11.6953H214.429C214.364 12.0924 214.289 12.4049 214.204 12.6328L212.027 18.5996H216.88ZM233.066 23.043C231.66 23.8372 230.098 24.2344 228.379 24.2344C226.38 24.2344 224.762 23.5898 223.525 22.3008C222.295 21.0117 221.68 19.306 221.68 17.1836C221.68 15.0156 222.363 13.2383 223.73 11.8516C225.104 10.4583 226.842 9.76172 228.945 9.76172C230.469 9.76172 231.748 10.0091 232.783 10.5039V12.3203C231.65 11.6042 230.309 11.2461 228.76 11.2461C227.191 11.2461 225.905 11.7865 224.902 12.8672C223.9 13.9479 223.398 15.3477 223.398 17.0664C223.398 18.8372 223.864 20.2305 224.795 21.2461C225.726 22.2552 226.989 22.7598 228.584 22.7598C229.678 22.7598 230.625 22.5417 231.426 22.1055V18.1797H228.359V16.6953H233.066V23.043Z" fill="white"/>
<path d="M66.1016 111H58.8359V96.9961H60.4766V109.516H66.1016V111ZM73.4109 111.234C71.4253 111.234 69.8335 110.58 68.6355 109.271C67.4441 107.963 66.8484 106.26 66.8484 104.164C66.8484 101.911 67.4572 100.115 68.6746 98.7734C69.8921 97.4323 71.549 96.7617 73.6453 96.7617C75.5789 96.7617 77.1349 97.4128 78.3133 98.7148C79.4982 100.017 80.0906 101.719 80.0906 103.822C80.0906 106.107 79.4852 107.914 78.2742 109.242C77.0633 110.57 75.4422 111.234 73.4109 111.234ZM73.5281 98.2461C72.0568 98.2461 70.8621 98.7767 69.9441 99.8379C69.0262 100.899 68.5672 102.292 68.5672 104.018C68.5672 105.743 69.0132 107.133 69.9051 108.188C70.8035 109.236 71.9721 109.76 73.4109 109.76C74.9474 109.76 76.1583 109.258 77.0437 108.256C77.9292 107.253 78.3719 105.85 78.3719 104.047C78.3719 102.198 77.9422 100.769 77.0828 99.7598C76.2234 98.7507 75.0385 98.2461 73.5281 98.2461ZM93.5133 110.043C92.107 110.837 90.5445 111.234 88.8258 111.234C86.8271 111.234 85.2092 110.59 83.9723 109.301C82.7418 108.012 82.1266 106.306 82.1266 104.184C82.1266 102.016 82.8102 100.238 84.1773 98.8516C85.551 97.4583 87.2893 96.7617 89.3922 96.7617C90.9156 96.7617 92.1949 97.0091 93.2301 97.5039V99.3203C92.0973 98.6042 90.7561 98.2461 89.2066 98.2461C87.6376 98.2461 86.3518 98.7865 85.3492 99.8672C84.3466 100.948 83.8453 102.348 83.8453 104.066C83.8453 105.837 84.3108 107.23 85.2418 108.246C86.1728 109.255 87.4358 109.76 89.0309 109.76C90.1246 109.76 91.0719 109.542 91.8727 109.105V105.18H88.8062V103.695H93.5133V110.043ZM98.6156 111H96.975V96.9961H98.6156V111ZM113.796 111H111.784L104.577 99.8379C104.395 99.5579 104.245 99.265 104.128 98.959H104.07C104.122 99.2585 104.148 99.8997 104.148 100.883V111H102.507V96.9961H104.636L111.648 107.982C111.941 108.438 112.129 108.751 112.214 108.92H112.253C112.188 108.516 112.155 107.829 112.155 106.859V96.9961H113.796V111ZM129.46 96.9961L122.741 113.324H121.247L127.946 96.9961H129.46ZM136.383 110.434V108.5C136.605 108.695 136.868 108.871 137.174 109.027C137.487 109.184 137.812 109.317 138.151 109.428C138.496 109.532 138.841 109.613 139.186 109.672C139.531 109.73 139.85 109.76 140.143 109.76C141.152 109.76 141.904 109.574 142.399 109.203C142.9 108.826 143.151 108.285 143.151 107.582C143.151 107.204 143.066 106.876 142.897 106.596C142.734 106.316 142.506 106.062 142.213 105.834C141.92 105.6 141.572 105.378 141.168 105.17C140.771 104.955 140.342 104.73 139.879 104.496C139.391 104.249 138.935 103.998 138.512 103.744C138.089 103.49 137.721 103.21 137.409 102.904C137.096 102.598 136.849 102.253 136.666 101.869C136.491 101.479 136.403 101.023 136.403 100.502C136.403 99.8639 136.543 99.3105 136.823 98.8418C137.103 98.3665 137.47 97.9759 137.926 97.6699C138.382 97.3639 138.899 97.1361 139.479 96.9863C140.065 96.8366 140.661 96.7617 141.266 96.7617C142.646 96.7617 143.652 96.9277 144.284 97.2598V99.1055C143.457 98.5326 142.396 98.2461 141.1 98.2461C140.742 98.2461 140.384 98.2852 140.026 98.3633C139.668 98.4349 139.349 98.5553 139.069 98.7246C138.789 98.8939 138.561 99.112 138.385 99.3789C138.209 99.6458 138.121 99.9714 138.121 100.355C138.121 100.714 138.187 101.023 138.317 101.283C138.454 101.544 138.652 101.781 138.912 101.996C139.173 102.211 139.489 102.419 139.86 102.621C140.237 102.823 140.67 103.044 141.159 103.285C141.66 103.533 142.135 103.793 142.584 104.066C143.034 104.34 143.427 104.643 143.766 104.975C144.105 105.307 144.371 105.674 144.567 106.078C144.769 106.482 144.87 106.944 144.87 107.465C144.87 108.155 144.733 108.741 144.459 109.223C144.192 109.698 143.828 110.085 143.366 110.385C142.91 110.684 142.383 110.899 141.784 111.029C141.185 111.166 140.553 111.234 139.889 111.234C139.668 111.234 139.394 111.215 139.069 111.176C138.743 111.143 138.411 111.091 138.073 111.02C137.734 110.954 137.412 110.873 137.106 110.775C136.806 110.671 136.565 110.557 136.383 110.434ZM149.503 111H147.863V96.9961H149.503V111ZM163.863 110.043C162.457 110.837 160.895 111.234 159.176 111.234C157.177 111.234 155.559 110.59 154.322 109.301C153.092 108.012 152.477 106.306 152.477 104.184C152.477 102.016 153.16 100.238 154.527 98.8516C155.901 97.4583 157.639 96.7617 159.742 96.7617C161.266 96.7617 162.545 97.0091 163.58 97.5039V99.3203C162.447 98.6042 161.106 98.2461 159.557 98.2461C157.988 98.2461 156.702 98.7865 155.699 99.8672C154.697 100.948 154.195 102.348 154.195 104.066C154.195 105.837 154.661 107.23 155.592 108.246C156.523 109.255 157.786 109.76 159.381 109.76C160.475 109.76 161.422 109.542 162.223 109.105V105.18H159.156V103.695H163.863V110.043ZM178.614 111H176.602L169.395 99.8379C169.213 99.5579 169.063 99.265 168.946 98.959H168.887C168.94 99.2585 168.966 99.8997 168.966 100.883V111H167.325V96.9961H169.454L176.466 107.982C176.759 108.438 176.947 108.751 177.032 108.92H177.071C177.006 108.516 176.973 107.829 176.973 106.859V96.9961H178.614V111ZM192.73 105.336C192.73 109.268 190.956 111.234 187.408 111.234C184.009 111.234 182.31 109.343 182.31 105.561V96.9961H183.951V105.453C183.951 108.324 185.162 109.76 187.584 109.76C189.921 109.76 191.089 108.373 191.089 105.6V96.9961H192.73V105.336ZM198.077 105.707V111H196.436V96.9961H200.284C201.781 96.9961 202.94 97.3607 203.76 98.0898C204.587 98.819 205 99.8477 205 101.176C205 102.504 204.541 103.591 203.623 104.438C202.712 105.284 201.478 105.707 199.922 105.707H198.077ZM198.077 98.4805V104.223H199.795C200.928 104.223 201.791 103.965 202.383 103.451C202.982 102.93 203.282 102.198 203.282 101.254C203.282 99.4049 202.188 98.4805 200 98.4805H198.077Z" fill="white"/>
<path d="M58.1816 197.434V195.5C58.403 195.695 58.6667 195.871 58.9727 196.027C59.2852 196.184 59.6107 196.317 59.9492 196.428C60.2943 196.532 60.6393 196.613 60.9844 196.672C61.3294 196.73 61.6484 196.76 61.9414 196.76C62.9505 196.76 63.7025 196.574 64.1973 196.203C64.6986 195.826 64.9492 195.285 64.9492 194.582C64.9492 194.204 64.8646 193.876 64.6953 193.596C64.5326 193.316 64.3047 193.062 64.0117 192.834C63.7188 192.6 63.3704 192.378 62.9668 192.17C62.5697 191.955 62.14 191.73 61.6777 191.496C61.1895 191.249 60.7337 190.998 60.3105 190.744C59.8874 190.49 59.5195 190.21 59.207 189.904C58.8945 189.598 58.6471 189.253 58.4648 188.869C58.2891 188.479 58.2012 188.023 58.2012 187.502C58.2012 186.864 58.3411 186.311 58.6211 185.842C58.901 185.367 59.2689 184.976 59.7246 184.67C60.1803 184.364 60.6979 184.136 61.2773 183.986C61.8633 183.837 62.459 183.762 63.0645 183.762C64.4447 183.762 65.4505 183.928 66.082 184.26V186.105C65.2552 185.533 64.194 185.246 62.8984 185.246C62.5404 185.246 62.1823 185.285 61.8242 185.363C61.4661 185.435 61.1471 185.555 60.8672 185.725C60.5872 185.894 60.3594 186.112 60.1836 186.379C60.0078 186.646 59.9199 186.971 59.9199 187.355C59.9199 187.714 59.985 188.023 60.1152 188.283C60.252 188.544 60.4505 188.781 60.7109 188.996C60.9714 189.211 61.2871 189.419 61.6582 189.621C62.0358 189.823 62.4688 190.044 62.957 190.285C63.4583 190.533 63.9336 190.793 64.3828 191.066C64.832 191.34 65.2259 191.643 65.5645 191.975C65.903 192.307 66.1699 192.674 66.3652 193.078C66.5671 193.482 66.668 193.944 66.668 194.465C66.668 195.155 66.5312 195.741 66.2578 196.223C65.9909 196.698 65.6263 197.085 65.1641 197.385C64.7083 197.684 64.181 197.899 63.582 198.029C62.9831 198.166 62.3516 198.234 61.6875 198.234C61.4661 198.234 61.1927 198.215 60.8672 198.176C60.5417 198.143 60.2096 198.091 59.8711 198.02C59.5326 197.954 59.2103 197.873 58.9043 197.775C58.6048 197.671 58.3639 197.557 58.1816 197.434ZM77.9422 185.48H73.8992V198H72.2586V185.48H68.2254V183.996H77.9422V185.48ZM89.8219 198H88.0055L86.5211 194.074H80.5836L79.1871 198H77.3609L82.732 183.996H84.4312L89.8219 198ZM85.984 192.6L83.7867 186.633C83.7151 186.438 83.6435 186.125 83.5719 185.695H83.5328C83.4677 186.092 83.3928 186.405 83.3082 186.633L81.1305 192.6H85.984ZM102.131 198H100.178L97.8344 194.074C97.6195 193.71 97.4112 193.4 97.2094 193.146C97.0076 192.886 96.7992 192.674 96.5844 192.512C96.376 192.349 96.1482 192.232 95.9008 192.16C95.6599 192.082 95.3865 192.043 95.0805 192.043H93.7328V198H92.0922V183.996H96.2719C96.8839 183.996 97.447 184.074 97.9613 184.23C98.4822 184.38 98.9314 184.611 99.309 184.924C99.6931 185.236 99.9926 185.627 100.207 186.096C100.422 186.558 100.53 187.102 100.53 187.727C100.53 188.215 100.455 188.664 100.305 189.074C100.162 189.478 99.9535 189.839 99.6801 190.158C99.4131 190.477 99.0876 190.751 98.7035 190.979C98.3259 191.2 97.8995 191.372 97.4242 191.496V191.535C97.6586 191.639 97.8604 191.76 98.0297 191.896C98.2055 192.027 98.3715 192.183 98.5277 192.365C98.684 192.548 98.837 192.756 98.9867 192.99C99.143 193.218 99.3155 193.485 99.5043 193.791L102.131 198ZM93.7328 185.48V190.559H95.9594C96.3695 190.559 96.7471 190.497 97.0922 190.373C97.4437 190.249 97.7465 190.074 98.0004 189.846C98.2543 189.611 98.4529 189.328 98.5961 188.996C98.7393 188.658 98.8109 188.28 98.8109 187.863C98.8109 187.115 98.5668 186.532 98.0785 186.115C97.5967 185.692 96.8969 185.48 95.9789 185.48H93.7328ZM111.648 185.48H107.605V198H105.964V185.48H101.931V183.996H111.648V185.48ZM128.024 185.48H123.981V198H122.341V185.48H118.307V183.996H128.024V185.48ZM140.47 198H138.517L136.173 194.074C135.959 193.71 135.75 193.4 135.548 193.146C135.347 192.886 135.138 192.674 134.923 192.512C134.715 192.349 134.487 192.232 134.24 192.16C133.999 192.082 133.726 192.043 133.42 192.043H132.072V198H130.431V183.996H134.611C135.223 183.996 135.786 184.074 136.3 184.23C136.821 184.38 137.27 184.611 137.648 184.924C138.032 185.236 138.332 185.627 138.546 186.096C138.761 186.558 138.869 187.102 138.869 187.727C138.869 188.215 138.794 188.664 138.644 189.074C138.501 189.478 138.293 189.839 138.019 190.158C137.752 190.477 137.427 190.751 137.043 190.979C136.665 191.2 136.239 191.372 135.763 191.496V191.535C135.998 191.639 136.199 191.76 136.369 191.896C136.545 192.027 136.711 192.183 136.867 192.365C137.023 192.548 137.176 192.756 137.326 192.99C137.482 193.218 137.655 193.485 137.843 193.791L140.47 198ZM132.072 185.48V190.559H134.298C134.709 190.559 135.086 190.497 135.431 190.373C135.783 190.249 136.086 190.074 136.339 189.846C136.593 189.611 136.792 189.328 136.935 188.996C137.078 188.658 137.15 188.28 137.15 187.863C137.15 187.115 136.906 186.532 136.418 186.115C135.936 185.692 135.236 185.48 134.318 185.48H132.072ZM153.444 198H151.627L150.143 194.074H144.205L142.809 198H140.983L146.354 183.996H148.053L153.444 198ZM149.606 192.6L147.409 186.633C147.337 186.438 147.265 186.125 147.194 185.695H147.155C147.09 186.092 147.015 186.405 146.93 186.633L144.752 192.6H149.606ZM155.714 198V183.996H159.581C164.516 183.996 166.984 186.271 166.984 190.822C166.984 192.984 166.297 194.722 164.923 196.037C163.556 197.346 161.723 198 159.425 198H155.714ZM157.355 185.48V196.516H159.445C161.28 196.516 162.71 196.024 163.732 195.041C164.754 194.058 165.265 192.665 165.265 190.861C165.265 187.274 163.357 185.48 159.542 185.48H157.355ZM171.578 198H169.938V183.996H171.578V198ZM186.759 198H184.747L177.54 186.838C177.358 186.558 177.208 186.265 177.091 185.959H177.032C177.084 186.258 177.11 186.9 177.11 187.883V198H175.47V183.996H177.598L184.61 194.982C184.903 195.438 185.092 195.751 185.177 195.92H185.216C185.151 195.516 185.118 194.829 185.118 193.859V183.996H186.759V198ZM201.099 197.043C199.693 197.837 198.13 198.234 196.412 198.234C194.413 198.234 192.795 197.59 191.558 196.301C190.328 195.012 189.712 193.306 189.712 191.184C189.712 189.016 190.396 187.238 191.763 185.852C193.137 184.458 194.875 183.762 196.978 183.762C198.502 183.762 199.781 184.009 200.816 184.504V186.32C199.683 185.604 198.342 185.246 196.793 185.246C195.224 185.246 193.938 185.786 192.935 186.867C191.933 187.948 191.431 189.348 191.431 191.066C191.431 192.837 191.897 194.23 192.828 195.246C193.759 196.255 195.022 196.76 196.617 196.76C197.711 196.76 198.658 196.542 199.459 196.105V192.18H196.392V190.695H201.099V197.043Z" fill="white"/>
</svg>
