<svg width="176" height="116" viewBox="0 0 176 116" fill="none" xmlns="http://www.w3.org/2000/svg">
<path d="M132.17 86.4499C154.919 86.4499 173.36 68.0086 173.36 45.2599C173.36 22.5113 154.919 4.06995 132.17 4.06995C109.421 4.06995 90.98 22.5113 90.98 45.2599C90.98 68.0086 109.421 86.4499 132.17 86.4499Z" fill="#03102F"/>
<path d="M132.17 88.45C123.628 88.45 115.277 85.9169 108.175 81.1711C101.072 76.4254 95.5366 69.68 92.2676 61.7881C88.9987 53.8961 88.1434 45.2121 89.8099 36.834C91.4764 28.456 95.5898 20.7603 101.63 14.72C107.67 8.67979 115.366 4.56635 123.744 2.89985C132.122 1.23335 140.806 2.08866 148.698 5.35761C156.59 8.62656 163.335 14.1623 168.081 21.2649C172.827 28.3674 175.36 36.7178 175.36 45.26C175.36 56.7147 170.81 67.7002 162.71 75.7999C154.61 83.8996 143.625 88.45 132.17 88.45ZM132.17 6.06997C124.419 6.06997 116.842 8.36842 110.397 12.6747C103.952 16.9809 98.9294 23.1016 95.9632 30.2626C92.997 37.4236 92.2209 45.3034 93.733 52.9056C95.2452 60.5077 98.9777 67.4907 104.458 72.9715C109.939 78.4523 116.922 82.1848 124.524 83.6969C132.127 85.2091 140.006 84.433 147.167 81.4668C154.328 78.5006 160.449 73.4775 164.755 67.0328C169.062 60.588 171.36 53.011 171.36 45.26C171.36 34.8661 167.231 24.898 159.882 17.5485C152.532 10.1989 142.564 6.06997 132.17 6.06997Z" fill="white"/>
<path d="M43.19 84.38C65.9386 84.38 84.38 65.9386 84.38 43.19C84.38 20.4414 65.9386 2 43.19 2C20.4414 2 2 20.4414 2 43.19C2 65.9386 20.4414 84.38 43.19 84.38Z" fill="#03102F"/>
<path d="M43.19 86.38C34.6478 86.38 26.2975 83.847 19.1949 79.1012C12.0924 74.3554 6.55661 67.6101 3.28766 59.7181C0.0187135 51.8262 -0.836592 43.1421 0.829903 34.7641C2.4964 26.386 6.60985 18.6903 12.6501 12.6501C18.6903 6.60985 26.386 2.4964 34.7641 0.829903C43.1421 -0.836592 51.8262 0.0187135 59.7181 3.28766C67.6101 6.55661 74.3554 12.0924 79.1012 19.1949C83.847 26.2975 86.38 34.6478 86.38 43.19C86.38 54.6447 81.8297 65.6303 73.73 73.73C65.6303 81.8297 54.6447 86.38 43.19 86.38ZM43.19 4.00002C35.439 4.00002 27.862 6.29847 21.4172 10.6047C14.9725 14.911 9.94938 21.0316 6.98318 28.1927C4.01698 35.3537 3.24089 43.2335 4.75304 50.8356C6.2652 58.4377 9.99768 65.4207 15.4785 70.9015C20.9593 76.3824 27.9423 80.1148 35.5444 81.627C43.1465 83.1392 51.0263 82.3631 58.1874 79.3969C65.3484 76.4307 71.4691 71.4076 75.7753 64.9628C80.0816 58.5181 82.38 50.9411 82.38 43.19C82.38 32.7962 78.2511 22.8281 70.9015 15.4785C63.552 8.12895 53.5839 4.00002 43.19 4.00002Z" fill="white"/>
<path d="M57.05 67.06C56.6298 67.0594 56.2204 66.9264 55.88 66.68L42.19 56.68L28.5 66.68C28.1579 66.9258 27.7469 67.0574 27.3256 67.0559C26.9043 67.0544 26.4943 66.9198 26.1539 66.6715C25.8136 66.4232 25.5604 66.0738 25.4304 65.673C25.3004 65.2723 25.3003 64.8408 25.43 64.44L30.65 48.35L17 38.41C16.6578 38.1623 16.4029 37.8126 16.2717 37.4111C16.1406 37.0096 16.1399 36.5768 16.2698 36.1749C16.3997 35.773 16.6535 35.4225 16.9949 35.1737C17.3362 34.9249 17.7476 34.7906 18.17 34.79H35.06L40.29 18.7C40.4215 18.2998 40.676 17.9514 41.0172 17.7044C41.3584 17.4574 41.7688 17.3245 42.19 17.3245C42.6112 17.3245 43.0216 17.4574 43.3628 17.7044C43.704 17.9514 43.9585 18.2998 44.09 18.7L49.32 34.79H66.24C66.6624 34.7906 67.0738 34.9249 67.4151 35.1737C67.7565 35.4225 68.0103 35.773 68.1402 36.1749C68.2701 36.5768 68.2694 37.0096 68.1382 37.4111C68.0071 37.8126 67.7521 38.1623 67.41 38.41L53.73 48.35L59 64.44C59.101 64.7442 59.1271 65.0682 59.0761 65.3847C59.0252 65.7011 58.8986 66.0006 58.7073 66.2578C58.5159 66.5149 58.2653 66.7221 57.9768 66.8617C57.6883 67.0014 57.3704 67.0694 57.05 67.06ZM24.3 38.79L34.18 46C34.5231 46.248 34.7786 46.5985 34.9098 47.0011C35.041 47.4036 35.0411 47.8374 34.91 48.24L31.13 59.82L41 52.64C41.3425 52.3897 41.7558 52.2548 42.18 52.2548C42.6042 52.2548 43.0175 52.3897 43.36 52.64L53.24 59.82L49.47 48.21C49.3459 47.8115 49.3495 47.3841 49.4804 46.9878C49.6113 46.5915 49.8629 46.2461 50.2 46L60.08 38.82H47.87C47.4496 38.8113 47.0427 38.6704 46.707 38.4173C46.3713 38.1642 46.1239 37.8117 46 37.41L42.19 25.79L38.42 37.41C38.2887 37.8126 38.0331 38.1631 37.6898 38.4111C37.3466 38.6591 36.9335 38.7918 36.51 38.79H24.3Z" fill="white"/>
<path d="M116.74 67.0599C116.424 67.0597 116.113 66.9848 115.832 66.8412C115.551 66.6977 115.308 66.4896 115.122 66.2341C114.937 65.9785 114.815 65.6828 114.766 65.3709C114.717 65.0591 114.742 64.7401 114.84 64.4399L120.07 48.3499L106.38 38.4099C106.037 38.1617 105.782 37.8112 105.651 37.4087C105.52 37.0062 105.52 36.5725 105.651 36.1701C105.783 35.7677 106.038 35.4173 106.381 35.1692C106.724 34.9212 107.137 34.7884 107.56 34.7899H124.47L129.7 18.6999C129.831 18.299 130.085 17.9496 130.426 17.7017C130.767 17.4539 131.178 17.3203 131.6 17.3199C132.022 17.3203 132.433 17.4539 132.774 17.7017C133.115 17.9496 133.369 18.299 133.5 18.6999L138.73 34.7899H155.65C156.072 34.7906 156.484 34.9249 156.825 35.1737C157.166 35.4225 157.42 35.7729 157.55 36.1749C157.68 36.5768 157.679 37.0095 157.548 37.411C157.417 37.8126 157.162 38.1622 156.82 38.4099L143.14 48.3499L148.37 64.4399C148.502 64.8422 148.504 65.2762 148.374 65.6792C148.244 66.0823 147.989 66.4337 147.647 66.6828C147.304 66.9319 146.891 67.0659 146.468 67.0654C146.044 67.0648 145.632 66.9299 145.29 66.6799L131.6 56.6799L117.92 66.6799C117.577 66.9284 117.164 67.0615 116.74 67.0599ZM131.6 52.2599C132.024 52.2584 132.437 52.3915 132.78 52.6399L142.66 59.8199L138.88 48.2099C138.749 47.8074 138.749 47.3736 138.88 46.9711C139.011 46.5685 139.267 46.218 139.61 45.9699L149.49 38.7899H137.28C136.858 38.7896 136.447 38.656 136.106 38.4082C135.765 38.1603 135.511 37.8109 135.38 37.4099L131.6 25.7899L127.83 37.4099C127.699 37.8109 127.445 38.1603 127.104 38.4082C126.763 38.656 126.352 38.7896 125.93 38.7899H113.71L123.59 45.9999C123.933 46.248 124.189 46.5985 124.32 47.001C124.451 47.4036 124.451 47.8374 124.32 48.2399L120.55 59.8499L130.43 52.6699C130.767 52.4128 131.176 52.2692 131.6 52.2599Z" fill="white"/>
<path d="M88.32 113.25C115.31 113.25 137.19 91.3702 137.19 64.38C137.19 37.3899 115.31 15.51 88.32 15.51C61.3299 15.51 39.45 37.3899 39.45 64.38C39.45 91.3702 61.3299 113.25 88.32 113.25Z" fill="#03102F"/>
<path d="M88.32 115.25C78.2588 115.25 68.4236 112.267 60.0581 106.677C51.6926 101.087 45.1725 93.1424 41.3222 83.8471C37.472 74.5519 36.4646 64.3236 38.4274 54.4558C40.3903 44.588 45.2352 35.5238 52.3495 28.4095C59.4638 21.2952 68.5279 16.4503 78.3957 14.4875C88.2635 12.5247 98.4918 13.5321 107.787 17.3823C117.082 21.2325 125.027 27.7526 130.617 36.1182C136.206 44.4837 139.19 54.3189 139.19 64.38C139.19 71.0604 137.874 77.6753 135.318 83.8471C132.761 90.019 129.014 95.6268 124.29 100.351C119.567 105.074 113.959 108.821 107.787 111.378C101.615 113.934 95.0003 115.25 88.32 115.25ZM88.32 17.51C79.05 17.51 69.9881 20.2589 62.2804 25.4091C54.5727 30.5592 48.5652 37.8793 45.0177 46.4437C41.4703 55.008 40.5421 64.432 42.3506 73.5239C44.1591 82.6158 48.623 90.9672 55.1779 97.5221C61.7328 104.077 70.0842 108.541 79.1761 110.349C88.268 112.158 97.692 111.23 106.256 107.682C114.821 104.135 122.141 98.1273 127.291 90.4196C132.441 82.7119 135.19 73.65 135.19 64.38C135.19 58.225 133.978 52.1302 131.622 46.4437C129.267 40.7571 125.814 35.5902 121.462 31.2379C117.11 26.8857 111.943 23.4332 106.256 21.0778C100.57 18.7224 94.475 17.51 88.32 17.51Z" fill="white"/>
<path d="M79.73 80.3C79.2019 80.3004 78.695 80.0919 78.32 79.72L66.76 68.16C66.3847 67.7847 66.1739 67.2757 66.1739 66.745C66.1739 66.2143 66.3847 65.7053 66.76 65.33C67.1353 64.9547 67.6443 64.7439 68.175 64.7439C68.7057 64.7439 69.2147 64.9547 69.59 65.33L79.73 75.47L109.14 46.06C109.325 45.8673 109.546 45.7133 109.791 45.607C110.035 45.5006 110.299 45.444 110.566 45.4405C110.833 45.437 111.098 45.4866 111.345 45.5864C111.593 45.6863 111.818 45.8344 112.008 46.0221C112.197 46.2099 112.348 46.4335 112.45 46.6799C112.553 46.9264 112.605 47.1908 112.604 47.4577C112.604 47.7246 112.55 47.9887 112.446 48.2346C112.342 48.4805 112.191 48.7033 112 48.89L81.15 79.72C80.9631 79.9054 80.7415 80.052 80.4978 80.1515C80.2541 80.2511 79.9932 80.3015 79.73 80.3Z" fill="white"/>
</svg>
